<?xml version="1.0" encoding="UTF-8" standalone="no"?>
<svg
   xmlns:dc="http://purl.org/dc/elements/1.1/"
   xmlns:cc="http://creativecommons.org/ns#"
   xmlns:rdf="http://www.w3.org/1999/02/22-rdf-syntax-ns#"
   xmlns:svg="http://www.w3.org/2000/svg"
   xmlns="http://www.w3.org/2000/svg"
   xmlns:sodipodi="http://sodipodi.sourceforge.net/DTD/sodipodi-0.dtd"
   xmlns:inkscape="http://www.inkscape.org/namespaces/inkscape"
   width="793.700787402"
   height="1122.51968504"
   version="1.1"
   id="svg165"
   sodipodi:docname="prelab part 2 try 4.svg"
   inkscape:version="0.92.4 (5da689c313, 2019-01-14)">
  <metadata
     id="metadata169">
    <rdf:RDF>
      <cc:Work
         rdf:about="">
        <dc:format>image/svg+xml</dc:format>
        <dc:type
           rdf:resource="http://purl.org/dc/dcmitype/StillImage" />
        <dc:title></dc:title>
      </cc:Work>
    </rdf:RDF>
  </metadata>
  <sodipodi:namedview
     pagecolor="#ffffff"
     bordercolor="#666666"
     borderopacity="1"
     objecttolerance="10"
     gridtolerance="10"
     guidetolerance="10"
     inkscape:pageopacity="0"
     inkscape:pageshadow="2"
     inkscape:window-width="1920"
     inkscape:window-height="1001"
     id="namedview167"
     showgrid="false"
     showguides="false"
     inkscape:zoom="3.3638609"
     inkscape:cx="333.26866"
     inkscape:cy="778.50229"
     inkscape:window-x="-9"
     inkscape:window-y="-9"
     inkscape:window-maximized="1"
     inkscape:current-layer="g163" />
  <desc
     id="desc2">C:\Users\ninja\OneDrive\Documents\ECE\ECE 115\Module 1\Prelab\Prelab\prelab part 2 try 4.DXF - scale = 1.000000, origin = (0.000000, 0.000000), method = manual</desc>
  <defs
     id="defs17">
    <marker
       id="DistanceX"
       orient="auto"
       refX="0.0"
       refY="0.0"
       style="overflow:visible">
      <path
         d="M 3,-3 L -3,3 M 0,-5 L  0,5"
         style="stroke:#000000; stroke-width:0.5"
         id="path4" />
    </marker>
    <pattern
       height="8"
       id="Hatch"
       patternUnits="userSpaceOnUse"
       width="8"
       x="0"
       y="0">
      <path
         d="M8 4 l-4,4"
         linecap="square"
         stroke="#000000"
         stroke-width="0.25"
         id="path7" />
      <path
         d="M6 2 l-4,4"
         linecap="square"
         stroke="#000000"
         stroke-width="0.25"
         id="path9" />
      <path
         d="M4 0 l-4,4"
         linecap="square"
         stroke="#000000"
         stroke-width="0.25"
         id="path11" />
    </pattern>
    <symbol
       id="*Model_Space" />
    <symbol
       id="*Paper_Space" />
    <symbol
       id="*Paper_Space0" />
  </defs>
  <g
     inkscape:groupmode="layer"
     inkscape:label="0"
     id="g163">
    <path
       d="m 372.79914,380.51517 a 6.425197,6.425197 0 1 0 -12.8504,0 6.425197,6.425197 0 1 0 12.8504,0 z"
       style="fill:none;stroke:#ff0000;stroke-width:0.07559055;stroke-linecap:round;stroke-opacity:1;stroke-miterlimit:4;stroke-dasharray:none"
       id="path19"
       inkscape:connector-curvature="0" />
    <path
       d="m 404.16921,372.42607 v 17.00787"
       style="fill:none;stroke:#ff0000;stroke-width:0.07559055;stroke-linecap:round;stroke-opacity:1;stroke-miterlimit:4;stroke-dasharray:none"
       id="path21"
       inkscape:connector-curvature="0" />
    <path
       d="M 421.17709,372.42607 H 404.16921"
       style="fill:none;stroke:#ff0000;stroke-width:0.07559055;stroke-linecap:round;stroke-opacity:1;stroke-miterlimit:4;stroke-dasharray:none"
       id="path23"
       inkscape:connector-curvature="0" />
    <path
       d="M 421.17709,389.43394 V 372.42607"
       style="fill:none;stroke:#ff0000;stroke-width:0.07559055;stroke-linecap:round;stroke-opacity:1;stroke-miterlimit:4;stroke-dasharray:none"
       id="path25"
       inkscape:connector-curvature="0" />
    <path
       d="m 404.16921,389.43394 h 17.00788"
       style="fill:none;stroke:#ff0000;stroke-width:0.07559055;stroke-linecap:round;stroke-opacity:1;stroke-miterlimit:4;stroke-dasharray:none"
       id="path27"
       inkscape:connector-curvature="0" />
    <path
       d="m 389.80701,380.51517 a 4.535433,4.535433 0 1 0 -9.07087,0 4.535433,4.535433 0 1 0 9.07087,0 z"
       style="fill:none;stroke:#ff0000;stroke-width:0.07559055;stroke-linecap:round;stroke-opacity:1;stroke-miterlimit:4;stroke-dasharray:none"
       id="path29"
       inkscape:connector-curvature="0" />
    <path
       d="m 457.0826,380.51517 a 71.811024,71.811024 0 1 0 -143.62205,0 71.811024,71.811024 0 1 0 143.62205,0 z"
       style="fill:none;stroke:#ff0000;stroke-width:0.07559055;stroke-linecap:round;stroke-opacity:1;stroke-miterlimit:4;stroke-dasharray:none"
       id="path31"
       inkscape:connector-curvature="0" />
    <path
       d="m 416.1316,339.85399 1.35676,-6.61417"
       style="fill:none;stroke:#0000ff;stroke-width:0.07559055;stroke-linecap:round;stroke-opacity:1;stroke-miterlimit:4;stroke-dasharray:none"
       id="path33"
       inkscape:connector-curvature="0" />
    <path
       d="m 417.48836,333.23982 h 5.42701"
       style="fill:none;stroke:#0000ff;stroke-width:0.07559055;stroke-linecap:round;stroke-opacity:1;stroke-miterlimit:4;stroke-dasharray:none"
       id="path35"
       inkscape:connector-curvature="0" />
    <path
       d="m 422.91537,333.23982 v 1.35675"
       style="fill:none;stroke:#0000ff;stroke-width:0.07559055;stroke-linecap:round;stroke-opacity:1;stroke-miterlimit:4;stroke-dasharray:none"
       id="path37"
       inkscape:connector-curvature="0" />
    <path
       d="m 422.91537,334.59657 h -4.49954"
       style="fill:none;stroke:#0000ff;stroke-width:0.07559055;stroke-linecap:round;stroke-opacity:1;stroke-miterlimit:4;stroke-dasharray:none"
       id="path39"
       inkscape:connector-curvature="0" />
    <path
       d="M 418.41583,334.59657 417.703,338.0759"
       style="fill:none;stroke:#0000ff;stroke-width:0.07559055;stroke-linecap:round;stroke-opacity:1;stroke-miterlimit:4;stroke-dasharray:none"
       id="path41"
       inkscape:connector-curvature="0" />
    <path
       d="m 417.703,338.0759 c 0.14005,-0.0387 0.28011,-0.0773 0.42134,-0.1113 0.13237,-0.0318 0.26579,-0.0595 0.40013,-0.0821 0.12561,-0.0211 0.25204,-0.0378 0.37894,-0.0477 0.11897,-0.009 0.23835,-0.0126 0.35774,-0.0159"
       style="fill:none;stroke:#0000ff;stroke-width:0.07559055;stroke-linecap:round;stroke-opacity:1;stroke-miterlimit:4;stroke-dasharray:none"
       id="path43"
       inkscape:connector-curvature="0" />
    <path
       d="m 419.26115,337.81886 c 0.14771,0.003 0.29543,0.006 0.44253,0.0186 0.14214,0.0117 0.28369,0.0319 0.42399,0.0583 0.13569,0.0256 0.2702,0.0571 0.40278,0.0954 0.13019,0.0376 0.25851,0.0818 0.38424,0.1325 0.12395,0.05 0.24539,0.10628 0.36304,0.16959 0.11769,0.0633 0.2316,0.13369 0.34184,0.20934 0.11179,0.0767 0.21982,0.15889 0.32328,0.24645 0.10641,0.09 0.208,0.18579 0.30474,0.28619 0.0969,0.10057 0.18896,0.20581 0.27559,0.31534 0.0849,0.1073 0.16457,0.21872 0.2385,0.33388 0.0742,0.11559 0.14258,0.23495 0.20404,0.35774 0.0613,0.12242 0.11565,0.24826 0.16429,0.37629 0.0498,0.13118 0.0937,0.26466 0.12985,0.40014 0.0371,0.13875 0.0661,0.27961 0.0901,0.42133 0.0248,0.14671 0.0442,0.29435 0.0556,0.44254 0.0119,0.15419 0.0152,0.30896 0.0186,0.46373"
       style="fill:none;stroke:#0000ff;stroke-width:0.07559055;stroke-linecap:round;stroke-opacity:1;stroke-miterlimit:4;stroke-dasharray:none"
       id="path45"
       inkscape:connector-curvature="0" />
    <path
       d="m 423.42415,342.14616 c -0.003,0.1078 -0.005,0.2156 -0.0106,0.32329 -0.005,0.10623 -0.014,0.21235 -0.0265,0.31799 -0.0123,0.10384 -0.0286,0.20721 -0.0477,0.31004 -0.019,0.10222 -0.041,0.2039 -0.0663,0.30474 -0.025,0.0998 -0.0534,0.19877 -0.0848,0.29679 -0.0312,0.0974 -0.0654,0.19388 -0.10334,0.28884 -0.0383,0.0959 -0.0804,0.19018 -0.12455,0.28354 -0.0444,0.094 -0.0909,0.18693 -0.14045,0.27824 -0.0489,0.0901 -0.10096,0.17865 -0.15634,0.26499 -0.0545,0.085 -0.11229,0.16784 -0.17224,0.24909 -0.0587,0.0795 -0.1194,0.15747 -0.18285,0.23319 -0.0627,0.0748 -0.12798,0.14741 -0.19609,0.21729 -0.068,0.0698 -0.13887,0.13693 -0.21199,0.2014 -0.073,0.0643 -0.14822,0.12605 -0.22525,0.18549 -0.0767,0.0592 -0.15513,0.1161 -0.23584,0.1696 -0.0819,0.0543 -0.16621,0.10509 -0.25174,0.15369 -0.0859,0.0488 -0.17312,0.0954 -0.26234,0.1378 -0.0894,0.0424 -0.18075,0.0806 -0.27294,0.11659 -0.0927,0.0362 -0.1862,0.0703 -0.28089,0.1007 -0.0961,0.0309 -0.19342,0.0581 -0.29149,0.0821 -0.1,0.0245 -0.20073,0.0458 -0.30209,0.0636 -0.10372,0.0182 -0.20807,0.0326 -0.31269,0.0451 -0.1075,0.0128 -0.21528,0.0233 -0.32329,0.0292 -0.11025,0.006 -0.22075,0.007 -0.33124,0.008"
       style="fill:none;stroke:#0000ff;stroke-width:0.07559055;stroke-linecap:round;stroke-opacity:1;stroke-miterlimit:4;stroke-dasharray:none"
       id="path47"
       inkscape:connector-curvature="0" />
    <path
       d="m 418.81066,346.80735 c -0.13181,-0.003 -0.26361,-0.005 -0.39483,-0.0159 -0.12694,-0.0103 -0.25334,-0.0282 -0.37894,-0.0503 -0.12212,-0.0215 -0.24349,-0.0471 -0.36304,-0.0795 -0.11753,-0.0319 -0.2333,-0.0704 -0.34714,-0.11394 -0.11275,-0.0432 -0.22359,-0.0913 -0.33124,-0.14575 -0.10803,-0.0546 -0.21284,-0.11558 -0.31534,-0.18019 -0.10372,-0.0654 -0.20508,-0.13452 -0.30208,-0.20934 -0.0987,-0.0761 -0.19288,-0.15813 -0.28354,-0.24379 -0.0913,-0.0863 -0.17909,-0.17628 -0.26235,-0.2703 -0.082,-0.0926 -0.15971,-0.1892 -0.23319,-0.28884 -0.0733,-0.0994 -0.14245,-0.20191 -0.20669,-0.30738 -0.065,-0.10672 -0.12496,-0.21648 -0.18019,-0.32859 -0.0554,-0.11253 -0.10611,-0.22743 -0.15105,-0.34449 -0.046,-0.11997 -0.0861,-0.24221 -0.1219,-0.36569 -0.0368,-0.12682 -0.0691,-0.25495 -0.0954,-0.38424 -0.0272,-0.13344 -0.048,-0.26811 -0.0689,-0.40278"
       style="fill:none;stroke:#0000ff;stroke-width:0.07559055;stroke-linecap:round;stroke-opacity:1;stroke-miterlimit:4;stroke-dasharray:none"
       id="path49"
       inkscape:connector-curvature="0" />
    <path
       d="m 414.77485,343.07628 h 1.18716"
       style="fill:none;stroke:#0000ff;stroke-width:0.07559055;stroke-linecap:round;stroke-opacity:1;stroke-miterlimit:4;stroke-dasharray:none"
       id="path51"
       inkscape:connector-curvature="0" />
    <path
       d="m 415.96201,343.07628 c 0.0292,0.12615 0.0584,0.25229 0.0954,0.37628 0.0341,0.11433 0.0748,0.22683 0.12189,0.33654 0.0444,0.10353 0.0946,0.20458 0.15105,0.30209 0.0533,0.0921 0.11221,0.18104 0.17754,0.26499 0.0642,0.0825 0.13456,0.16016 0.20934,0.2332 0.0762,0.0744 0.15698,0.14404 0.24115,0.20934 0.0874,0.0678 0.1784,0.13092 0.27294,0.18814 0.0984,0.0596 0.20054,0.1127 0.30474,0.16165 0.10552,0.0496 0.21312,0.0948 0.32328,0.13249 0.10926,0.0374 0.22105,0.0673 0.33389,0.0927 0.11208,0.0253 0.22521,0.0462 0.33919,0.0583 0.11513,0.0122 0.23114,0.0154 0.34714,0.0186"
       style="fill:none;stroke:#0000ff;stroke-width:0.07559055;stroke-linecap:round;stroke-opacity:1;stroke-miterlimit:4;stroke-dasharray:none"
       id="path53"
       inkscape:connector-curvature="0" />
    <path
       d="m 418.87956,345.4506 c 0.11323,-0.003 0.22646,-0.006 0.33919,-0.0159 0.10924,-0.009 0.218,-0.025 0.32594,-0.0451 0.10626,-0.0198 0.21171,-0.0439 0.31534,-0.0742 0.1024,-0.03 0.20302,-0.066 0.30209,-0.106 0.0983,-0.0396 0.19512,-0.0831 0.28884,-0.13249 0.0957,-0.0504 0.18817,-0.10691 0.27824,-0.16695 0.0911,-0.0607 0.17966,-0.125 0.26499,-0.19344 0.0884,-0.0709 0.17322,-0.14619 0.25439,-0.22524 0.0806,-0.0785 0.1576,-0.16073 0.23054,-0.24644 0.0715,-0.084 0.13908,-0.17137 0.20139,-0.26234 0.0614,-0.0896 0.11766,-0.18276 0.1696,-0.27824 0.0516,-0.0948 0.0989,-0.19194 0.14044,-0.29149 0.0419,-0.10031 0.0779,-0.20309 0.10865,-0.30739 0.0311,-0.10549 0.0566,-0.21255 0.0768,-0.32064 0.0208,-0.11132 0.0359,-0.22374 0.0451,-0.33654 0.01,-0.11721 0.0127,-0.23482 0.0159,-0.35244"
       style="fill:none;stroke:#0000ff;stroke-width:0.07559055;stroke-linecap:round;stroke-opacity:1;stroke-miterlimit:4;stroke-dasharray:none"
       id="path55"
       inkscape:connector-curvature="0" />
    <path
       d="m 422.23699,342.09581 c -0.002,-0.10611 -0.005,-0.21222 -0.0132,-0.31799 -0.008,-0.10125 -0.0211,-0.20218 -0.0397,-0.30209 -0.018,-0.0965 -0.041,-0.19208 -0.0689,-0.28619 -0.0272,-0.0916 -0.059,-0.1819 -0.0954,-0.27029 -0.0361,-0.0877 -0.0768,-0.17359 -0.12189,-0.25704 -0.0449,-0.0831 -0.0943,-0.16372 -0.1484,-0.24114 -0.0548,-0.0784 -0.11428,-0.15351 -0.17754,-0.22524 -0.0645,-0.0731 -0.13284,-0.14274 -0.20405,-0.20935 -0.0719,-0.0673 -0.14671,-0.13145 -0.22524,-0.19079 -0.0788,-0.0595 -0.16132,-0.1142 -0.24644,-0.16429 -0.0852,-0.0501 -0.17292,-0.0957 -0.26234,-0.1378 -0.0918,-0.0432 -0.18529,-0.0829 -0.28089,-0.1166 -0.0981,-0.0346 -0.19832,-0.0629 -0.29944,-0.0874 -0.10512,-0.0255 -0.21117,-0.0469 -0.31799,-0.0636 -0.11066,-0.0173 -0.22215,-0.0296 -0.33389,-0.0371 -0.11818,-0.008 -0.23663,-0.0106 -0.35509,-0.0132"
       style="fill:none;stroke:#0000ff;stroke-width:0.07559055;stroke-linecap:round;stroke-opacity:1;stroke-miterlimit:4;stroke-dasharray:none"
       id="path57"
       inkscape:connector-curvature="0" />
    <path
       d="m 419.0465,339.17561 c -0.10253,0.002 -0.20507,0.004 -0.30739,0.0106 -0.10894,0.007 -0.21764,0.0178 -0.32593,0.0318 -0.11353,0.0147 -0.2266,0.0325 -0.33919,0.053 -0.11983,0.0218 -0.23913,0.0466 -0.35774,0.0742 -0.12436,0.029 -0.24798,0.0611 -0.37099,0.0954 -0.13057,0.0364 -0.26045,0.0752 -0.38953,0.1166 -0.13515,0.0433 -0.26941,0.0894 -0.40279,0.13779 -0.1411,0.0512 -0.28122,0.10512 -0.42134,0.159"
       style="fill:none;stroke:#0000ff;stroke-width:0.07559055;stroke-linecap:round;stroke-opacity:1;stroke-miterlimit:4;stroke-dasharray:none"
       id="path59"
       inkscape:connector-curvature="0" />
    <path
       d="m 408.49987,334.59657 h -2.03513"
       style="fill:none;stroke:#0000ff;stroke-width:0.07559055;stroke-linecap:round;stroke-opacity:1;stroke-miterlimit:4;stroke-dasharray:none"
       id="path61"
       inkscape:connector-curvature="0" />
    <path
       d="m 406.46474,334.59657 0.77642,-1.35675"
       style="fill:none;stroke:#0000ff;stroke-width:0.07559055;stroke-linecap:round;stroke-opacity:1;stroke-miterlimit:4;stroke-dasharray:none"
       id="path63"
       inkscape:connector-curvature="0" />
    <path
       d="m 407.24116,333.23982 h 2.44586"
       style="fill:none;stroke:#0000ff;stroke-width:0.07559055;stroke-linecap:round;stroke-opacity:1;stroke-miterlimit:4;stroke-dasharray:none"
       id="path65"
       inkscape:connector-curvature="0" />
    <path
       d="m 409.68702,333.23982 v 13.22834"
       style="fill:none;stroke:#0000ff;stroke-width:0.07559055;stroke-linecap:round;stroke-opacity:1;stroke-miterlimit:4;stroke-dasharray:none"
       id="path67"
       inkscape:connector-curvature="0" />
    <path
       d="m 409.68702,346.46816 h -1.18715"
       style="fill:none;stroke:#0000ff;stroke-width:0.07559055;stroke-linecap:round;stroke-opacity:1;stroke-miterlimit:4;stroke-dasharray:none"
       id="path69"
       inkscape:connector-curvature="0" />
    <path
       d="M 408.49987,346.46816 V 334.59657"
       style="fill:none;stroke:#0000ff;stroke-width:0.07559055;stroke-linecap:round;stroke-opacity:1;stroke-miterlimit:4;stroke-dasharray:none"
       id="path71"
       inkscape:connector-curvature="0" />
    <path
       d="m 398.32421,334.59657 h -2.03513"
       style="fill:none;stroke:#0000ff;stroke-width:0.07559055;stroke-linecap:round;stroke-opacity:1;stroke-miterlimit:4;stroke-dasharray:none"
       id="path73"
       inkscape:connector-curvature="0" />
    <path
       d="m 396.28908,334.59657 0.77643,-1.35675"
       style="fill:none;stroke:#0000ff;stroke-width:0.07559055;stroke-linecap:round;stroke-opacity:1;stroke-miterlimit:4;stroke-dasharray:none"
       id="path75"
       inkscape:connector-curvature="0" />
    <path
       d="m 397.06551,333.23982 h 2.44586"
       style="fill:none;stroke:#0000ff;stroke-width:0.07559055;stroke-linecap:round;stroke-opacity:1;stroke-miterlimit:4;stroke-dasharray:none"
       id="path77"
       inkscape:connector-curvature="0" />
    <path
       d="m 399.51137,333.23982 v 13.22834"
       style="fill:none;stroke:#0000ff;stroke-width:0.07559055;stroke-linecap:round;stroke-opacity:1;stroke-miterlimit:4;stroke-dasharray:none"
       id="path79"
       inkscape:connector-curvature="0" />
    <path
       d="m 399.51137,346.46816 h -1.18716"
       style="fill:none;stroke:#0000ff;stroke-width:0.07559055;stroke-linecap:round;stroke-opacity:1;stroke-miterlimit:4;stroke-dasharray:none"
       id="path81"
       inkscape:connector-curvature="0" />
    <path
       d="M 398.32421,346.46816 V 334.59657"
       style="fill:none;stroke:#0000ff;stroke-width:0.07559055;stroke-linecap:round;stroke-opacity:1;stroke-miterlimit:4;stroke-dasharray:none"
       id="path83"
       inkscape:connector-curvature="0" />
    <path
       d="m 387.97897,346.46816 h -7.46215"
       style="fill:none;stroke:#0000ff;stroke-width:0.07559055;stroke-linecap:round;stroke-opacity:1;stroke-miterlimit:4;stroke-dasharray:none"
       id="path85"
       inkscape:connector-curvature="0" />
    <path
       d="M 380.51682,346.46816 V 333.23982"
       style="fill:none;stroke:#0000ff;stroke-width:0.07559055;stroke-linecap:round;stroke-opacity:1;stroke-miterlimit:4;stroke-dasharray:none"
       id="path87"
       inkscape:connector-curvature="0" />
    <path
       d="m 380.51682,333.23982 h 7.46215"
       style="fill:none;stroke:#0000ff;stroke-width:0.07559055;stroke-linecap:round;stroke-opacity:1;stroke-miterlimit:4;stroke-dasharray:none"
       id="path89"
       inkscape:connector-curvature="0" />
    <path
       d="m 387.97897,333.23982 v 1.35675"
       style="fill:none;stroke:#0000ff;stroke-width:0.07559055;stroke-linecap:round;stroke-opacity:1;stroke-miterlimit:4;stroke-dasharray:none"
       id="path91"
       inkscape:connector-curvature="0" />
    <path
       d="m 387.97897,334.59657 h -6.27499"
       style="fill:none;stroke:#0000ff;stroke-width:0.07559055;stroke-linecap:round;stroke-opacity:1;stroke-miterlimit:4;stroke-dasharray:none"
       id="path93"
       inkscape:connector-curvature="0" />
    <path
       d="m 381.70398,334.59657 v 4.07026"
       style="fill:none;stroke:#0000ff;stroke-width:0.07559055;stroke-linecap:round;stroke-opacity:1;stroke-miterlimit:4;stroke-dasharray:none"
       id="path95"
       inkscape:connector-curvature="0" />
    <path
       d="m 381.70398,338.66683 h 6.27499"
       style="fill:none;stroke:#0000ff;stroke-width:0.07559055;stroke-linecap:round;stroke-opacity:1;stroke-miterlimit:4;stroke-dasharray:none"
       id="path97"
       inkscape:connector-curvature="0" />
    <path
       d="m 387.97897,338.66683 v 1.35675"
       style="fill:none;stroke:#0000ff;stroke-width:0.07559055;stroke-linecap:round;stroke-opacity:1;stroke-miterlimit:4;stroke-dasharray:none"
       id="path99"
       inkscape:connector-curvature="0" />
    <path
       d="m 387.97897,340.02358 h -6.27499"
       style="fill:none;stroke:#0000ff;stroke-width:0.07559055;stroke-linecap:round;stroke-opacity:1;stroke-miterlimit:4;stroke-dasharray:none"
       id="path101"
       inkscape:connector-curvature="0" />
    <path
       d="m 381.70398,340.02358 v 5.08783"
       style="fill:none;stroke:#0000ff;stroke-width:0.07559055;stroke-linecap:round;stroke-opacity:1;stroke-miterlimit:4;stroke-dasharray:none"
       id="path103"
       inkscape:connector-curvature="0" />
    <path
       d="m 381.70398,345.11141 h 6.27499"
       style="fill:none;stroke:#0000ff;stroke-width:0.07559055;stroke-linecap:round;stroke-opacity:1;stroke-miterlimit:4;stroke-dasharray:none"
       id="path105"
       inkscape:connector-curvature="0" />
    <path
       d="m 387.97897,345.11141 v 1.35675"
       style="fill:none;stroke:#0000ff;stroke-width:0.07559055;stroke-linecap:round;stroke-opacity:1;stroke-miterlimit:4;stroke-dasharray:none"
       id="path107"
       inkscape:connector-curvature="0" />
    <path
       d="m 364.91416,339.77714 c 0.006,-0.23794 0.0118,-0.47588 0.0318,-0.71282 0.0194,-0.22923 0.052,-0.45752 0.0954,-0.68368 0.0423,-0.22068 0.0948,-0.43932 0.15899,-0.65453 0.0633,-0.21209 0.13786,-0.42083 0.22259,-0.62538 0.0843,-0.20343 0.17859,-0.40271 0.28354,-0.59623 0.10628,-0.19595 0.22348,-0.38599 0.34979,-0.56973 0.12787,-0.18601 0.26507,-0.36556 0.41074,-0.53793 0.15051,-0.17811 0.31007,-0.34856 0.47698,-0.51143 0.16755,-0.16349 0.34251,-0.31934 0.52468,-0.46639 0.17771,-0.14344 0.36228,-0.27851 0.55383,-0.40278 0.18994,-0.12323 0.38675,-0.23585 0.58828,-0.33919 0.20204,-0.10359 0.40882,-0.19786 0.62008,-0.28089 0.21325,-0.0838 0.43105,-0.15619 0.65188,-0.21729 0.2252,-0.0623 0.45353,-0.11292 0.68368,-0.1537 0.23781,-0.0421 0.47755,-0.0738 0.71812,-0.0927 0.2485,-0.0196 0.49789,-0.0257 0.74728,-0.0318"
       style="fill:none;stroke:#0000ff;stroke-width:0.07559055;stroke-linecap:round;stroke-opacity:1;stroke-miterlimit:4;stroke-dasharray:none"
       id="path109"
       inkscape:connector-curvature="0" />
    <path
       d="m 372.03182,332.90063 c 0.15199,0.002 0.30398,0.004 0.45578,0.0106 0.14867,0.007 0.29716,0.0185 0.44518,0.0344 0.14449,0.0155 0.28853,0.035 0.43194,0.0583 0.14108,0.0229 0.28156,0.0495 0.42134,0.0795 0.13785,0.0296 0.27502,0.0626 0.41073,0.1007 0.13473,0.0379 0.26803,0.0809 0.40014,0.12719 0.13116,0.046 0.26116,0.0952 0.38953,0.1484 0.12711,0.0527 0.25263,0.10924 0.37629,0.16959 0.12288,0.06 0.24393,0.12366 0.36304,0.1908 0.11773,0.0664 0.23357,0.13609 0.34714,0.20934 0.11263,0.0727 0.22303,0.14875 0.33124,0.22789 0.1067,0.078 0.21127,0.15904 0.31269,0.24379 0.10176,0.0851 0.20034,0.17389 0.29678,0.26499 0.0963,0.091 0.19046,0.18416 0.2809,0.28089 0.0911,0.0974 0.17839,0.19844 0.26234,0.30209 0.0844,0.10422 0.16542,0.21111 0.24644,0.31799"
       style="fill:none;stroke:#0000ff;stroke-width:0.07559055;stroke-linecap:round;stroke-opacity:1;stroke-miterlimit:4;stroke-dasharray:none"
       id="path111"
       inkscape:connector-curvature="0" />
    <path
       d="m 377.80332,335.66713 -1.03877,0.79497"
       style="fill:none;stroke:#0000ff;stroke-width:0.07559055;stroke-linecap:round;stroke-opacity:1;stroke-miterlimit:4;stroke-dasharray:none"
       id="path113"
       inkscape:connector-curvature="0" />
    <path
       d="m 376.76455,336.4621 c -0.0741,-0.0883 -0.1482,-0.17662 -0.22524,-0.26234 -0.076,-0.0846 -0.15486,-0.16659 -0.23584,-0.24644 -0.0801,-0.079 -0.1623,-0.15584 -0.24644,-0.23054 -0.0835,-0.0741 -0.16893,-0.14612 -0.25704,-0.21464 -0.0879,-0.0683 -0.17841,-0.13321 -0.27029,-0.1961 -0.0912,-0.0624 -0.18375,-0.1229 -0.27824,-0.18019 -0.0954,-0.0578 -0.19275,-0.1124 -0.29149,-0.16429 -0.0993,-0.0522 -0.20005,-0.1017 -0.30209,-0.1484 -0.20531,-0.0939 -0.41599,-0.17653 -0.63068,-0.24644 -0.21644,-0.0705 -0.43694,-0.12805 -0.65983,-0.17489 -0.22761,-0.0478 -0.4577,-0.0845 -0.68898,-0.106 -0.23941,-0.0223 -0.48009,-0.0284 -0.72077,-0.0344"
       style="fill:none;stroke:#0000ff;stroke-width:0.07559055;stroke-linecap:round;stroke-opacity:1;stroke-miterlimit:4;stroke-dasharray:none"
       id="path115"
       inkscape:connector-curvature="0" />
    <path
       d="m 371.95762,334.25738 c -0.1326,0.002 -0.2652,0.003 -0.39749,0.0106 -0.13106,0.007 -0.26182,0.0209 -0.39218,0.0371 -0.12862,0.016 -0.25684,0.0348 -0.38424,0.0583 -0.12541,0.0231 -0.25002,0.0508 -0.37364,0.0821 -0.12468,0.0317 -0.24836,0.0671 -0.37099,0.106 -0.12146,0.0385 -0.2419,0.0804 -0.36038,0.1272 -0.11921,0.0471 -0.23645,0.0991 -0.35244,0.15369 -0.11727,0.0552 -0.23326,0.11308 -0.34714,0.17489 -0.11344,0.0616 -0.22479,0.12707 -0.33389,0.1961 -0.10643,0.0673 -0.21073,0.13805 -0.31269,0.21199 -0.10042,0.0728 -0.19859,0.14877 -0.29414,0.22789 -0.0945,0.0782 -0.18639,0.15957 -0.27559,0.24379 -0.0886,0.0836 -0.17447,0.17013 -0.25704,0.2597 -0.082,0.0889 -0.16066,0.18086 -0.23584,0.27559 -0.0758,0.0955 -0.14801,0.19381 -0.21729,0.29414 -0.0693,0.10041 -0.13576,0.20285 -0.19875,0.30739 -0.0631,0.10467 -0.1227,0.21146 -0.17754,0.32063 -0.0545,0.10845 -0.1042,0.21925 -0.15105,0.33124 -0.0467,0.11174 -0.0906,0.22466 -0.12984,0.33919 -0.0398,0.11606 -0.0748,0.23376 -0.106,0.35244 -0.0314,0.1192 -0.059,0.23938 -0.0821,0.36039 -0.0234,0.12208 -0.0423,0.245 -0.0583,0.36833 -0.0164,0.1268 -0.0297,0.25405 -0.0371,0.38159 -0.008,0.12964 -0.009,0.25959 -0.0106,0.38954"
       style="fill:none;stroke:#0000ff;stroke-width:0.07559055;stroke-linecap:round;stroke-opacity:1;stroke-miterlimit:4;stroke-dasharray:none"
       id="path117"
       inkscape:connector-curvature="0" />
    <path
       d="m 366.10132,339.86724 c 0.005,0.19552 0.01,0.39104 0.0265,0.58563 0.0163,0.18746 0.044,0.37406 0.0795,0.55913 0.0346,0.1805 0.0767,0.35954 0.12984,0.53528 0.0522,0.17278 0.11514,0.34236 0.18549,0.50878 0.0704,0.16645 0.1482,0.32973 0.23585,0.48759 0.0883,0.15898 0.1865,0.31245 0.29149,0.46108 0.10681,0.15122 0.22062,0.29743 0.34183,0.43724 0.12444,0.14351 0.25669,0.28029 0.39484,0.41073 0.13898,0.13122 0.28393,0.25604 0.43459,0.37364 0.149,0.11631 0.30359,0.22556 0.46373,0.32594 0.15852,0.0994 0.32248,0.19001 0.49023,0.27294 0.16854,0.0833 0.3409,0.15881 0.51674,0.22524 0.1788,0.0676 0.36119,0.12573 0.54588,0.17489 0.18873,0.0503 0.37987,0.0911 0.57238,0.12455 0.19929,0.0346 0.40004,0.0614 0.60153,0.0769 0.20881,0.016 0.41842,0.0199 0.62803,0.0238"
       style="fill:none;stroke:#0000ff;stroke-width:0.07559055;stroke-linecap:round;stroke-opacity:1;stroke-miterlimit:4;stroke-dasharray:none"
       id="path119"
       inkscape:connector-curvature="0" />
    <path
       d="m 372.03977,345.4506 c 0.23093,-0.006 0.46187,-0.0128 0.69162,-0.0344 0.22245,-0.021 0.44379,-0.0563 0.66248,-0.10335 0.21407,-0.046 0.42562,-0.10323 0.63333,-0.17224 0.20665,-0.0687 0.4095,-0.14902 0.60683,-0.24114 0.19742,-0.0922 0.38931,-0.19613 0.57503,-0.31004 0.18952,-0.11626 0.37261,-0.24289 0.54853,-0.37894 0.18042,-0.13954 0.3533,-0.289 0.51673,-0.44784 0.17024,-0.16545 0.33024,-0.34109 0.49023,-0.51673"
       style="fill:none;stroke:#0000ff;stroke-width:0.07559055;stroke-linecap:round;stroke-opacity:1;stroke-miterlimit:4;stroke-dasharray:none"
       id="path121"
       inkscape:connector-curvature="0" />
    <path
       d="m 376.76455,343.24587 1.03877,0.78703"
       style="fill:none;stroke:#0000ff;stroke-width:0.07559055;stroke-linecap:round;stroke-opacity:1;stroke-miterlimit:4;stroke-dasharray:none"
       id="path123"
       inkscape:connector-curvature="0" />
    <path
       d="m 377.80332,344.0329 c -0.0836,0.10786 -0.16719,0.21572 -0.25439,0.32063 -0.0868,0.10442 -0.17714,0.20591 -0.27029,0.30474 -0.0917,0.0973 -0.18614,0.19201 -0.28354,0.28354 -0.0971,0.0913 -0.19723,0.1794 -0.29944,0.26499 -0.10273,0.086 -0.2076,0.16949 -0.31534,0.2491 -0.1078,0.0796 -0.21847,0.15542 -0.33124,0.22789 -0.1137,0.0731 -0.22953,0.14278 -0.34714,0.20934 -0.11831,0.067 -0.23843,0.13073 -0.36039,0.19079 -0.12272,0.0604 -0.24731,0.11712 -0.37363,0.1696 -0.12652,0.0526 -0.25478,0.10091 -0.38424,0.14574 -0.13043,0.0452 -0.26209,0.0868 -0.39484,0.12455 -0.13498,0.0384 -0.27108,0.0729 -0.40808,0.10335 -0.13785,0.0307 -0.2766,0.0573 -0.41604,0.0795 -0.14251,0.0227 -0.28573,0.0406 -0.42929,0.0556 -0.14544,0.0152 -0.29123,0.0274 -0.43723,0.0344 -0.15001,0.007 -0.30025,0.009 -0.45048,0.0106"
       style="fill:none;stroke:#0000ff;stroke-width:0.07559055;stroke-linecap:round;stroke-opacity:1;stroke-miterlimit:4;stroke-dasharray:none"
       id="path125"
       inkscape:connector-curvature="0" />
    <path
       d="m 372.04772,346.80735 c -0.14228,-9.9e-4 -0.28456,-0.002 -0.42664,-0.008 -0.13887,-0.006 -0.27756,-0.0164 -0.41604,-0.0292 -0.13457,-0.0124 -0.26894,-0.0267 -0.40278,-0.0451 -0.1312,-0.0179 -0.26189,-0.0396 -0.39219,-0.0636 -0.12782,-0.0235 -0.25527,-0.0491 -0.38159,-0.0795 -0.12374,-0.0297 -0.2464,-0.064 -0.36833,-0.1007 -0.12015,-0.0361 -0.23958,-0.0745 -0.35774,-0.11659 -0.11699,-0.0416 -0.23273,-0.0868 -0.34714,-0.13515 -0.11363,-0.048 -0.22594,-0.0991 -0.33654,-0.1537 -0.1095,-0.0541 -0.21731,-0.11156 -0.32329,-0.17224 -0.10596,-0.0607 -0.21009,-0.12455 -0.31269,-0.19079 -0.10252,-0.0662 -0.20352,-0.13477 -0.30209,-0.2067 -0.0986,-0.072 -0.19483,-0.1473 -0.28884,-0.22524 -0.0949,-0.0787 -0.18763,-0.1601 -0.27824,-0.24379 -0.0918,-0.0848 -0.18144,-0.17194 -0.26764,-0.26234 -0.0872,-0.0914 -0.17077,-0.18615 -0.25439,-0.28089"
       style="fill:none;stroke:#0000ff;stroke-width:0.07559055;stroke-linecap:round;stroke-opacity:1;stroke-miterlimit:4;stroke-dasharray:none"
       id="path127"
       inkscape:connector-curvature="0" />
    <path
       d="m 366.59155,344.49398 c -0.13393,-0.16457 -0.26786,-0.32913 -0.39218,-0.50083 -0.12283,-0.16963 -0.23628,-0.34623 -0.34184,-0.52734 -0.10453,-0.17933 -0.20131,-0.36308 -0.28884,-0.55118 -0.0878,-0.1886 -0.16622,-0.38157 -0.23584,-0.57768 -0.0702,-0.19759 -0.13133,-0.39836 -0.18285,-0.60153 -0.0525,-0.20724 -0.095,-0.41697 -0.12984,-0.62802 -0.0356,-0.21613 -0.0632,-0.43364 -0.0795,-0.65188 -0.0168,-0.22561 -0.0217,-0.452 -0.0265,-0.67838"
       style="fill:none;stroke:#0000ff;stroke-width:0.07559055;stroke-linecap:round;stroke-opacity:1;stroke-miterlimit:4;stroke-dasharray:none"
       id="path129"
       inkscape:connector-curvature="0" />
    <path
       d="m 363.21822,346.46816 h -7.46215"
       style="fill:none;stroke:#0000ff;stroke-width:0.07559055;stroke-linecap:round;stroke-opacity:1;stroke-miterlimit:4;stroke-dasharray:none"
       id="path131"
       inkscape:connector-curvature="0" />
    <path
       d="M 355.75607,346.46816 V 333.23982"
       style="fill:none;stroke:#0000ff;stroke-width:0.07559055;stroke-linecap:round;stroke-opacity:1;stroke-miterlimit:4;stroke-dasharray:none"
       id="path133"
       inkscape:connector-curvature="0" />
    <path
       d="m 355.75607,333.23982 h 7.46215"
       style="fill:none;stroke:#0000ff;stroke-width:0.07559055;stroke-linecap:round;stroke-opacity:1;stroke-miterlimit:4;stroke-dasharray:none"
       id="path135"
       inkscape:connector-curvature="0" />
    <path
       d="m 363.21822,333.23982 v 1.35675"
       style="fill:none;stroke:#0000ff;stroke-width:0.07559055;stroke-linecap:round;stroke-opacity:1;stroke-miterlimit:4;stroke-dasharray:none"
       id="path137"
       inkscape:connector-curvature="0" />
    <path
       d="m 363.21822,334.59657 h -6.27499"
       style="fill:none;stroke:#0000ff;stroke-width:0.07559055;stroke-linecap:round;stroke-opacity:1;stroke-miterlimit:4;stroke-dasharray:none"
       id="path139"
       inkscape:connector-curvature="0" />
    <path
       d="m 356.94323,334.59657 v 4.07026"
       style="fill:none;stroke:#0000ff;stroke-width:0.07559055;stroke-linecap:round;stroke-opacity:1;stroke-miterlimit:4;stroke-dasharray:none"
       id="path141"
       inkscape:connector-curvature="0" />
    <path
       d="m 356.94323,338.66683 h 6.27499"
       style="fill:none;stroke:#0000ff;stroke-width:0.07559055;stroke-linecap:round;stroke-opacity:1;stroke-miterlimit:4;stroke-dasharray:none"
       id="path143"
       inkscape:connector-curvature="0" />
    <path
       d="m 363.21822,338.66683 v 1.35675"
       style="fill:none;stroke:#0000ff;stroke-width:0.07559055;stroke-linecap:round;stroke-opacity:1;stroke-miterlimit:4;stroke-dasharray:none"
       id="path145"
       inkscape:connector-curvature="0" />
    <path
       d="m 363.21822,340.02358 h -6.27499"
       style="fill:none;stroke:#0000ff;stroke-width:0.07559055;stroke-linecap:round;stroke-opacity:1;stroke-miterlimit:4;stroke-dasharray:none"
       id="path147"
       inkscape:connector-curvature="0" />
    <path
       d="m 356.94323,340.02358 v 5.08783"
       style="fill:none;stroke:#0000ff;stroke-width:0.07559055;stroke-linecap:round;stroke-opacity:1;stroke-miterlimit:4;stroke-dasharray:none"
       id="path149"
       inkscape:connector-curvature="0" />
    <path
       d="m 356.94323,345.11141 h 6.27499"
       style="fill:none;stroke:#0000ff;stroke-width:0.07559055;stroke-linecap:round;stroke-opacity:1;stroke-miterlimit:4;stroke-dasharray:none"
       id="path151"
       inkscape:connector-curvature="0" />
    <path
       d="m 363.21822,345.11141 v 1.35675"
       style="fill:none;stroke:#0000ff;stroke-width:0.07559055;stroke-linecap:round;stroke-opacity:1;stroke-miterlimit:4;stroke-dasharray:none"
       id="path153"
       inkscape:connector-curvature="0" />
    <text
       style="font-size: 18.3px; fill: #000000; font-family: Arial"
       x="-71.811024"
       y="1198.184188"
       id="text157">
      <tspan
         sodipodi:role="line"
         id="tspan155">SOLIDWORKS Educational Product.</tspan>
    </text>
    <text
       xml:space="preserve"
       style="font-style:normal;font-weight:normal;font-size:8px;line-height:1.25;font-family:sans-serif;letter-spacing:0px;word-spacing:0px;fill:#000000;fill-opacity:1;stroke:none;"
       x="364.91919"
       y="356.5257"
       id="text990"><tspan
         sodipodi:role="line"
         id="tspan988"
         x="364.91919"
         y="367.47366" /></text>
    <text
       xml:space="preserve"
       style="font-style:normal;font-weight:normal;font-size:12px;line-height:1.25;font-family:sans-serif;letter-spacing:0px;word-spacing:0px;fill:#000000;fill-opacity:1;stroke:#0000ff;stroke-width:0.07559055;stroke-miterlimit:4;stroke-dasharray:none;stroke-opacity:1;"
       x="375.84995"
       y="359.88901"
       id="text994"><tspan
         sodipodi:role="line"
         id="tspan992"
         x="375.84995"
         y="359.88901">JO</tspan></text>
  </g>
</svg>
