  0
SECTION
  2
HEADER
  9
$ACADVER
  1
AC1015
  9
$ACADMAINTVER
 70
     6
  9
$DWGCODEPAGE
  3
ANSI_1252
  9
$INSBASE
 10
0.0
 20
0.0
 30
0.0
  9
$EXTMIN
 10
-19.0
 20
-19.0
 30
0.0
  9
$EXTMAX
 10
19.0
 20
19.0
 30
0.0
  9
$LIMMIN
 10
0.0
 20
0.0
  9
$LIMMAX
 10
420.0
 20
297.0
  9
$ORTHOMODE
 70
     0
  9
$REGENMODE
 70
     1
  9
$FILLMODE
 70
     1
  9
$QTEXTMODE
 70
     0
  9
$MIRRTEXT
 70
     1
  9
$LTSCALE
 40
1.0
  9
$ATTMODE
 70
     1
  9
$TEXTSIZE
 40
3.5
  9
$TRACEWID
 40
1.0
  9
$TEXTSTYLE
  7
Standard
  9
$CLAYER
  8
0
  9
$CELTYPE
  6
ByLayer
  9
$CECOLOR
 62
   256
  9
$CELTSCALE
 40
1.0
  9
$DISPSILH
 70
     0
  9
$DIMSCALE
 40
1.0
  9
$DIMASZ
 40
3.302
  9
$DIMEXO
 40
1.0
  9
$DIMDLI
 40
3.75
  9
$DIMRND
 40
0.0
  9
$DIMDLE
 40
0.0
  9
$DIMEXE
 40
1.0
  9
$DIMTP
 40
0.0
  9
$DIMTM
 40
0.0
  9
$DIMTXT
 40
3.5
  9
$DIMCEN
 40
2.5
  9
$DIMTSZ
 40
0.0
  9
$DIMTOL
 70
     0
  9
$DIMLIM
 70
     0
  9
$DIMTIH
 70
     1
  9
$DIMTOH
 70
     1
  9
$DIMSE1
 70
     0
  9
$DIMSE2
 70
     0
  9
$DIMTAD
 70
     1
  9
$DIMZIN
 70
     1
  9
$DIMBLK
  1

  9
$DIMASO
 70
     1
  9
$DIMSHO
 70
     1
  9
$DIMPOST
  1

  9
$DIMAPOST
  1

  9
$DIMALT
 70
     0
  9
$DIMALTD
 70
     3
  9
$DIMALTF
 40
0.0393700787
  9
$DIMLFAC
 40
1.0
  9
$DIMTOFL
 70
     1
  9
$DIMTVP
 40
0.0
  9
$DIMTIX
 70
     0
  9
$DIMSOXD
 70
     0
  9
$DIMSAH
 70
     0
  9
$DIMBLK1
  1

  9
$DIMBLK2
  1

  9
$DIMSTYLE
  2
ISO-25
  9
$DIMCLRD
 70
     0
  9
$DIMCLRE
 70
     0
  9
$DIMCLRT
 70
     0
  9
$DIMTFAC
 40
1.0
  9
$DIMGAP
 40
1.524
  9
$DIMJUST
 70
     0
  9
$DIMSD1
 70
     0
  9
$DIMSD2
 70
     0
  9
$DIMTOLJ
 70
     0
  9
$DIMTZIN
 70
     1
  9
$DIMALTZ
 70
     0
  9
$DIMALTTZ
 70
     0
  9
$DIMUPT
 70
     0
  9
$DIMDEC
 70
     2
  9
$DIMTDEC
 70
     2
  9
$DIMALTU
 70
     2
  9
$DIMALTTD
 70
     3
  9
$DIMTXSTY
  7
Standard
  9
$DIMAUNIT
 70
     0
  9
$DIMADEC
 70
     2
  9
$DIMALTRND
 40
0.0
  9
$DIMAZIN
 70
     0
  9
$DIMDSEP
 70
    44
  9
$DIMATFIT
 70
     3
  9
$DIMFRAC
 70
     0
  9
$DIMLDRBLK
  1

  9
$DIMLUNIT
 70
     2
  9
$DIMLWD
 70
    -2
  9
$DIMLWE
 70
    -2
  9
$DIMTMOVE
 70
     0
  9
$LUNITS
 70
     2
  9
$LUPREC
 70
     2
  9
$SKETCHINC
 40
1.0
  9
$FILLETRAD
 40
10.0
  9
$AUNITS
 70
     0
  9
$AUPREC
 70
     2
  9
$MENU
  1
.
  9
$ELEVATION
 40
0.0
  9
$PELEVATION
 40
0.0
  9
$THICKNESS
 40
0.0
  9
$LIMCHECK
 70
     0
  9
$CHAMFERA
 40
0.0
  9
$CHAMFERB
 40
0.0
  9
$CHAMFERC
 40
0.0
  9
$CHAMFERD
 40
0.0
  9
$SKPOLY
 70
     0
  9
$TDCREATE
 40
2458858.709388472
  9
$TDUCREATE
 40
2458859.042721806
  9
$TDUPDATE
 40
2458858.709416065
  9
$TDUUPDATE
 40
2458859.042749398
  9
$TDINDWG
 40
0.0000000116
  9
$TDUSRTIMER
 40
0.0000000116
  9
$USRTIMER
 70
     1
  9
$ANGBASE
 50
0.0
  9
$ANGDIR
 70
     0
  9
$PDMODE
 70
     0
  9
$PDSIZE
 40
-1.0
  9
$PLINEWID
 40
0.0
  9
$SPLFRAME
 70
     0
  9
$SPLINETYPE
 70
     6
  9
$SPLINESEGS
 70
     8
  9
$HANDSEED
  5
BA
  9
$SURFTAB1
 70
     6
  9
$SURFTAB2
 70
     6
  9
$SURFTYPE
 70
     6
  9
$SURFU
 70
     6
  9
$SURFV
 70
     6
  9
$UCSBASE
  2

  9
$UCSNAME
  2

  9
$UCSORG
 10
0.0
 20
0.0
 30
0.0
  9
$UCSXDIR
 10
1.0
 20
0.0
 30
0.0
  9
$UCSYDIR
 10
0.0
 20
1.0
 30
0.0
  9
$UCSORTHOREF
  2

  9
$UCSORTHOVIEW
 70
     0
  9
$UCSORGTOP
 10
0.0
 20
0.0
 30
0.0
  9
$UCSORGBOTTOM
 10
0.0
 20
0.0
 30
0.0
  9
$UCSORGLEFT
 10
0.0
 20
0.0
 30
0.0
  9
$UCSORGRIGHT
 10
0.0
 20
0.0
 30
0.0
  9
$UCSORGFRONT
 10
0.0
 20
0.0
 30
0.0
  9
$UCSORGBACK
 10
0.0
 20
0.0
 30
0.0
  9
$PUCSBASE
  2

  9
$PUCSNAME
  2

  9
$PUCSORG
 10
0.0
 20
0.0
 30
0.0
  9
$PUCSXDIR
 10
1.0
 20
0.0
 30
0.0
  9
$PUCSYDIR
 10
0.0
 20
1.0
 30
0.0
  9
$PUCSORTHOREF
  2

  9
$PUCSORTHOVIEW
 70
     0
  9
$PUCSORGTOP
 10
0.0
 20
0.0
 30
0.0
  9
$PUCSORGBOTTOM
 10
0.0
 20
0.0
 30
0.0
  9
$PUCSORGLEFT
 10
0.0
 20
0.0
 30
0.0
  9
$PUCSORGRIGHT
 10
0.0
 20
0.0
 30
0.0
  9
$PUCSORGFRONT
 10
0.0
 20
0.0
 30
0.0
  9
$PUCSORGBACK
 10
0.0
 20
0.0
 30
0.0
  9
$USERI1
 70
     0
  9
$USERI2
 70
     0
  9
$USERI3
 70
     0
  9
$USERI4
 70
     0
  9
$USERI5
 70
     0
  9
$USERR1
 40
0.0
  9
$USERR2
 40
0.0
  9
$USERR3
 40
0.0
  9
$USERR4
 40
0.0
  9
$USERR5
 40
0.0
  9
$WORLDVIEW
 70
     1
  9
$SHADEDGE
 70
     3
  9
$SHADEDIF
 70
    70
  9
$TILEMODE
 70
     1
  9
$MAXACTVP
 70
    64
  9
$PINSBASE
 10
0.0
 20
0.0
 30
0.0
  9
$PLIMCHECK
 70
     0
  9
$PEXTMIN
 10
1.0000000000E+20
 20
1.0000000000E+20
 30
1.0000000000E+20
  9
$PEXTMAX
 10
-1.0000000000E+20
 20
-1.0000000000E+20
 30
-1.0000000000E+20
  9
$PLIMMIN
 10
0.0
 20
0.0
  9
$PLIMMAX
 10
420.0
 20
297.0
  9
$UNITMODE
 70
     0
  9
$VISRETAIN
 70
     1
  9
$PLINEGEN
 70
     0
  9
$PSLTSCALE
 70
     1
  9
$TREEDEPTH
 70
  3020
  9
$CMLSTYLE
  2
Standard
  9
$CMLJUST
 70
     0
  9
$CMLSCALE
 40
20.0
  9
$PROXYGRAPHICS
 70
     1
  9
$MEASUREMENT
 70
     1
  9
$CELWEIGHT
370
    -1
  9
$ENDCAPS
280
     0
  9
$JOINSTYLE
280
     0
  9
$LWDISPLAY
290
     1
  9
$INSUNITS
 70
     4
  9
$HYPERLINKBASE
  1

  9
$STYLESHEET
  1

  9
$XEDIT
290
     1
  9
$CEPSNTYPE
380
     0
  9
$PSTYLEMODE
290
     1
  9
$FINGERPRINTGUID
  2
{85f82ba3-ef88-4d76-a162-536f3c81f369}
  9
$VERSIONGUID
  2
{FAEB1C32-E019-11D5-929B-00C0DF256EC4}
  9
$EXTNAMES
290
     1
  9
$PSVPSCALE
 40
0.0
  9
$OLESTARTUP
290
     0
  0
ENDSEC
  0
SECTION
  2
CLASSES
  0
CLASS
  1
ACDBDICTIONARYWDFLT
  2
AcDbDictionaryWithDefault
  3
ObjectDBX Classes
 90
        0
280
     0
281
     0
  0
CLASS
  1
VISUALSTYLE
  2
AcDbVisualStyle
  3
ObjectDBX Classes
 90
     4095
280
     0
281
     0
  0
CLASS
  1
MATERIAL
  2
AcDbMaterial
  3
ObjectDBX Classes
 90
     1153
280
     0
281
     0
  0
CLASS
  1
SCALE
  2
AcDbScale
  3
ObjectDBX Classes
 90
     1153
280
     0
281
     0
  0
CLASS
  1
TABLESTYLE
  2
AcDbTableStyle
  3
ObjectDBX Classes
 90
     4095
280
     0
281
     0
  0
CLASS
  1
MLEADERSTYLE
  2
AcDbMLeaderStyle
  3
ACDB_MLEADERSTYLE_CLASS
 90
     4095
280
     0
281
     0
  0
CLASS
  1
SUN
  2
AcDbSun
  3
SCENEOE
 90
     1153
280
     0
281
     0
  0
CLASS
  1
ACDBPLACEHOLDER
  2
AcDbPlaceHolder
  3
ObjectDBX Classes
 90
        0
280
     0
281
     0
  0
CLASS
  1
LAYOUT
  2
AcDbLayout
  3
ObjectDBX Classes
 90
        0
280
     0
281
     0
  0
ENDSEC
  0
SECTION
  2
TABLES
  0
TABLE
  2
VPORT
  5
8
330
0
100
AcDbSymbolTable
 70
     1
  0
VPORT
  5
29
330
8
100
AcDbSymbolTableRecord
100
AcDbViewportTableRecord
  2
*Active
 70
     0
 10
0.0
 20
0.0
 11
1.0
 21
1.0
 12
0.0
 22
0.0
 13
0.0
 23
0.0
 14
10.0
 24
10.0
 15
10.0
 25
10.0
 16
0.0
 26
0.0
 36
1.0
 17
0.0
 27
0.0
 37
0.0
 40
38.76
 41
1.0
 42
50.0
 43
0.0
 44
0.0
 50
0.0
 51
0.0
 71
     0
 72
   100
 73
     1
 74
     3
 75
     0
 76
     0
 77
     0
 78
     0
281
     0
 65
     1
110
0.0
120
0.0
130
0.0
111
1.0
121
0.0
131
0.0
112
0.0
122
1.0
132
0.0
 79
     0
146
0.0
  0
ENDTAB
  0
TABLE
  2
LTYPE
  5
5
330
0
100
AcDbSymbolTable
 70
     6
  0
LTYPE
  5
14
330
5
100
AcDbSymbolTableRecord
100
AcDbLinetypeTableRecord
  2
ByBlock
 70
     0
  3

 72
    65
 73
     0
 40
0.0
  0
LTYPE
  5
15
330
5
100
AcDbSymbolTableRecord
100
AcDbLinetypeTableRecord
  2
ByLayer
 70
     0
  3

 72
    65
 73
     0
 40
0.0
  0
LTYPE
  5
16
330
5
100
AcDbSymbolTableRecord
100
AcDbLinetypeTableRecord
  2
Continuous
 70
     0
  3
Solid line
 72
    65
 73
     0
 40
0.0
  0
LTYPE
  5
6E
330
5
100
AcDbSymbolTableRecord
100
AcDbLinetypeTableRecord
  2
HIDDEN
 70
     0
  3
Hidden __ __ __ __ __ __ __ __ __ __ __ __ __ __
 72
    65
 73
     2
 40
1.905
 49
1.27
 74
     0
 49
-0.635
 74
     0
  0
LTYPE
  5
6F
330
5
100
AcDbSymbolTableRecord
100
AcDbLinetypeTableRecord
  2
PHANTOM
 70
     0
  3
Phantom ______  __  __  ______  __  __  ______
 72
    65
 73
     6
 40
12.7
 49
6.35
 74
     0
 49
-1.27
 74
     0
 49
1.27
 74
     0
 49
-1.27
 74
     0
 49
1.27
 74
     0
 49
-1.27
 74
     0
  0
LTYPE
  5
70
330
5
100
AcDbSymbolTableRecord
100
AcDbLinetypeTableRecord
  2
CENTER
 70
     0
  3
Center ____ _ ____ _ ____ _ ____ _ ____ _ ____
 72
    65
 73
     4
 40
10.16
 49
6.35
 74
     0
 49
-1.27
 74
     0
 49
1.27
 74
     0
 49
-1.27
 74
     0
  0
LTYPE
  5
71
330
5
100
AcDbSymbolTableRecord
100
AcDbLinetypeTableRecord
  2
CENTERX2
 70
     0
  3
Center (2x) ________  __  ________  __  _____
 72
    65
 73
     4
 40
20.32
 49
12.7
 74
     0
 49
-2.54
 74
     0
 49
2.54
 74
     0
 49
-2.54
 74
     0
  0
LTYPE
  5
72
330
5
100
AcDbSymbolTableRecord
100
AcDbLinetypeTableRecord
  2
DOT2
 70
     0
  3
Dot (.5x) ........................................
 72
    65
 73
     2
 40
0.635
 49
0.0
 74
     0
 49
-0.635
 74
     0
  0
ENDTAB
  0
TABLE
  2
LAYER
  5
2
330
0
100
AcDbSymbolTable
 70
     1
  0
LAYER
  5
10
330
2
100
AcDbSymbolTableRecord
100
AcDbLayerTableRecord
  2
0
 70
     0
 62
     7
  6
Continuous
370
    -3
390
F
  0
ENDTAB
  0
TABLE
  2
STYLE
  5
3
330
0
100
AcDbSymbolTable
 70
     2
  0
STYLE
  5
11
330
3
100
AcDbSymbolTableRecord
100
AcDbTextStyleTableRecord
  2
Standard
 70
     0
 40
0.0
 41
1.0
 50
0.0
 71
     0
 42
3.5
  3
txt
  4

  0
STYLE
  5
B7
330
3
100
AcDbSymbolTableRecord
100
AcDbTextStyleTableRecord
  2
SLDTEXTSTYLE0
 70
     0
 40
0.0
 41
0.7
 50
0.0
 71
     0
 42
3.5
  3
TXT
  4

  0
ENDTAB
  0
TABLE
  2
VIEW
  5
6
330
0
100
AcDbSymbolTable
 70
     0
  0
ENDTAB
  0
TABLE
  2
UCS
  5
7
330
0
100
AcDbSymbolTable
 70
     0
  0
ENDTAB
  0
TABLE
  2
APPID
  5
9
330
0
100
AcDbSymbolTable
 70
     1
  0
APPID
  5
12
330
9
100
AcDbSymbolTableRecord
100
AcDbRegAppTableRecord
  2
ACAD
 70
     0
  0
ENDTAB
  0
TABLE
  2
DIMSTYLE
  5
A
330
0
100
AcDbSymbolTable
 70
     1
100
AcDbDimStyleTable
  0
DIMSTYLE
105
27
330
A
100
AcDbSymbolTableRecord
100
AcDbDimStyleTableRecord
  2
ISO-25
 70
     0
 41
2.5
 42
0.625
 43
3.75
 44
1.25
 73
     0
 74
     0
 77
     1
 78
     8
140
2.5
141
2.5
143
0.0393700787
147
0.625
171
     3
172
     1
178
     0
271
     2
272
     2
274
     3
278
    44
283
     0
284
     8
340
11
  0
ENDTAB
  0
TABLE
  2
BLOCK_RECORD
  5
1
330
0
100
AcDbSymbolTable
 70
     1
  0
BLOCK_RECORD
  5
1F
330
1
100
AcDbSymbolTableRecord
100
AcDbBlockTableRecord
  2
*Model_Space
340
22
  0
BLOCK_RECORD
  5
1B
330
1
100
AcDbSymbolTableRecord
100
AcDbBlockTableRecord
  2
*Paper_Space
340
1E
  0
BLOCK_RECORD
  5
23
330
1
100
AcDbSymbolTableRecord
100
AcDbBlockTableRecord
  2
*Paper_Space0
340
26
  0
ENDTAB
  0
ENDSEC
  0
SECTION
  2
BLOCKS
  0
BLOCK
  5
20
330
1F
100
AcDbEntity
  8
0
100
AcDbBlockBegin
  2
*Model_Space
 70
     0
 10
0.0
 20
0.0
 30
0.0
  3
*Model_Space
  1

  0
ENDBLK
  5
21
330
1F
100
AcDbEntity
  8
0
100
AcDbBlockEnd
  0
BLOCK
  5
1C
330
1B
100
AcDbEntity
 67
     1
  8
0
100
AcDbBlockBegin
  2
*Paper_Space
 70
     0
 10
0.0
 20
0.0
 30
0.0
  3
*Paper_Space
  1

  0
ENDBLK
  5
1D
330
1B
100
AcDbEntity
 67
     1
  8
0
100
AcDbBlockEnd
  0
BLOCK
  5
24
330
23
100
AcDbEntity
  8
0
100
AcDbBlockBegin
  2
*Paper_Space0
 70
     0
 10
0.0
 20
0.0
 30
0.0
  3
*Paper_Space0
  1

  0
ENDBLK
  5
25
330
23
100
AcDbEntity
  8
0
100
AcDbBlockEnd
  0
ENDSEC
  0
SECTION
  2
ENTITIES
  0
CIRCLE
  5
73
330
1F
100
AcDbEntity
  8
0
  6
Continuous
 62
     7
370
    25
100
AcDbCircle
 10
-5.0
 20
0.0
 30
0.0
 40
1.7
  0
LINE
  5
74
330
1F
100
AcDbEntity
  8
0
  6
Continuous
 62
     7
370
    25
100
AcDbLine
 10
5.0
 20
2.140241357
 30
0.0
 11
5.0
 21
-2.359758643
 31
0.0
  0
LINE
  5
75
330
1F
100
AcDbEntity
  8
0
  6
Continuous
 62
     7
370
    25
100
AcDbLine
 10
9.5
 20
2.140241357
 30
0.0
 11
5.0
 21
2.140241357
 31
0.0
  0
LINE
  5
76
330
1F
100
AcDbEntity
  8
0
  6
Continuous
 62
     7
370
    25
100
AcDbLine
 10
9.5
 20
-2.359758643
 30
0.0
 11
9.5
 21
2.140241357
 31
0.0
  0
LINE
  5
77
330
1F
100
AcDbEntity
  8
0
  6
Continuous
 62
     7
370
    25
100
AcDbLine
 10
5.0
 20
-2.359758643
 30
0.0
 11
9.5
 21
-2.359758643
 31
0.0
  0
CIRCLE
  5
78
330
1F
100
AcDbEntity
  8
0
  6
Continuous
 62
     7
370
    25
100
AcDbCircle
 10
0.0
 20
0.0
 30
0.0
 40
1.2
  0
CIRCLE
  5
79
330
1F
100
AcDbEntity
  8
0
  6
Continuous
 62
     7
370
    25
100
AcDbCircle
 10
0.0
 20
0.0
 30
0.0
 40
19.0
  0
LINE
  5
7A
330
1F
100
AcDbEntity
  8
0
  6
Continuous
 62
     7
370
    25
100
AcDbLine
 10
8.1650488874
 20
10.7582706009
 30
0.0
 11
8.5240232464
 21
12.5082706009
 31
0.0
  0
LINE
  5
7B
330
1F
100
AcDbEntity
  8
0
  6
Continuous
 62
     7
370
    25
100
AcDbLine
 10
8.5240232464
 20
12.5082706009
 30
0.0
 11
9.9599206823
 21
12.5082706009
 31
0.0
  0
LINE
  5
7C
330
1F
100
AcDbEntity
  8
0
  6
Continuous
 62
     7
370
    25
100
AcDbLine
 10
9.9599206823
 20
12.5082706009
 30
0.0
 11
9.9599206823
 21
12.1492962419
 31
0.0
  0
LINE
  5
7D
330
1F
100
AcDbEntity
  8
0
  6
Continuous
 62
     7
370
    25
100
AcDbLine
 10
9.9599206823
 20
12.1492962419
 30
0.0
 11
8.7694158746
 21
12.1492962419
 31
0.0
  0
LINE
  5
7E
330
1F
100
AcDbEntity
  8
0
  6
Continuous
 62
     7
370
    25
100
AcDbLine
 10
8.7694158746
 20
12.1492962419
 30
0.0
 11
8.5808141118
 21
11.2287233253
 31
0.0
  0
SPLINE
  5
7F
330
1F
100
AcDbEntity
  8
0
  6
Continuous
 62
     7
370
    25
100
AcDbSpline
210
0.0
220
0.0
230
1.0
 70
     8
 71
     3
 72
    11
 73
     7
 74
     0
 42
0.000000001
 43
0.00000001
 40
0.0
 40
0.0
 40
0.0
 40
0.0
 40
0.2750683690187395
 40
0.5329014600899329
 40
0.7739734595924455
 40
1.0
 40
1.0
 40
1.0
 40
1.0
 10
8.58081411176646
 20
11.22872332525501
 30
0.0
 10
8.61786998614013
 20
11.23895359706527
 30
0.0
 10
8.689659881972503
 20
11.25877313067523
 30
0.0
 10
8.795619742936227
 20
11.28077890110473
 30
0.0
 10
8.896211946407213
 20
11.2940443451622
 30
0.0
 10
8.961487316817722
 20
11.29585565567439
 30
0.0
 10
8.993073727151073
 20
11.29673213935758
 30
0.0
  0
SPLINE
  5
80
330
1F
100
AcDbEntity
  8
0
  6
Continuous
 62
     7
370
    25
100
AcDbSpline
210
0.0
220
0.0
230
1.0
 70
     8
 71
     3
 72
    23
 73
    19
 74
     0
 42
0.000000001
 43
0.00000001
 40
0.0
 40
0.0
 40
0.0
 40
0.0
 40
0.0658076458106945
 40
0.1293942736680558
 40
0.1908940606321902
 40
0.2512810689298359
 40
0.3108149644652726
 40
0.3703709874482449
 40
0.4307682625897273
 40
0.4928812506175031
 40
0.5551039481552505
 40
0.6160670509938425
 40
0.6772560331746544
 40
0.738259805199117
 40
0.8007621343762961
 40
0.8647775815744845
 40
0.931045294999404
 40
1.0
 40
1.0
 40
1.0
 40
1.0
 10
8.993073727151073
 20
11.29673213935758
 30
0.0
 10
9.032157466863273
 20
11.29588620366294
 30
0.0
 10
9.109005864188404
 20
11.29422288273071
 30
0.0
 10
9.221444811182035
 20
11.27825103328641
 30
0.0
 10
9.328777704400151
 20
11.25311111865615
 30
0.0
 10
9.430780074576498
 20
11.21799059691946
 30
0.0
 10
9.52764062521378
 20
11.17308086372512
 30
0.0
 10
9.6184681866943
 20
11.11698092336731
 30
0.0
 10
9.704626099681132
 20
11.05144759221766
 30
0.0
 10
9.7845686936353
 20
10.97610258025803
 30
0.0
 10
9.857093001800722
 20
10.89318096350588
 30
0.0
 10
9.920858991467703
 20
10.80402309246239
 30
0.0
 10
9.97502158177198
 20
10.70949543032781
 30
0.0
 10
10.0185823366484
 20
10.6086948215896
 30
0.0
 10
10.05336667092435
 20
10.50273566817922
 30
0.0
 10
10.07651866576815
 20
10.39050308562698
 30
0.0
 10
10.09193537472944
 20
10.2730549656136
 30
0.0
 10
10.09365776104903
 20
10.19275039553642
 30
0.0
 10
10.09453606689466
 20
10.15180024833194
 30
0.0
  0
SPLINE
  5
81
330
1F
100
AcDbEntity
  8
0
  6
Continuous
 62
     7
370
    25
100
AcDbSpline
210
0.0
220
0.0
230
1.0
 70
     8
 71
     3
 72
    31
 73
    27
 74
     0
 42
0.000000001
 43
0.00000001
 40
0.0
 40
0.0
 40
0.0
 40
0.0
 40
0.0440144705761402
 40
0.0874341236677053
 40
0.1301183986578985
 40
0.172553694558183
 40
0.2145547559681393
 40
0.2562980920971306
 40
0.2984382251332497
 40
0.3408490025880954
 40
0.3827151889670271
 40
0.4239240454075323
 40
0.4642462432504173
 40
0.5040736714617952
 40
0.5438619058684913
 40
0.5835667249796532
 40
0.623094318852334
 40
0.6632290607685855
 40
0.7035512586114709
 40
0.7439378946861847
 40
0.7845412548000918
 40
0.8257501112405973
 40
0.8677573633885067
 40
0.9107451640323095
 40
0.9549144468914771
 40
0.9999999999999999
 40
0.9999999999999999
 40
0.9999999999999999
 40
0.9999999999999999
 10
10.09453606689466
 20
10.15180024833194
 30
0.0
 10
10.09387099162129
 20
10.12327802797998
 30
0.0
 10
10.09254982899138
 20
10.06661904040413
 30
0.0
 10
10.08583124134361
 20
9.982474839718838
 30
0.0
 10
10.07289552527942
 20
9.900112006636492
 30
0.0
 10
10.05552780117537
 20
9.819519614797784
 30
0.0
 10
10.03298538320987
 20
9.740850242618665
 30
0.0
 10
10.00569632930754
 20
9.663878714691892
 30
0.0
 10
9.972300301797683
 20
9.589084107948732
 30
0.0
 10
9.93566892653876
 20
9.515758712924955
 30
0.0
 10
9.894422448503446
 20
9.445560205730239
 30
0.0
 10
9.848643941164484
 20
9.379911219187552
 30
0.0
 10
9.800278449942153
 20
9.317826937707608
 30
0.0
 10
9.748237064483874
 20
9.25997320469842
 30
0.0
 10
9.69203606937128
 20
9.20673018680542
 30
0.0
 10
9.632356102509574
 20
9.157781905299494
 30
0.0
 10
9.569673383480444
 20
9.112300574996398
 30
0.0
 10
9.503018141159489
 20
9.072132379820895
 30
0.0
 10
9.433875658195923
 20
9.035169423668101
 30
0.0
 10
9.361247441055443
 20
9.004845886332761
 30
0.0
 10
9.286786740597936
 20
8.97773535824781
 30
0.0
 10
9.209421865003105
 20
8.956125830636214
 30
0.0
 10
9.129328052387338
 20
8.939193276116884
 30
0.0
 10
9.046373276905248
 20
8.927692675514416
 30
0.0
 10
8.960992606881502
 20
8.91931623804418
 30
0.0
 10
8.903117594301625
 20
8.918791881093547
 30
0.0
 10
8.873883022022868
 20
8.918527011152449
 30
0.0
  0
SPLINE
  5
82
330
1F
100
AcDbEntity
  8
0
  6
Continuous
 62
     7
370
    25
100
AcDbSpline
210
0.0
220
0.0
230
1.0
 70
     8
 71
     3
 72
    23
 73
    19
 74
     0
 42
0.000000001
 43
0.00000001
 40
0.0
 40
0.0
 40
0.0
 40
0.0
 40
0.0654211437588924
 40
0.1287083718818831
 40
0.1902361418635381
 40
0.2507244020335382
 40
0.3106371794134443
 40
0.3707664082897265
 40
0.4316147444123529
 40
0.4935229735663532
 40
0.5558834553775321
 40
0.61734236731851
 40
0.6786680390972744
 40
0.7407113595451477
 40
0.8029853625127443
 40
0.8668025802655167
 40
0.9323471713458868
 40
0.9999999999999999
 40
0.9999999999999999
 40
0.9999999999999999
 40
0.9999999999999999
 10
8.873883022022868
 20
8.918527011152449
 30
0.0
 10
8.83900884132066
 20
8.919217849136611
 30
0.0
 10
8.770398010616772
 20
8.920576991258969
 30
0.0
 10
8.669877443545207
 20
8.934795476513044
 30
0.0
 10
8.573162837851747
 20
8.955159392905585
 30
0.0
 10
8.481032736694326
 20
8.98579566275394
 30
0.0
 10
8.392661472989085
 20
9.02418295744416
 30
0.0
 10
8.309238755200234
 20
9.07269912893958
 30
0.0
 10
8.228632979152366
 20
9.127678232686632
 30
0.0
 10
8.154120942402862
 20
9.192558585651415
 30
0.0
 10
8.084964828933217
 20
9.26347426768393
 30
0.0
 10
8.02305832006288
 20
9.340431908849668
 30
0.0
 10
7.967924743326225
 20
9.422161350935768
 30
0.0
 10
7.920446996337378
 20
9.50905950501149
 30
0.0
 10
7.879948975020987
 20
9.600898035949124
 30
0.0
 10
7.848133986744275
 20
9.698021036841064
 30
0.0
 10
7.82245563180116
 20
9.799921040780468
 30
0.0
 10
7.811592211324804
 20
9.870074551191005
 30
0.0
 10
7.806074528433124
 20
9.905706498331938
 30
0.0
  0
LINE
  5
83
330
1F
100
AcDbEntity
  8
0
  6
Continuous
 62
     7
370
    25
100
AcDbLine
 10
7.8060745284
 20
9.9057064983
 30
0.0
 11
8.1201770925
 21
9.9057064983
 31
0.0
  0
SPLINE
  5
84
330
1F
100
AcDbEntity
  8
0
  6
Continuous
 62
     7
370
    25
100
AcDbSpline
210
0.0
220
0.0
230
1.0
 70
     8
 71
     3
 72
    19
 73
    15
 74
     0
 42
0.000000001
 43
0.00000001
 40
0.0
 40
0.0
 40
0.0
 40
0.0
 40
0.0946872518675548
 40
0.1819941557072749
 40
0.2643769486105119
 40
0.3421798619477713
 40
0.4186176108621465
 40
0.4965090753719069
 40
0.5773690916117321
 40
0.6615105924541983
 40
0.7467325508291958
 40
0.8312579843277422
 40
0.9152056162136548
 40
1.0
 40
1.0
 40
1.0
 40
1.0
 10
8.12017709253569
 20
9.905706498331938
 30
0.0
 10
8.127905649925852
 20
9.872330045883285
 30
0.0
 10
8.142760366366726
 20
9.808178651011321
 30
0.0
 10
8.175366115118706
 20
9.718047309678251
 30
0.0
 10
8.215231990591429
 20
9.637728086002243
 30
0.0
 10
8.2626363390087
 20
9.566158502728694
 30
0.0
 10
8.319186369494918
 20
9.503749505456382
 30
0.0
 10
8.383715798435572
 20
9.448132443518618
 30
0.0
 10
8.456063521634798
 20
9.397957314191085
 30
0.0
 10
8.536456751154695
 20
9.35613454699377
 30
0.0
 10
8.621269830475065
 20
9.320465793593744
 30
0.0
 10
8.71003704048465
 20
9.296714098642074
 30
0.0
 10
8.800341386955743
 20
9.280013205799264
 30
0.0
 10
8.86141975715224
 20
9.27834144499761
 30
0.0
 10
8.892112188689536
 20
9.27750137012681
 30
0.0
  0
SPLINE
  5
85
330
1F
100
AcDbEntity
  8
0
  6
Continuous
 62
     7
370
    25
100
AcDbSpline
210
0.0
220
0.0
230
1.0
 70
     8
 71
     3
 72
    23
 73
    19
 74
     0
 42
0.000000001
 43
0.00000001
 40
0.0
 40
0.0
 40
0.0
 40
0.0
 40
0.0642072952829839
 40
0.1264246897797421
 40
0.1876802842649215
 40
0.2482164244552127
 40
0.3083050600086136
 40
0.3696609913251427
 40
0.43169855178678
 40
0.4959468922087646
 40
0.5597580239721195
 40
0.6222954078261592
 40
0.6839106352841747
 40
0.7450924080566249
 40
0.8067402253892927
 40
0.8690866181212026
 40
0.9332900029747996
 40
1.0
 40
1.0
 40
1.0
 40
1.0
 10
8.892112188689536
 20
9.27750137012681
 30
0.0
 10
8.922070633106825
 20
9.278322148031911
 30
0.0
 10
8.981059055295399
 20
9.279938266442967
 30
0.0
 10
9.0678704419884
 20
9.29237727853282
 30
0.0
 10
9.151683316190544
 20
9.311534849840442
 30
0.0
 10
9.231670672949503
 20
9.340204704824208
 30
0.0
 10
9.309232212538554
 20
9.375049423250022
 30
0.0
 10
9.382405982961645
 20
9.419764499065897
 30
0.0
 10
9.453308860102315
 20
9.471224517510908
 30
0.0
 10
9.519736993623365
 20
9.530181147554291
 30
0.0
 10
9.580576442882922
 20
9.595150842173547
 30
0.0
 10
9.63433256401684
 20
9.664628235598453
 30
0.0
 10
9.679109477442992
 20
9.73874508214133
 30
0.0
 10
9.716843586312683
 20
9.816218234992252
 30
0.0
 10
9.745496885135308
 20
9.897896792170695
 30
0.0
 10
9.765937866358117
 20
9.983397967343116
 30
0.0
 10
9.77794092517661
 20
10.07293294754955
 30
0.0
 10
9.779592105148579
 20
10.13400225732577
 30
0.0
 10
9.780433502792098
 20
10.1651215624345
 30
0.0
  0
SPLINE
  5
86
330
1F
100
AcDbEntity
  8
0
  6
Continuous
 62
     7
370
    25
100
AcDbSpline
210
0.0
220
0.0
230
1.0
 70
     8
 71
     3
 72
    23
 73
    19
 74
     0
 42
0.000000001
 43
0.00000001
 40
0.0
 40
0.0
 40
0.0
 40
0.0
 40
0.065351382026594
 40
0.1279160318306132
 40
0.1883602055716998
 40
0.2472160772654524
 40
0.3056301291974107
 40
0.3637698398318195
 40
0.4226609139127807
 40
0.482687294090391
 40
0.5433002212395597
 40
0.604117955323102
 40
0.6649648912652835
 40
0.7274134941125655
 40
0.7914676251494243
 40
0.8580554427290998
 40
0.9270368146149482
 40
1.0
 40
1.0
 40
1.0
 40
1.0
 10
9.780433502792098
 20
10.1651215624345
 30
0.0
 10
9.779775023330645
 20
10.1931973140557
 30
0.0
 10
9.778486143476252
 20
10.24815160311089
 30
0.0
 10
9.7679555731733
 20
10.32855080955213
 30
0.0
 10
9.749638600819601
 20
10.40462385185373
 30
0.0
 10
9.724214720872633
 20
10.47673808582569
 30
0.0
 10
9.691935213139036
 20
10.54496152817372
 30
0.0
 10
9.652488900820213
 20
10.60936458837392
 30
0.0
 10
9.60513550287671
 20
10.66909842159741
 30
0.0
 10
9.551043614288048
 20
10.72419097520691
 30
0.0
 10
9.49178557334496
 20
10.77503585008001
 30
0.0
 10
9.42634183074784
 20
10.81837993653197
 30
0.0
 10
9.356081903952687
 20
10.85484385418379
 30
0.0
 10
9.281852304483829
 20
10.88631185252656
 30
0.0
 10
9.201887405896427
 20
10.90891259792589
 30
0.0
 10
9.117770773517028
 20
10.92588048336799
 30
0.0
 10
9.02859406557007
 20
10.93569584604626
 30
0.0
 10
8.967623377436118
 20
10.93705773442201
 30
0.0
 10
8.936282861766458
 20
10.93775778038322
 30
0.0
  0
SPLINE
  5
87
330
1F
100
AcDbEntity
  8
0
  6
Continuous
 62
     7
370
    25
100
AcDbSpline
210
0.0
220
0.0
230
1.0
 70
     8
 71
     3
 72
    15
 73
    11
 74
     0
 42
0.000000001
 43
0.00000001
 40
0.0
 40
0.0
 40
0.0
 40
0.0
 40
0.1022030370352199
 40
0.2110233423738742
 40
0.3250996615652079
 40
0.446502097134889
 40
0.5737877176488575
 40
0.7089007097660684
 40
0.8503578712934031
 40
1.0
 40
1.0
 40
1.0
 40
1.0
 10
8.936282861766458
 20
10.93775778038322
 30
0.0
 10
8.909153932960034
 20
10.93717718922564
 30
0.0
 10
8.853139577635334
 20
10.93597841578231
 30
0.0
 10
8.767216750906064
 20
10.92715191895597
 30
0.0
 10
8.676925027929343
 20
10.91291262452784
 30
0.0
 10
8.582610532373144
 20
10.89332637705866
 30
0.0
 10
8.483990024270135
 20
10.86769530030002
 30
0.0
 10
8.381271623542853
 20
10.83698079967446
 30
0.0
 10
8.27423935694357
 20
10.80025880096087
 30
0.0
 10
8.202121632544829
 20
10.77252658721419
 30
0.0
 10
8.165048887407485
 20
10.75827060089604
 30
0.0
  0
LINE
  5
88
330
1F
100
AcDbEntity
  8
0
  6
Continuous
 62
     7
370
    25
100
AcDbLine
 10
6.1458181182
 20
12.1492962419
 30
0.0
 11
5.6073565797
 21
12.1492962419
 31
0.0
  0
LINE
  5
89
330
1F
100
AcDbEntity
  8
0
  6
Continuous
 62
     7
370
    25
100
AcDbLine
 10
5.6073565797
 20
12.1492962419
 30
0.0
 11
5.8127852656
 21
12.5082706009
 31
0.0
  0
LINE
  5
8A
330
1F
100
AcDbEntity
  8
0
  6
Continuous
 62
     7
370
    25
100
AcDbLine
 10
5.8127852656
 20
12.5082706009
 30
0.0
 11
6.4599206823
 21
12.5082706009
 31
0.0
  0
LINE
  5
8B
330
1F
100
AcDbEntity
  8
0
  6
Continuous
 62
     7
370
    25
100
AcDbLine
 10
6.4599206823
 20
12.5082706009
 30
0.0
 11
6.4599206823
 21
9.0082706009
 31
0.0
  0
LINE
  5
8C
330
1F
100
AcDbEntity
  8
0
  6
Continuous
 62
     7
370
    25
100
AcDbLine
 10
6.4599206823
 20
9.0082706009
 30
0.0
 11
6.1458181182
 21
9.0082706009
 31
0.0
  0
LINE
  5
8D
330
1F
100
AcDbEntity
  8
0
  6
Continuous
 62
     7
370
    25
100
AcDbLine
 10
6.1458181182
 20
9.0082706009
 30
0.0
 11
6.1458181182
 21
12.1492962419
 31
0.0
  0
LINE
  5
8E
330
1F
100
AcDbEntity
  8
0
  6
Continuous
 62
     7
370
    25
100
AcDbLine
 10
3.4535104259
 20
12.1492962419
 30
0.0
 11
2.9150488874
 21
12.1492962419
 31
0.0
  0
LINE
  5
8F
330
1F
100
AcDbEntity
  8
0
  6
Continuous
 62
     7
370
    25
100
AcDbLine
 10
2.9150488874
 20
12.1492962419
 30
0.0
 11
3.1204775733
 21
12.5082706009
 31
0.0
  0
LINE
  5
90
330
1F
100
AcDbEntity
  8
0
  6
Continuous
 62
     7
370
    25
100
AcDbLine
 10
3.1204775733
 20
12.5082706009
 30
0.0
 11
3.76761299
 21
12.5082706009
 31
0.0
  0
LINE
  5
91
330
1F
100
AcDbEntity
  8
0
  6
Continuous
 62
     7
370
    25
100
AcDbLine
 10
3.76761299
 20
12.5082706009
 30
0.0
 11
3.76761299
 21
9.0082706009
 31
0.0
  0
LINE
  5
92
330
1F
100
AcDbEntity
  8
0
  6
Continuous
 62
     7
370
    25
100
AcDbLine
 10
3.76761299
 20
9.0082706009
 30
0.0
 11
3.4535104259
 21
9.0082706009
 31
0.0
  0
LINE
  5
93
330
1F
100
AcDbEntity
  8
0
  6
Continuous
 62
     7
370
    25
100
AcDbLine
 10
3.4535104259
 20
9.0082706009
 30
0.0
 11
3.4535104259
 21
12.1492962419
 31
0.0
  0
LINE
  5
94
330
1F
100
AcDbEntity
  8
0
  6
Continuous
 62
     7
370
    25
100
AcDbLine
 10
0.7163309387
 20
9.0082706009
 30
0.0
 11
-1.2580280357
 21
9.0082706009
 31
0.0
  0
LINE
  5
95
330
1F
100
AcDbEntity
  8
0
  6
Continuous
 62
     7
370
    25
100
AcDbLine
 10
-1.2580280357
 20
9.0082706009
 30
0.0
 11
-1.2580280357
 21
12.5082706009
 31
0.0
  0
LINE
  5
96
330
1F
100
AcDbEntity
  8
0
  6
Continuous
 62
     7
370
    25
100
AcDbLine
 10
-1.2580280357
 20
12.5082706009
 30
0.0
 11
0.7163309387
 21
12.5082706009
 31
0.0
  0
LINE
  5
97
330
1F
100
AcDbEntity
  8
0
  6
Continuous
 62
     7
370
    25
100
AcDbLine
 10
0.7163309387
 20
12.5082706009
 30
0.0
 11
0.7163309387
 21
12.1492962419
 31
0.0
  0
LINE
  5
98
330
1F
100
AcDbEntity
  8
0
  6
Continuous
 62
     7
370
    25
100
AcDbLine
 10
0.7163309387
 20
12.1492962419
 30
0.0
 11
-0.9439254716
 21
12.1492962419
 31
0.0
  0
LINE
  5
99
330
1F
100
AcDbEntity
  8
0
  6
Continuous
 62
     7
370
    25
100
AcDbLine
 10
-0.9439254716
 20
12.1492962419
 30
0.0
 11
-0.9439254716
 21
11.072373165
 31
0.0
  0
LINE
  5
9A
330
1F
100
AcDbEntity
  8
0
  6
Continuous
 62
     7
370
    25
100
AcDbLine
 10
-0.9439254716
 20
11.072373165
 30
0.0
 11
0.7163309387
 21
11.072373165
 31
0.0
  0
LINE
  5
9B
330
1F
100
AcDbEntity
  8
0
  6
Continuous
 62
     7
370
    25
100
AcDbLine
 10
0.7163309387
 20
11.072373165
 30
0.0
 11
0.7163309387
 21
10.713398806
 31
0.0
  0
LINE
  5
9C
330
1F
100
AcDbEntity
  8
0
  6
Continuous
 62
     7
370
    25
100
AcDbLine
 10
0.7163309387
 20
10.713398806
 30
0.0
 11
-0.9439254716
 21
10.713398806
 31
0.0
  0
LINE
  5
9D
330
1F
100
AcDbEntity
  8
0
  6
Continuous
 62
     7
370
    25
100
AcDbLine
 10
-0.9439254716
 20
10.713398806
 30
0.0
 11
-0.9439254716
 21
9.3672449599
 31
0.0
  0
LINE
  5
9E
330
1F
100
AcDbEntity
  8
0
  6
Continuous
 62
     7
370
    25
100
AcDbLine
 10
-0.9439254716
 20
9.3672449599
 30
0.0
 11
0.7163309387
 21
9.3672449599
 31
0.0
  0
LINE
  5
9F
330
1F
100
AcDbEntity
  8
0
  6
Continuous
 62
     7
370
    25
100
AcDbLine
 10
0.7163309387
 20
9.3672449599
 30
0.0
 11
0.7163309387
 21
9.0082706009
 31
0.0
  0
SPLINE
  5
A0
330
1F
100
AcDbEntity
  8
0
  6
Continuous
 62
     7
370
    25
100
AcDbSpline
210
0.0
220
0.0
230
1.0
 70
     8
 71
     3
 72
    23
 73
    19
 74
     0
 42
0.000000001
 43
0.00000001
 40
0.0
 40
0.0
 40
0.0
 40
0.0
 40
0.0645578459297186
 40
0.1270135315497587
 40
0.1879548102020905
 40
0.2480139127896338
 40
0.3077476818488374
 40
0.3682345146974853
 40
0.4294698439426696
 40
0.4927434367465849
 40
0.5562577687060831
 40
0.6182167855431437
 40
0.6796554755875549
 40
0.7412455456206296
 40
0.8034152647056966
 40
0.8668154615439921
 40
0.9323283119492651
 40
1.0
 40
1.0
 40
1.0
 40
1.0
 10
-5.386233163874568
 20
10.77860313294732
 30
0.0
 10
-5.384677970317497
 20
10.8415585864886
 30
0.0
 10
-5.381618224083986
 20
10.96541951105073
 30
0.0
 10
-5.355622428612242
 20
11.14719346433985
 30
0.0
 10
-5.313803632420757
 20
11.3213448631931
 30
0.0
 10
-5.25440674382576
 20
11.48754860778099
 30
0.0
 10
-5.179101392520376
 20
11.64667888801305
 30
0.0
 10
-5.08607477868086
 20
11.7975200928598
 30
0.0
 10
-4.976407636459447
 20
11.94103689251633
 30
0.0
 10
-4.850960068775832
 20
12.07505164381387
 30
0.0
 10
-4.713392733476077
 20
12.19759099643613
 30
0.0
 10
-4.566073919587065
 20
12.30539720018446
 30
0.0
 10
-4.40929197261443
 20
12.39511471618354
 30
0.0
 10
-4.244774120938852
 20
12.47011087860966
 30
0.0
 10
-4.071288439372223
 20
12.5277553417455
 30
0.0
 10
-3.88920507024679
 20
12.56810852843345
 30
0.0
 10
-3.698866155465532
 20
12.59322564472334
 30
0.0
 10
-3.569003729816204
 20
12.59640085262617
 30
0.0
 10
-3.503020022848927
 20
12.59801419063963
 30
0.0
  0
SPLINE
  5
A1
330
1F
100
AcDbEntity
  8
0
  6
Continuous
 62
     7
370
    25
100
AcDbSpline
210
0.0
220
0.0
230
1.0
 70
     8
 71
     3
 72
    23
 73
    19
 74
     0
 42
0.000000001
 43
0.00000001
 40
0.0
 40
0.0
 40
0.0
 40
0.0
 40
0.0685475367089031
 40
0.1356829456230485
 40
0.2012149895263289
 40
0.2656822347546964
 40
0.3292668348172593
 40
0.392395427844329
 40
0.4550697616521439
 40
0.5171268500645065
 40
0.5787900352866524
 40
0.6397398633435417
 40
0.7001915036663081
 40
0.7598062425966706
 40
0.8196283192750082
 40
0.8793547910462761
 40
0.9395116077646612
 40
1.0
 40
1.0
 40
1.0
 40
1.0
 10
-3.503020022848927
 20
12.59801419063963
 30
0.0
 10
-3.46280555090252
 20
12.59753205244876
 30
0.0
 10
-3.383205053607694
 20
12.59657770845516
 30
0.0
 10
-3.265452401195331
 20
12.58727156634054
 30
0.0
 10
-3.150810074252107
 20
12.57175796011341
 30
0.0
 10
-3.039199092217754
 20
12.5506418903003
 30
0.0
 10
-2.930076476014851
 20
12.52443456883072
 30
0.0
 10
-2.82427623513628
 20
12.49029427051413
 30
0.0
 10
-2.721177548271685
 20
12.45125773919853
 30
0.0
 10
-2.621430640095256
 20
12.40629927326064
 30
0.0
 10
-2.525514089954926
 20
12.35583253185379
 30
0.0
 10
-2.433457771443666
 20
12.30041690830749
 30
0.0
 10
-2.345992912736005
 20
12.24012110280306
 30
0.0
 10
-2.262504064299449
 20
12.17545792739341
 30
0.0
 10
-2.18438785322339
 20
12.105059368098
 30
0.0
 10
-2.109426374688189
 20
12.03086177212434
 30
0.0
 10
-2.040165296526587
 20
11.950727947967
 30
0.0
 10
-1.997412101532471
 20
11.89432301405806
 30
0.0
 10
-1.975976753618157
 20
11.86604303679348
 30
0.0
  0
LINE
  5
A2
330
1F
100
AcDbEntity
  8
0
  6
Continuous
 62
     7
370
    25
100
AcDbLine
 10
-1.9759767536
 20
11.8660430368
 30
0.0
 11
-2.2508164972
 21
11.6557064983
 31
0.0
  0
SPLINE
  5
A3
330
1F
100
AcDbEntity
  8
0
  6
Continuous
 62
     7
370
    25
100
AcDbSpline
210
0.0
220
0.0
230
1.0
 70
     8
 71
     3
 72
    19
 73
    15
 74
     0
 42
0.000000001
 43
0.00000001
 40
0.0
 40
0.0
 40
0.0
 40
0.0
 40
0.0631632593634701
 40
0.1254749410306404
 40
0.1871212198160324
 40
0.2482943461142983
 40
0.3092948562551205
 40
0.3698500660670929
 40
0.4309733755473815
 40
0.4924559896728168
 40
0.6161479662918552
 40
0.7408436984673628
 40
0.8681826486700429
 40
0.9999999999999999
 40
0.9999999999999999
 40
0.9999999999999999
 40
0.9999999999999999
 10
-2.250816497207902
 20
11.65570649833194
 30
0.0
 10
-2.270422385564105
 20
11.67907246816307
 30
0.0
 10
-2.309369832389035
 20
11.7254893838864
 30
0.0
 10
-2.372029034912935
 20
11.79066892836127
 30
0.0
 10
-2.437330677809088
 20
11.851734189784
 30
0.0
 10
-2.505249799025079
 20
11.9089760694129
 30
0.0
 10
-2.577008918512032
 20
11.96039283514766
 30
0.0
 10
-2.650869717177946
 20
12.00866393809059
 30
0.0
 10
-2.728067762384533
 20
12.05193167603311
 30
0.0
 10
-2.834819497029964
 20
12.10439466214906
 30
0.0
 10
-2.97446734531033
 20
12.15914081716127
 30
0.0
 10
-3.150262184383454
 20
12.20504404846148
 30
0.0
 10
-3.33377328286816
 20
12.23426522414578
 30
0.0
 10
-3.458970882495149
 20
12.23743006560495
 30
0.0
 10
-3.522651433105337
 20
12.23903983166527
 30
0.0
  0
SPLINE
  5
A4
330
1F
100
AcDbEntity
  8
0
  6
Continuous
 62
     7
370
    25
100
AcDbSpline
210
0.0
220
0.0
230
1.0
 70
     8
 71
     3
 72
    31
 73
    27
 74
     0
 42
0.000000001
 43
0.00000001
 40
0.0
 40
0.0
 40
0.0
 40
0.0
 40
0.0439549089061946
 40
0.0875018747976048
 40
0.1304626267314905
 40
0.1727520205665175
 40
0.2154030673796034
 40
0.2576498297432396
 40
0.3001527489572942
 40
0.3431214895020867
 40
0.3859251632064337
 40
0.4276857274028021
 40
0.4688179504865896
 40
0.5094918001549957
 40
0.549883031073349
 40
0.5899800229668865
 40
0.6304052300068399
 40
0.6708686260826383
 40
0.7113839438381758
 40
0.7516272580635842
 40
0.7917755768651911
 40
0.8324589188037425
 40
0.8733190450172877
 40
0.9145429556263488
 40
0.9569235582098846
 40
1.0
 40
1.0
 40
1.0
 40
1.0
 10
-3.522651433105337
 20
12.23903983166527
 30
0.0
 10
-3.557734732445748
 20
12.23863586915543
 30
0.0
 10
-3.627575725016635
 20
12.23783169328888
 30
0.0
 10
-3.731224198517127
 20
12.22722256808395
 30
0.0
 10
-3.832937249648492
 20
12.21231135803938
 30
0.0
 10
-3.932648715867125
 20
12.19018603481594
 30
0.0
 10
-4.030231674406385
 20
12.16221341573843
 30
0.0
 10
-4.126324076472014
 20
12.12878800181473
 30
0.0
 10
-4.219534676269118
 20
12.08743316195479
 30
0.0
 10
-4.311152914483348
 20
12.04172490199789
 30
0.0
 10
-4.398932125478659
 20
11.99009745725458
 30
0.0
 10
-4.481987173255987
 20
11.93378410537305
 30
0.0
 10
-4.560015141177165
 20
11.87341500893328
 30
0.0
 10
-4.633077753310357
 20
11.80876390255547
 30
0.0
 10
-4.70124970164583
 20
11.74012194207994
 30
0.0
 10
-4.764037012451041
 20
11.66675760049086
 30
0.0
 10
-4.821222422716414
 20
11.58890542697359
 30
0.0
 10
-4.873939447779824
 20
11.50759201941526
 30
0.0
 10
-4.921152181134564
 20
11.42305422778037
 30
0.0
 10
-4.960682060525462
 20
11.33497915734186
 30
0.0
 10
-4.995687182731086
 20
11.2448750543108
 30
0.0
 10
-5.023386425377121
 20
11.15172389348209
 30
0.0
 10
-5.045310942208477
 20
11.05618112763885
 30
0.0
 10
-5.060438605481945
 20
10.95799033968887
 30
0.0
 10
-5.070927076676251
 20
10.85735666009162
 30
0.0
 10
-5.071727253576982
 20
10.7891473474772
 30
0.0
 10
-5.072130599772004
 20
10.75476499192168
 30
0.0
  0
SPLINE
  5
A5
330
1F
100
AcDbEntity
  8
0
  6
Continuous
 62
     7
370
    25
100
AcDbSpline
210
0.0
220
0.0
230
1.0
 70
     8
 71
     3
 72
    23
 73
    19
 74
     0
 42
0.000000001
 43
0.00000001
 40
0.0
 40
0.0
 40
0.0
 40
0.0
 40
0.0643232165798415
 40
0.1262901037035557
 40
0.1867264692161323
 40
0.2461464323353444
 40
0.3055756426461383
 40
0.3654293856180516
 40
0.4263263089482595
 40
0.4888399064006408
 40
0.551724971814047
 40
0.6139185964661587
 40
0.6754837657683963
 40
0.7373338970992855
 40
0.8002290443945262
 40
0.8645022981233226
 40
0.9310407391556973
 40
0.9999999999999999
 40
0.9999999999999999
 40
0.9999999999999999
 40
0.9999999999999999
 10
-5.072130599772004
 20
10.75476499192168
 30
0.0
 10
-5.0708687807481
 20
10.70303367199897
 30
0.0
 10
-5.068391366466646
 20
10.60146608714953
 30
0.0
 10
-5.046343032386192
 20
10.45269547660829
 30
0.0
 10
-5.012837941097547
 20
10.31017480282802
 30
0.0
 10
-4.962622364161847
 20
10.17479496051709
 30
0.0
 10
-4.900703313601364
 20
10.0448866024591
 30
0.0
 10
-4.822462702096042
 20
9.922647749052663
 30
0.0
 10
-4.731846164731844
 20
9.806231184541128
 30
0.0
 10
-4.627571745270724
 20
9.698388236792677
 30
0.0
 10
-4.513165929281489
 20
9.599874511494587
 30
0.0
 10
-4.390418017687569
 20
9.513123929983268
 30
0.0
 10
-4.259633729903473
 20
9.44080904751689
 30
0.0
 10
-4.12225709971687
 20
9.380633101000573
 30
0.0
 10
-3.977230985798261
 20
9.334376373345023
 30
0.0
 10
-3.824816183384391
 20
9.301812249841761
 30
0.0
 10
-3.665344188134305
 20
9.280570069300145
 30
0.0
 10
-3.556374788244287
 20
9.278536381231008
 30
0.0
 10
-3.500916657464312
 20
9.27750137012681
 30
0.0
  0
SPLINE
  5
A6
330
1F
100
AcDbEntity
  8
0
  6
Continuous
 62
     7
370
    25
100
AcDbSpline
210
0.0
220
0.0
230
1.0
 70
     8
 71
     3
 72
    15
 73
    11
 74
     0
 42
0.000000001
 43
0.00000001
 40
0.0
 40
0.0
 40
0.0
 40
0.0
 40
0.1285151895116617
 40
0.2529486363526577
 40
0.3747547340060045
 40
0.4959397538670499
 40
0.6171806414298925
 40
0.7409094692781376
 40
0.8678111481862025
 40
1.0
 40
1.0
 40
1.0
 40
1.0
 10
-3.500916657464312
 20
9.27750137012681
 30
0.0
 10
-3.439813968470725
 20
9.279190149877715
 30
0.0
 10
-3.319549259550807
 20
9.282514072417262
 30
0.0
 10
-3.143181233209509
 20
9.310673321540131
 30
0.0
 10
-2.974345467580726
 20
9.35633123937515
 30
0.0
 10
-2.813032881039305
 20
9.420229161694332
 30
0.0
 10
-2.659698234834467
 20
9.503294449597067
 30
0.0
 10
-2.514101574525455
 20
9.603992327004477
 30
0.0
 10
-2.376120004021503
 20
9.723280659765093
 30
0.0
 10
-2.293148721785113
 20
9.81436378802228
 30
0.0
 10
-2.250816497207902
 20
9.860834703460144
 30
0.0
  0
LINE
  5
A7
330
1F
100
AcDbEntity
  8
0
  6
Continuous
 62
     7
370
    25
100
AcDbLine
 10
-2.2508164972
 20
9.8608347035
 30
0.0
 11
-1.9759767536
 21
9.6526015304
 31
0.0
  0
SPLINE
  5
A8
330
1F
100
AcDbEntity
  8
0
  6
Continuous
 62
     7
370
    25
100
AcDbSpline
210
0.0
220
0.0
230
1.0
 70
     8
 71
     3
 72
    23
 73
    19
 74
     0
 42
0.000000001
 43
0.00000001
 40
0.0
 40
0.0
 40
0.0
 40
0.0
 40
0.0616742388774264
 40
0.1230530616348062
 40
0.1834750007317024
 40
0.2437265005106118
 40
0.3042789165122542
 40
0.364862920960683
 40
0.4259462039686199
 40
0.4873912299654078
 40
0.5492203840754765
 40
0.6111435886926033
 40
0.6735285303101523
 40
0.7369614566573041
 40
0.8007852828728402
 40
0.866012595641615
 40
0.9321007477905788
 40
1.0
 40
1.0
 40
1.0
 40
1.0
 10
-1.975976753618157
 20
9.65260153038322
 30
0.0
 10
-1.998094863499276
 20
9.624063078459907
 30
0.0
 10
-2.042225138764706
 20
9.56712287218576
 30
0.0
 10
-2.113683155751083
 20
9.486851162461708
 30
0.0
 10
-2.188960453146785
 20
9.411347126962575
 30
0.0
 10
-2.268616163153671
 20
9.34121950573509
 30
0.0
 10
-2.351733954743358
 20
9.275065040130245
 30
0.0
 10
-2.439806267088016
 20
9.21476320885455
 30
0.0
 10
-2.531675299593276
 20
9.15947232457218
 30
0.0
 10
-2.627029778498903
 20
9.108845400060089
 30
0.0
 10
-2.725768391298533
 20
9.063928153035608
 30
0.0
 10
-2.827772826240524
 20
9.02547438524359
 30
0.0
 10
-2.932603401744525
 20
8.992349495711062
 30
0.0
 10
-3.040264910156599
 20
8.965097558987184
 30
0.0
 10
-3.150980666983514
 20
8.943826475113719
 30
0.0
 10
-3.264351141076716
 20
8.92960680026897
 30
0.0
 10
-3.380621016295749
 20
8.919864885834125
 30
0.0
 10
-3.459062437421482
 20
8.918976970015407
 30
0.0
 10
-3.498813292079696
 20
8.918527011152449
 30
0.0
  0
SPLINE
  5
A9
330
1F
100
AcDbEntity
  8
0
  6
Continuous
 62
     7
370
    25
100
AcDbSpline
210
0.0
220
0.0
230
1.0
 70
     8
 71
     3
 72
    23
 73
    19
 74
     0
 42
0.000000001
 43
0.00000001
 40
0.0
 40
0.0
 40
0.0
 40
0.0
 40
0.0696628008990773
 40
0.1377495622582728
 40
0.2039167435177826
 40
0.2687798623293368
 40
0.332413706477224
 40
0.3947535404471395
 40
0.4561800316591691
 40
0.5169956491967203
 40
0.5773959379659525
 40
0.6371983435092757
 40
0.6969991842614554
 40
0.7567561942255601
 40
0.8165539052726078
 40
0.876947996597871
 40
0.9381317879205958
 40
1.0
 40
1.0
 40
1.0
 40
1.0
 10
-3.498813292079696
 20
8.918527011152449
 30
0.0
 10
-3.5364569591374
 20
8.91878900370824
 30
0.0
 10
-3.610892649234142
 20
8.919307061544119
 30
0.0
 10
-3.720791400846267
 20
8.927699228955074
 30
0.0
 10
-3.827780981647914
 20
8.939148965865064
 30
0.0
 10
-3.931555607514616
 20
8.956389096929035
 30
0.0
 10
-4.032681582561076
 20
8.976733436982922
 30
0.0
 10
-4.130242167051906
 20
9.004004693608143
 30
0.0
 10
-4.225197377410371
 20
9.034553860204289
 30
0.0
 10
-4.317165718106494
 20
9.070458846949016
 30
0.0
 10
-4.406225417903086
 20
9.110975029486397
 30
0.0
 10
-4.492089229271005
 20
9.15676658838751
 30
0.0
 10
-4.57471766166999
 20
9.207448453048798
 30
0.0
 10
-4.654923082525248
 20
9.26190346347244
 30
0.0
 10
-4.731520666200269
 20
9.321880765342886
 30
0.0
 10
-4.805174191547678
 20
9.386547399846526
 30
0.0
 10
-4.876296667780282
 20
9.455685410597875
 30
0.0
 10
-4.920299352772038
 20
9.505540263940244
 30
0.0
 10
-4.942423067720723
 20
9.530606338075527
 30
0.0
  0
SPLINE
  5
AA
330
1F
100
AcDbEntity
  8
0
  6
Continuous
 62
     7
370
    25
100
AcDbSpline
210
0.0
220
0.0
230
1.0
 70
     8
 71
     3
 72
    15
 73
    11
 74
     0
 42
0.000000001
 43
0.00000001
 40
0.0
 40
0.0
 40
0.0
 40
0.0
 40
0.1243285095938499
 40
0.2471560163611873
 40
0.3687797492913397
 40
0.4907338624016473
 40
0.6136137718478437
 40
0.7389575757222157
 40
0.8673105751912628
 40
1.0
 40
1.0
 40
1.0
 40
1.0
 10
-4.942423067720722
 20
9.530606338075527
 30
0.0
 10
-4.977858711220521
 20
9.57414752699265
 30
0.0
 10
-5.048302188048292
 20
9.660704237400754
 30
0.0
 10
-5.138427871599438
 20
9.800990218659212
 30
0.0
 10
-5.215575426808718
 20
9.947458427535027
 30
0.0
 10
-5.277951347586882
 20
10.10087835631336
 30
0.0
 10
-5.326714080741514
 20
10.26090574355382
 30
0.0
 10
-5.36049527582126
 20
10.42762125796452
 30
0.0
 10
-5.382446880299062
 20
10.60086920016671
 30
0.0
 10
-5.384957169080238
 20
10.7187059888266
 30
0.0
 10
-5.386233163874568
 20
10.77860313294732
 30
0.0
  0
LINE
  5
AB
330
1F
100
AcDbEntity
  8
0
  6
Continuous
 62
     7
370
    25
100
AcDbLine
 10
-5.8349511126
 20
9.0082706009
 30
0.0
 11
-7.809310087
 21
9.0082706009
 31
0.0
  0
LINE
  5
AC
330
1F
100
AcDbEntity
  8
0
  6
Continuous
 62
     7
370
    25
100
AcDbLine
 10
-7.809310087
 20
9.0082706009
 30
0.0
 11
-7.809310087
 21
12.5082706009
 31
0.0
  0
LINE
  5
AD
330
1F
100
AcDbEntity
  8
0
  6
Continuous
 62
     7
370
    25
100
AcDbLine
 10
-7.809310087
 20
12.5082706009
 30
0.0
 11
-5.8349511126
 21
12.5082706009
 31
0.0
  0
LINE
  5
AE
330
1F
100
AcDbEntity
  8
0
  6
Continuous
 62
     7
370
    25
100
AcDbLine
 10
-5.8349511126
 20
12.5082706009
 30
0.0
 11
-5.8349511126
 21
12.1492962419
 31
0.0
  0
LINE
  5
AF
330
1F
100
AcDbEntity
  8
0
  6
Continuous
 62
     7
370
    25
100
AcDbLine
 10
-5.8349511126
 20
12.1492962419
 30
0.0
 11
-7.4952075228
 21
12.1492962419
 31
0.0
  0
LINE
  5
B0
330
1F
100
AcDbEntity
  8
0
  6
Continuous
 62
     7
370
    25
100
AcDbLine
 10
-7.4952075228
 20
12.1492962419
 30
0.0
 11
-7.4952075228
 21
11.072373165
 31
0.0
  0
LINE
  5
B1
330
1F
100
AcDbEntity
  8
0
  6
Continuous
 62
     7
370
    25
100
AcDbLine
 10
-7.4952075228
 20
11.072373165
 30
0.0
 11
-5.8349511126
 21
11.072373165
 31
0.0
  0
LINE
  5
B2
330
1F
100
AcDbEntity
  8
0
  6
Continuous
 62
     7
370
    25
100
AcDbLine
 10
-5.8349511126
 20
11.072373165
 30
0.0
 11
-5.8349511126
 21
10.713398806
 31
0.0
  0
LINE
  5
B3
330
1F
100
AcDbEntity
  8
0
  6
Continuous
 62
     7
370
    25
100
AcDbLine
 10
-5.8349511126
 20
10.713398806
 30
0.0
 11
-7.4952075228
 21
10.713398806
 31
0.0
  0
LINE
  5
B4
330
1F
100
AcDbEntity
  8
0
  6
Continuous
 62
     7
370
    25
100
AcDbLine
 10
-7.4952075228
 20
10.713398806
 30
0.0
 11
-7.4952075228
 21
9.3672449599
 31
0.0
  0
LINE
  5
B5
330
1F
100
AcDbEntity
  8
0
  6
Continuous
 62
     7
370
    25
100
AcDbLine
 10
-7.4952075228
 20
9.3672449599
 30
0.0
 11
-5.8349511126
 21
9.3672449599
 31
0.0
  0
LINE
  5
B6
330
1F
100
AcDbEntity
  8
0
  6
Continuous
 62
     7
370
    25
100
AcDbLine
 10
-5.8349511126
 20
9.3672449599
 30
0.0
 11
-5.8349511126
 21
9.0082706009
 31
0.0
  0
MTEXT
  5
B8
330
1F
100
AcDbEntity
  8
0
  6
Continuous
 62
     7
100
AcDbMText
 10
-19.0
 20
-20.0195663917
 30
0.0
 40
4.83362
 41
0.0
 71
     1
 72
     1
  1
SOLIDWORKS Educational Product.
  7
SLDTEXTSTYLE0
 73
     1
 44
1.0
  0
MTEXT
  5
B9
330
1F
100
AcDbEntity
  8
0
  6
Continuous
 62
     7
100
AcDbMText
 10
-19.0
 20
-27.2699963917
 30
0.0
 40
4.83362
 41
0.0
 71
     1
 72
     1
  1
For Instructional Use Only.
  7
SLDTEXTSTYLE0
 73
     1
 44
1.0
  0
ENDSEC
  0
SECTION
  2
OBJECTS
  0
DICTIONARY
  5
C
330
0
100
AcDbDictionary
281
     1
  3
ACAD_GROUP
350
D
  3
ACAD_LAYOUT
350
1A
  3
ACAD_MLINESTYLE
350
17
  3
ACAD_PLOTSETTINGS
350
19
  3
ACAD_PLOTSTYLENAME
350
E
  3
ACAD_SCALELIST
350
47
  0
DICTIONARY
  5
D
102
{ACAD_REACTORS
330
C
102
}
330
C
100
AcDbDictionary
281
     1
  0
DICTIONARY
  5
1A
102
{ACAD_REACTORS
330
C
102
}
330
C
100
AcDbDictionary
281
     1
  3
Layout1
350
1E
  3
Layout2
350
26
  3
Model
350
22
  0
DICTIONARY
  5
17
102
{ACAD_REACTORS
330
C
102
}
330
C
100
AcDbDictionary
281
     1
  3
Standard
350
18
  0
DICTIONARY
  5
19
102
{ACAD_REACTORS
330
C
102
}
330
C
100
AcDbDictionary
281
     1
  0
ACDBDICTIONARYWDFLT
  5
E
102
{ACAD_REACTORS
330
C
102
}
330
C
100
AcDbDictionary
281
     1
  3
Normal
350
F
100
AcDbDictionaryWithDefault
340
F
  0
DICTIONARY
  5
47
102
{ACAD_REACTORS
330
C
102
}
330
C
100
AcDbDictionary
281
     1
  3
A0
350
48
  3
A1
350
49
  3
A2
350
4A
  3
A3
350
4B
  3
A4
350
4C
  3
A5
350
4D
  3
A6
350
4E
  3
A7
350
4F
  3
A8
350
50
  3
A9
350
51
  3
B0
350
52
  3
B1
350
53
  3
B2
350
54
  3
B3
350
55
  3
B4
350
56
  3
B5
350
57
  3
B6
350
58
  3
B7
350
59
  3
B8
350
5A
  3
B9
350
5B
  3
C0
350
5C
  3
C1
350
5D
  3
C2
350
5E
  3
C3
350
5F
  3
C4
350
60
  3
C5
350
61
  3
C6
350
62
  3
C7
350
63
  3
C8
350
64
  3
C9
350
65
  3
D0
350
66
  3
D1
350
67
  3
D2
350
68
  0
LAYOUT
  5
1E
102
{ACAD_REACTORS
330
1A
102
}
330
1A
100
AcDbPlotSettings
  1

  2
none_device
  4

  6

 40
0.0
 41
0.0
 42
0.0
 43
0.0
 44
0.0
 45
0.0
 46
0.0
 47
0.0
 48
0.0
 49
0.0
140
0.0
141
0.0
142
1.0
143
1.0
 70
   688
 72
     1
 73
     0
 74
     5
  7

 75
    16
147
1.0
148
0.0
149
0.0
100
AcDbLayout
  1
Layout1
 70
     1
 71
     1
 10
0.0
 20
0.0
 11
420.0
 21
297.0
 12
0.0
 22
0.0
 32
0.0
 14
1.0000000000E+20
 24
1.0000000000E+20
 34
1.0000000000E+20
 15
-1.0000000000E+20
 25
-1.0000000000E+20
 35
-1.0000000000E+20
146
0.0
 13
0.0
 23
0.0
 33
0.0
 16
1.0
 26
0.0
 36
0.0
 17
0.0
 27
1.0
 37
0.0
 76
     0
330
1B
  0
LAYOUT
  5
26
102
{ACAD_REACTORS
330
1A
102
}
330
1A
100
AcDbPlotSettings
  1

  2
none_device
  4

  6

 40
0.0
 41
0.0
 42
0.0
 43
0.0
 44
0.0
 45
0.0
 46
0.0
 47
0.0
 48
0.0
 49
0.0
140
0.0
141
0.0
142
1.0
143
1.0
 70
   688
 72
     1
 73
     0
 74
     5
  7

 75
    16
147
1.0
148
0.0
149
0.0
100
AcDbLayout
  1
Layout2
 70
     1
 71
     2
 10
0.0
 20
0.0
 11
0.0
 21
0.0
 12
0.0
 22
0.0
 32
0.0
 14
0.0
 24
0.0
 34
0.0
 15
0.0
 25
0.0
 35
0.0
146
0.0
 13
0.0
 23
0.0
 33
0.0
 16
1.0
 26
0.0
 36
0.0
 17
0.0
 27
1.0
 37
0.0
 76
     0
330
23
  0
LAYOUT
  5
22
102
{ACAD_REACTORS
330
1A
102
}
330
1A
100
AcDbPlotSettings
  1

  2
none_device
  4
ANSI_A_(11.00_x_8.50_Inches)
  6

 40
6.35
 41
19.05
 42
6.35000508
 43
19.05000254
 44
279.4
 45
215.9
 46
133.34999746
 47
88.89999873
 48
0.0
 49
0.0
140
0.0
141
0.0
142
0.2214473684
143
1.0
 70
  1696
 72
     0
 73
     0
 74
     0
  7

 75
     0
147
0.0179189148
148
-1300.4909072572
149
0.0
100
AcDbLayout
  1
Model
 70
     1
 71
     0
 10
0.0
 20
0.0
 11
420.0
 21
297.0
 12
0.0
 22
0.0
 32
0.0
 14
-19.0
 24
-19.0
 34
0.0
 15
19.0
 25
19.0
 35
0.0
146
0.0
 13
0.0
 23
0.0
 33
0.0
 16
1.0
 26
0.0
 36
0.0
 17
0.0
 27
1.0
 37
0.0
 76
     0
330
1F
331
29
  0
MLINESTYLE
  5
18
102
{ACAD_REACTORS
330
17
102
}
330
17
100
AcDbMlineStyle
  2
Standard
 70
     0
  3

 62
   256
 51
90.0
 52
90.0
 71
     2
 49
0.5
 62
   256
  6
BYLAYER
 49
-0.5
 62
   256
  6
BYLAYER
  0
ACDBPLACEHOLDER
  5
F
102
{ACAD_REACTORS
330
E
102
}
330
E
  0
SCALE
  5
48
102
{ACAD_REACTORS
330
47
102
}
330
47
100
AcDbScale
 70
     0
300
1:1
140
1.0
141
1.0
290
     1
  0
SCALE
  5
49
102
{ACAD_REACTORS
330
47
102
}
330
47
100
AcDbScale
 70
     0
300
1:2
140
1.0
141
2.0
290
     0
  0
SCALE
  5
4A
102
{ACAD_REACTORS
330
47
102
}
330
47
100
AcDbScale
 70
     0
300
1:4
140
1.0
141
4.0
290
     0
  0
SCALE
  5
4B
102
{ACAD_REACTORS
330
47
102
}
330
47
100
AcDbScale
 70
     0
300
1:5
140
1.0
141
5.0
290
     0
  0
SCALE
  5
4C
102
{ACAD_REACTORS
330
47
102
}
330
47
100
AcDbScale
 70
     0
300
1:8
140
1.0
141
8.0
290
     0
  0
SCALE
  5
4D
102
{ACAD_REACTORS
330
47
102
}
330
47
100
AcDbScale
 70
     0
300
1:10
140
1.0
141
10.0
290
     0
  0
SCALE
  5
4E
102
{ACAD_REACTORS
330
47
102
}
330
47
100
AcDbScale
 70
     0
300
1:16
140
1.0
141
16.0
290
     0
  0
SCALE
  5
4F
102
{ACAD_REACTORS
330
47
102
}
330
47
100
AcDbScale
 70
     0
300
1:20
140
1.0
141
20.0
290
     0
  0
SCALE
  5
50
102
{ACAD_REACTORS
330
47
102
}
330
47
100
AcDbScale
 70
     0
300
1:30
140
1.0
141
30.0
290
     0
  0
SCALE
  5
51
102
{ACAD_REACTORS
330
47
102
}
330
47
100
AcDbScale
 70
     0
300
1:40
140
1.0
141
40.0
290
     0
  0
SCALE
  5
52
102
{ACAD_REACTORS
330
47
102
}
330
47
100
AcDbScale
 70
     0
300
1:50
140
1.0
141
50.0
290
     0
  0
SCALE
  5
53
102
{ACAD_REACTORS
330
47
102
}
330
47
100
AcDbScale
 70
     0
300
1:100
140
1.0
141
100.0
290
     0
  0
SCALE
  5
54
102
{ACAD_REACTORS
330
47
102
}
330
47
100
AcDbScale
 70
     0
300
2:1
140
2.0
141
1.0
290
     0
  0
SCALE
  5
55
102
{ACAD_REACTORS
330
47
102
}
330
47
100
AcDbScale
 70
     0
300
4:1
140
4.0
141
1.0
290
     0
  0
SCALE
  5
56
102
{ACAD_REACTORS
330
47
102
}
330
47
100
AcDbScale
 70
     0
300
8:1
140
8.0
141
1.0
290
     0
  0
SCALE
  5
57
102
{ACAD_REACTORS
330
47
102
}
330
47
100
AcDbScale
 70
     0
300
10:1
140
10.0
141
1.0
290
     0
  0
SCALE
  5
58
102
{ACAD_REACTORS
330
47
102
}
330
47
100
AcDbScale
 70
     0
300
100:1
140
100.0
141
1.0
290
     0
  0
SCALE
  5
59
102
{ACAD_REACTORS
330
47
102
}
330
47
100
AcDbScale
 70
     0
300
1/128" = 1'-0"
140
0.0078125
141
12.0
290
     0
  0
SCALE
  5
5A
102
{ACAD_REACTORS
330
47
102
}
330
47
100
AcDbScale
 70
     0
300
1/64" = 1'-0"
140
0.015625
141
12.0
290
     0
  0
SCALE
  5
5B
102
{ACAD_REACTORS
330
47
102
}
330
47
100
AcDbScale
 70
     0
300
1/32" = 1'-0"
140
0.03125
141
12.0
290
     0
  0
SCALE
  5
5C
102
{ACAD_REACTORS
330
47
102
}
330
47
100
AcDbScale
 70
     0
300
1/16" = 1'-0"
140
0.0625
141
12.0
290
     0
  0
SCALE
  5
5D
102
{ACAD_REACTORS
330
47
102
}
330
47
100
AcDbScale
 70
     0
300
3/32" = 1'-0"
140
0.09375
141
12.0
290
     0
  0
SCALE
  5
5E
102
{ACAD_REACTORS
330
47
102
}
330
47
100
AcDbScale
 70
     0
300
1/8" = 1'-0"
140
0.125
141
12.0
290
     0
  0
SCALE
  5
5F
102
{ACAD_REACTORS
330
47
102
}
330
47
100
AcDbScale
 70
     0
300
3/16" = 1'-0"
140
0.1875
141
12.0
290
     0
  0
SCALE
  5
60
102
{ACAD_REACTORS
330
47
102
}
330
47
100
AcDbScale
 70
     0
300
1/4" = 1'-0"
140
0.25
141
12.0
290
     0
  0
SCALE
  5
61
102
{ACAD_REACTORS
330
47
102
}
330
47
100
AcDbScale
 70
     0
300
3/8" = 1'-0"
140
0.375
141
12.0
290
     0
  0
SCALE
  5
62
102
{ACAD_REACTORS
330
47
102
}
330
47
100
AcDbScale
 70
     0
300
1/2" = 1'-0"
140
0.5
141
12.0
290
     0
  0
SCALE
  5
63
102
{ACAD_REACTORS
330
47
102
}
330
47
100
AcDbScale
 70
     0
300
3/4" = 1'-0"
140
0.75
141
12.0
290
     0
  0
SCALE
  5
64
102
{ACAD_REACTORS
330
47
102
}
330
47
100
AcDbScale
 70
     0
300
1" = 1'-0"
140
1.0
141
12.0
290
     0
  0
SCALE
  5
65
102
{ACAD_REACTORS
330
47
102
}
330
47
100
AcDbScale
 70
     0
300
1-1/2" = 1'-0"
140
1.5
141
12.0
290
     0
  0
SCALE
  5
66
102
{ACAD_REACTORS
330
47
102
}
330
47
100
AcDbScale
 70
     0
300
3" = 1'-0"
140
3.0
141
12.0
290
     0
  0
SCALE
  5
67
102
{ACAD_REACTORS
330
47
102
}
330
47
100
AcDbScale
 70
     0
300
6" = 1'-0"
140
6.0
141
12.0
290
     0
  0
SCALE
  5
68
102
{ACAD_REACTORS
330
47
102
}
330
47
100
AcDbScale
 70
     0
300
1'-0" = 1'-0"
140
12.0
141
12.0
290
     0
  0
ENDSEC
  0
EOF
