  0
SECTION
  2
HEADER
  9
$ACADVER
  1
AC1014
  9
$HANDSEED
  5
FFFF
  9
$MEASUREMENT
 70
     1
  0
ENDSEC
  0
SECTION
  2
TABLES
  0
TABLE
  2
VPORT
  5
8
330
0
100
AcDbSymbolTable
 70
     4
  0
VPORT
  5
2E
330
8
100
AcDbSymbolTableRecord
100
AcDbViewportTableRecord
  2
*ACTIVE
 70
     0
 10
0.0
 20
0.0
 11
1.0
 21
1.0
 12
210.0
 22
148.5
 13
0.0
 23
0.0
 14
10.0
 24
10.0
 15
10.0
 25
10.0
 16
0.0
 26
0.0
 36
1.0
 17
0.0
 27
0.0
 37
0.0
 40
341.0
 41
1.24
 42
50.0
 43
0.0
 44
0.0
 50
0.0
 51
0.0
 71
     0
 72
   100
 73
     1
 74
     3
 75
     0
 76
     0
 77
     0
 78
     0
  0
ENDTAB
  0
TABLE
  2
LTYPE
  5
5
330
0
100
AcDbSymbolTable
 70
     1
  0
LTYPE
  5
14
330
5
100
AcDbSymbolTableRecord
100
AcDbLinetypeTableRecord
  2
BYBLOCK
 70
     0
  3

 72
    65
 73
     0
 40
0.0
  0
LTYPE
  5
15
330
5
100
AcDbSymbolTableRecord
100
AcDbLinetypeTableRecord
  2
BYLAYER
 70
     0
  3

 72
    65
 73
     0
 40
0.0
  0
LTYPE
  5
16
330
5
100
AcDbSymbolTableRecord
100
AcDbLinetypeTableRecord
  2
CONTINUOUS
 70
     0
  3
Solid line
 72
    65
 73
     0
 40
0.0
  0
ENDTAB
  0
TABLE
  2
LAYER
  5
2
100
AcDbSymbolTable
 70
2
  0
LAYER
  5
50
100
AcDbSymbolTableRecord
100
AcDbLayerTableRecord
  2
0
 70
0
  6
CONTINUOUS
  0
LAYER
  5
51
100
AcDbSymbolTableRecord
100
AcDbLayerTableRecord
  2
FORMAT
 70
0
  6
CONTINUOUS
  0
ENDTAB
  0
TABLE
  2
STYLE
  5
3
330
0
100
AcDbSymbolTable
 70
     1
  0
STYLE
  5
11
330
3
100
AcDbSymbolTableRecord
100
AcDbTextStyleTableRecord
  2
STANDARD
 70
     0
 40
0.0
 41
1.0
 50
0.0
 71
     0
 42
2.5
  3
txt
  4

  0
ENDTAB
  0
TABLE
  2
VIEW
  5
6
330
0
100
AcDbSymbolTable
 70
     0
  0
ENDTAB
  0
TABLE
  2
UCS
  5
7
330
0
100
AcDbSymbolTable
 70
     0
  0
ENDTAB
  0
TABLE
  2
APPID
  5
9
330
0
100
AcDbSymbolTable
 70
     2
  0
APPID
  5
12
330
9
100
AcDbSymbolTableRecord
100
AcDbRegAppTableRecord
  2
ACAD
 70
     0
  0
ENDTAB
  0
TABLE
  2
DIMSTYLE
  5
A
330
0
100
AcDbSymbolTable
 70
     1
  0
DIMSTYLE
105
27
330
A
100
AcDbSymbolTableRecord
100
AcDbDimStyleTableRecord
  2
ISO-25
 70
     0
  3

  4

  5

  6

  7

 40
1.0
 41
2.5
 42
0.625
 43
3.75
 44
1.25
 45
0.0
 46
0.0
 47
0.0
 48
0.0
140
2.5
141
2.5
142
0.0
143
0.03937007874016
144
1.0
145
0.0
146
1.0
147
0.625
 71
     0
 72
     0
 73
     0
 74
     0
 75
     0
 76
     0
 77
     1
 78
     8
170
     0
171
     3
172
     1
173
     0
174
     0
175
     0
176
     0
177
     0
178
     0
270
     2
271
     2
272
     2
273
     2
274
     3
340
11
275
     0
280
     0
281
     0
282
     0
283
     0
284
     8
285
     0
286
     0
287
     3
288
     0
  0
ENDTAB
  0
TABLE
  2
BLOCK_RECORD
  5
1
330
0
100
AcDbSymbolTable
 70
     1
  0
BLOCK_RECORD
  5
1F
330
1
100
AcDbSymbolTableRecord
100
AcDbBlockTableRecord
  2
*MODEL_SPACE
  0
BLOCK_RECORD
  5
1B
330
1
100
AcDbSymbolTableRecord
100
AcDbBlockTableRecord
  2
*PAPER_SPACE
  0
ENDTAB
  0
ENDSEC
  0
SECTION
  2
BLOCKS
  0
BLOCK
  5
20
330
1F
100
AcDbEntity
  8
0
100
AcDbBlockBegin
  2
*MODEL_SPACE
 70
     0
 10
0.0
 20
0.0
 30
0.0
  3
*MODEL_SPACE
  1

  0
ENDBLK
  5
21
330
1F
100
AcDbEntity
  8
0
100
AcDbBlockEnd
  0
BLOCK
  5
1C
330
1B
100
AcDbEntity
 67
     1
  8
0
100
AcDbBlockBegin
  2
*PAPER_SPACE
  1

  0
ENDBLK
  5
1D
330
1B
100
AcDbEntity
 67
     1
  8
0
100
AcDbBlockEnd
  0
ENDSEC
  0
SECTION
  2
ENTITIES
  0
LWPOLYLINE
  5
100
100
AcDbEntity
  8
0
 62
1
100
AcDbPolyline
 90
2
 70
0
 10
282.142622
 20
595.679170
 30
0.0
 10
282.142622
 20
593.644040
 30
0.0
  0
LWPOLYLINE
  5
101
100
AcDbEntity
  8
0
 62
1
100
AcDbPolyline
 90
2
 70
0
 10
272.730145
 20
595.679170
 30
0.0
 10
282.142622
 20
595.679170
 30
0.0
  0
LWPOLYLINE
  5
102
100
AcDbEntity
  8
0
 62
1
100
AcDbPolyline
 90
2
 70
0
 10
272.730145
 20
603.310908
 30
0.0
 10
272.730145
 20
595.679170
 30
0.0
  0
LWPOLYLINE
  5
103
100
AcDbEntity
  8
0
 62
1
100
AcDbPolyline
 90
2
 70
0
 10
282.142622
 20
603.310908
 30
0.0
 10
272.730145
 20
603.310908
 30
0.0
  0
LWPOLYLINE
  5
104
100
AcDbEntity
  8
0
 62
1
100
AcDbPolyline
 90
2
 70
0
 10
282.142622
 20
605.346038
 30
0.0
 10
282.142622
 20
603.310908
 30
0.0
  0
LWPOLYLINE
  5
105
100
AcDbEntity
  8
0
 62
1
100
AcDbPolyline
 90
2
 70
0
 10
272.730145
 20
605.346038
 30
0.0
 10
282.142622
 20
605.346038
 30
0.0
  0
LWPOLYLINE
  5
106
100
AcDbEntity
  8
0
 62
1
100
AcDbPolyline
 90
2
 70
0
 10
272.730145
 20
611.451429
 30
0.0
 10
272.730145
 20
605.346038
 30
0.0
  0
LWPOLYLINE
  5
107
100
AcDbEntity
  8
0
 62
1
100
AcDbPolyline
 90
2
 70
0
 10
282.142622
 20
611.451429
 30
0.0
 10
272.730145
 20
611.451429
 30
0.0
  0
LWPOLYLINE
  5
108
100
AcDbEntity
  8
0
 62
1
100
AcDbPolyline
 90
2
 70
0
 10
282.142622
 20
613.486559
 30
0.0
 10
282.142622
 20
611.451429
 30
0.0
  0
LWPOLYLINE
  5
109
100
AcDbEntity
  8
0
 62
1
100
AcDbPolyline
 90
2
 70
0
 10
270.949406
 20
613.486559
 30
0.0
 10
282.142622
 20
613.486559
 30
0.0
  0
LWPOLYLINE
  5
10a
100
AcDbEntity
  8
0
 62
1
100
AcDbPolyline
 90
2
 70
0
 10
270.949406
 20
593.644040
 30
0.0
 10
270.949406
 20
613.486559
 30
0.0
  0
SPLINE
  5
10b
100
AcDbEntity
  8
0
 62
1
100
AcDbSpline
 70
8
 71
3
 72
8
 73
4
 74
0
 40
0
 40
0
 40
0
 40
0
 40
1
 40
1
 40
1
 40
1
 10
287.202624
 20
596.605313
 30
0.0
 10
287.001729
 20
596.852161
 30
0.0
 10
286.800834
 20
597.099009
 30
0.0
 10
286.614344
 20
597.356563
 30
0.0
  0
SPLINE
  5
10c
100
AcDbEntity
  8
0
 62
1
100
AcDbSpline
 70
8
 71
3
 72
8
 73
4
 74
0
 40
0
 40
0
 40
0
 40
0
 40
1
 40
1
 40
1
 40
1
 10
286.614344
 20
597.356563
 30
0.0
 10
286.430105
 20
597.611007
 30
0.0
 10
286.259927
 20
597.875901
 30
0.0
 10
286.101586
 20
598.147561
 30
0.0
  0
SPLINE
  5
10d
100
AcDbEntity
  8
0
 62
1
100
AcDbSpline
 70
8
 71
3
 72
8
 73
4
 74
0
 40
0
 40
0
 40
0
 40
0
 40
1
 40
1
 40
1
 40
1
 10
286.101586
 20
598.147561
 30
0.0
 10
285.944798
 20
598.416558
 30
0.0
 10
285.799618
 20
598.692189
 30
0.0
 10
285.668326
 20
598.974332
 30
0.0
  0
SPLINE
  5
10e
100
AcDbEntity
  8
0
 62
1
100
AcDbSpline
 70
8
 71
3
 72
8
 73
4
 74
0
 40
0
 40
0
 40
0
 40
0
 40
1
 40
1
 40
1
 40
1
 10
285.668326
 20
598.974332
 30
0.0
 10
285.536678
 20
599.257241
 30
0.0
 10
285.418993
 20
599.546698
 30
0.0
 10
285.314564
 20
599.840852
 30
0.0
  0
SPLINE
  5
10f
100
AcDbEntity
  8
0
 62
1
100
AcDbSpline
 70
8
 71
3
 72
8
 73
4
 74
0
 40
0
 40
0
 40
0
 40
0
 40
1
 40
1
 40
1
 40
1
 10
285.314564
 20
599.840852
 30
0.0
 10
285.209340
 20
600.137240
 30
0.0
 10
285.117573
 20
600.438398
 30
0.0
 10
285.040297
 20
600.743147
 30
0.0
  0
SPLINE
  5
110
100
AcDbEntity
  8
0
 62
1
100
AcDbSpline
 70
8
 71
3
 72
8
 73
4
 74
0
 40
0
 40
0
 40
0
 40
0
 40
1
 40
1
 40
1
 40
1
 10
285.040297
 20
600.743147
 30
0.0
 10
284.961473
 20
601.054006
 30
0.0
 10
284.897727
 20
601.368603
 30
0.0
 10
284.845529
 20
601.685189
 30
0.0
  0
SPLINE
  5
111
100
AcDbEntity
  8
0
 62
1
100
AcDbSpline
 70
8
 71
3
 72
8
 73
4
 74
0
 40
0
 40
0
 40
0
 40
0
 40
1
 40
1
 40
1
 40
1
 10
284.845529
 20
601.685189
 30
0.0
 10
284.792079
 20
602.009376
 30
0.0
 10
284.750738
 20
602.335649
 30
0.0
 10
284.726284
 20
602.663006
 30
0.0
  0
SPLINE
  5
112
100
AcDbEntity
  8
0
 62
1
100
AcDbSpline
 70
8
 71
3
 72
8
 73
4
 74
0
 40
0
 40
0
 40
0
 40
0
 40
1
 40
1
 40
1
 40
1
 10
284.726284
 20
602.663006
 30
0.0
 10
284.701003
 20
603.001422
 30
0.0
 10
284.693769
 20
603.340997
 30
0.0
 10
284.686535
 20
603.680571
 30
0.0
  0
SPLINE
  5
113
100
AcDbEntity
  8
0
 62
1
100
AcDbSpline
 70
8
 71
3
 72
8
 73
4
 74
0
 40
0
 40
0
 40
0
 40
0
 40
1
 40
1
 40
1
 40
1
 10
295.386868
 20
593.135258
 30
0.0
 10
295.173455
 20
593.136743
 30
0.0
 10
294.960042
 20
593.138228
 30
0.0
 10
294.746915
 20
593.147182
 30
0.0
  0
SPLINE
  5
114
100
AcDbEntity
  8
0
 62
1
100
AcDbSpline
 70
8
 71
3
 72
8
 73
4
 74
0
 40
0
 40
0
 40
0
 40
0
 40
1
 40
1
 40
1
 40
1
 10
294.746915
 20
593.147182
 30
0.0
 10
294.538610
 20
593.155934
 30
0.0
 10
294.330577
 20
593.171819
 30
0.0
 10
294.122861
 20
593.190905
 30
0.0
  0
SPLINE
  5
115
100
AcDbEntity
  8
0
 62
1
100
AcDbSpline
 70
8
 71
3
 72
8
 73
4
 74
0
 40
0
 40
0
 40
0
 40
0
 40
1
 40
1
 40
1
 40
1
 10
294.122861
 20
593.190905
 30
0.0
 10
293.921002
 20
593.209454
 30
0.0
 10
293.719442
 20
593.231024
 30
0.0
 10
293.518682
 20
593.258478
 30
0.0
  0
SPLINE
  5
116
100
AcDbEntity
  8
0
 62
1
100
AcDbSpline
 70
8
 71
3
 72
8
 73
4
 74
0
 40
0
 40
0
 40
0
 40
0
 40
1
 40
1
 40
1
 40
1
 10
293.518682
 20
593.258478
 30
0.0
 10
293.321879
 20
593.285391
 30
0.0
 10
293.125845
 20
593.317958
 30
0.0
 10
292.930403
 20
593.353875
 30
0.0
  0
SPLINE
  5
117
100
AcDbEntity
  8
0
 62
1
100
AcDbSpline
 70
8
 71
3
 72
8
 73
4
 74
0
 40
0
 40
0
 40
0
 40
0
 40
1
 40
1
 40
1
 40
1
 10
292.930403
 20
593.353875
 30
0.0
 10
292.738664
 20
593.389111
 30
0.0
 10
292.547495
 20
593.427569
 30
0.0
 10
292.358022
 20
593.473121
 30
0.0
  0
SPLINE
  5
118
100
AcDbEntity
  8
0
 62
1
100
AcDbSpline
 70
8
 71
3
 72
8
 73
4
 74
0
 40
0
 40
0
 40
0
 40
0
 40
1
 40
1
 40
1
 40
1
 10
292.358022
 20
593.473121
 30
0.0
 10
292.172402
 20
593.517746
 30
0.0
 10
291.988410
 20
593.569177
 30
0.0
 10
291.805516
 20
593.624165
 30
0.0
  0
SPLINE
  5
119
100
AcDbEntity
  8
0
 62
1
100
AcDbSpline
 70
8
 71
3
 72
8
 73
4
 74
0
 40
0
 40
0
 40
0
 40
0
 40
1
 40
1
 40
1
 40
1
 10
291.805516
 20
593.624165
 30
0.0
 10
291.625301
 20
593.678348
 30
0.0
 10
291.446153
 20
593.735984
 30
0.0
 10
291.268910
 20
593.799059
 30
0.0
  0
SPLINE
  5
11a
100
AcDbEntity
  8
0
 62
1
100
AcDbSpline
 70
8
 71
3
 72
8
 73
4
 74
0
 40
0
 40
0
 40
0
 40
0
 40
1
 40
1
 40
1
 40
1
 10
291.268910
 20
593.799059
 30
0.0
 10
291.093429
 20
593.861507
 30
0.0
 10
290.919817
 20
593.929287
 30
0.0
 10
290.748202
 20
594.001778
 30
0.0
  0
SPLINE
  5
11b
100
AcDbEntity
  8
0
 62
1
100
AcDbSpline
 70
8
 71
3
 72
8
 73
4
 74
0
 40
0
 40
0
 40
0
 40
0
 40
1
 40
1
 40
1
 40
1
 10
290.748202
 20
594.001778
 30
0.0
 10
290.577760
 20
594.073773
 30
0.0
 10
290.409288
 20
594.150416
 30
0.0
 10
290.243395
 20
594.232320
 30
0.0
  0
SPLINE
  5
11c
100
AcDbEntity
  8
0
 62
1
100
AcDbSpline
 70
8
 71
3
 72
8
 73
4
 74
0
 40
0
 40
0
 40
0
 40
0
 40
1
 40
1
 40
1
 40
1
 10
290.243395
 20
594.232320
 30
0.0
 10
290.079142
 20
594.313412
 30
0.0
 10
289.917418
 20
594.399661
 30
0.0
 10
289.758461
 20
594.490686
 30
0.0
  0
SPLINE
  5
11d
100
AcDbEntity
  8
0
 62
1
100
AcDbSpline
 70
8
 71
3
 72
8
 73
4
 74
0
 40
0
 40
0
 40
0
 40
0
 40
1
 40
1
 40
1
 40
1
 10
289.758461
 20
594.490686
 30
0.0
 10
289.599509
 20
594.581709
 30
0.0
 10
289.443323
 20
594.677508
 30
0.0
 10
289.289427
 20
594.776876
 30
0.0
  0
SPLINE
  5
11e
100
AcDbEntity
  8
0
 62
1
100
AcDbSpline
 70
8
 71
3
 72
8
 73
4
 74
0
 40
0
 40
0
 40
0
 40
0
 40
1
 40
1
 40
1
 40
1
 10
289.289427
 20
594.776876
 30
0.0
 10
289.135644
 20
594.876171
 30
0.0
 10
288.984146
 20
594.979030
 30
0.0
 10
288.836293
 20
595.086915
 30
0.0
  0
SPLINE
  5
11f
100
AcDbEntity
  8
0
 62
1
100
AcDbSpline
 70
8
 71
3
 72
8
 73
4
 74
0
 40
0
 40
0
 40
0
 40
0
 40
1
 40
1
 40
1
 40
1
 10
288.836293
 20
595.086915
 30
0.0
 10
288.688339
 20
595.194875
 30
0.0
 10
288.544034
 20
595.307867
 30
0.0
 10
288.403033
 20
595.424779
 30
0.0
  0
SPLINE
  5
120
100
AcDbEntity
  8
0
 62
1
100
AcDbSpline
 70
8
 71
3
 72
8
 73
4
 74
0
 40
0
 40
0
 40
0
 40
0
 40
1
 40
1
 40
1
 40
1
 10
288.403033
 20
595.424779
 30
0.0
 10
288.260624
 20
595.542857
 30
0.0
 10
288.121585
 20
595.664930
 30
0.0
 10
287.985672
 20
595.790466
 30
0.0
  0
SPLINE
  5
121
100
AcDbEntity
  8
0
 62
1
100
AcDbSpline
 70
8
 71
3
 72
8
 73
4
 74
0
 40
0
 40
0
 40
0
 40
0
 40
1
 40
1
 40
1
 40
1
 10
287.985672
 20
595.790466
 30
0.0
 10
287.847982
 20
595.917644
 30
0.0
 10
287.713500
 20
596.048373
 30
0.0
 10
287.584210
 20
596.183978
 30
0.0
  0
SPLINE
  5
122
100
AcDbEntity
  8
0
 62
1
100
AcDbSpline
 70
8
 71
3
 72
8
 73
4
 74
0
 40
0
 40
0
 40
0
 40
0
 40
1
 40
1
 40
1
 40
1
 10
287.584210
 20
596.183978
 30
0.0
 10
287.453475
 20
596.321099
 30
0.0
 10
287.328050
 20
596.463206
 30
0.0
 10
287.202624
 20
596.605313
 30
0.0
  0
SPLINE
  5
123
100
AcDbEntity
  8
0
 62
1
100
AcDbSpline
 70
8
 71
3
 72
8
 73
4
 74
0
 40
0
 40
0
 40
0
 40
0
 40
1
 40
1
 40
1
 40
1
 10
304.020272
 20
597.296939
 30
0.0
 10
303.894878
 20
597.135147
 30
0.0
 10
303.769484
 20
596.973354
 30
0.0
 10
303.638685
 20
596.815981
 30
0.0
  0
SPLINE
  5
124
100
AcDbEntity
  8
0
 62
1
100
AcDbSpline
 70
8
 71
3
 72
8
 73
4
 74
0
 40
0
 40
0
 40
0
 40
0
 40
1
 40
1
 40
1
 40
1
 10
303.638685
 20
596.815981
 30
0.0
 10
303.508513
 20
596.659362
 30
0.0
 10
303.372987
 20
596.507120
 30
0.0
 10
303.233249
 20
596.358872
 30
0.0
  0
SPLINE
  5
125
100
AcDbEntity
  8
0
 62
1
100
AcDbSpline
 70
8
 71
3
 72
8
 73
4
 74
0
 40
0
 40
0
 40
0
 40
0
 40
1
 40
1
 40
1
 40
1
 10
303.233249
 20
596.358872
 30
0.0
 10
303.095689
 20
596.212934
 30
0.0
 10
302.954048
 20
596.070866
 30
0.0
 10
302.807938
 20
595.933562
 30
0.0
  0
SPLINE
  5
126
100
AcDbEntity
  8
0
 62
1
100
AcDbSpline
 70
8
 71
3
 72
8
 73
4
 74
0
 40
0
 40
0
 40
0
 40
0
 40
1
 40
1
 40
1
 40
1
 10
302.807938
 20
595.933562
 30
0.0
 10
302.662242
 20
595.796645
 30
0.0
 10
302.512102
 20
595.664465
 30
0.0
 10
302.358779
 20
595.536075
 30
0.0
  0
SPLINE
  5
127
100
AcDbEntity
  8
0
 62
1
100
AcDbSpline
 70
8
 71
3
 72
8
 73
4
 74
0
 40
0
 40
0
 40
0
 40
0
 40
1
 40
1
 40
1
 40
1
 10
302.358779
 20
595.536075
 30
0.0
 10
302.204690
 20
595.407044
 30
0.0
 10
302.047383
 20
595.281842
 30
0.0
 10
301.885770
 20
595.162438
 30
0.0
  0
SPLINE
  5
128
100
AcDbEntity
  8
0
 62
1
100
AcDbSpline
 70
8
 71
3
 72
8
 73
4
 74
0
 40
0
 40
0
 40
0
 40
0
 40
1
 40
1
 40
1
 40
1
 10
301.885770
 20
595.162438
 30
0.0
 10
301.724073
 20
595.042971
 30
0.0
 10
301.558064
 20
594.929307
 30
0.0
 10
301.388912
 20
594.820600
 30
0.0
  0
SPLINE
  5
129
100
AcDbEntity
  8
0
 62
1
100
AcDbSpline
 70
8
 71
3
 72
8
 73
4
 74
0
 40
0
 40
0
 40
0
 40
0
 40
1
 40
1
 40
1
 40
1
 10
301.388912
 20
594.820600
 30
0.0
 10
301.218366
 20
594.710996
 30
0.0
 10
301.044625
 20
594.606431
 30
0.0
 10
300.868205
 20
594.506585
 30
0.0
  0
SPLINE
  5
12a
100
AcDbEntity
  8
0
 62
1
100
AcDbSpline
 70
8
 71
3
 72
8
 73
4
 74
0
 40
0
 40
0
 40
0
 40
0
 40
1
 40
1
 40
1
 40
1
 10
300.868205
 20
594.506585
 30
0.0
 10
300.690740
 20
594.406148
 30
0.0
 10
300.510565
 20
594.310487
 30
0.0
 10
300.327624
 20
594.220395
 30
0.0
  0
SPLINE
  5
12b
100
AcDbEntity
  8
0
 62
1
100
AcDbSpline
 70
8
 71
3
 72
8
 73
4
 74
0
 40
0
 40
0
 40
0
 40
0
 40
1
 40
1
 40
1
 40
1
 10
300.327624
 20
594.220395
 30
0.0
 10
300.143539
 20
594.129740
 30
0.0
 10
299.956654
 20
594.044724
 30
0.0
 10
299.767168
 20
593.966004
 30
0.0
  0
SPLINE
  5
12c
100
AcDbEntity
  8
0
 62
1
100
AcDbSpline
 70
8
 71
3
 72
8
 73
4
 74
0
 40
0
 40
0
 40
0
 40
0
 40
1
 40
1
 40
1
 40
1
 10
299.767168
 20
593.966004
 30
0.0
 10
299.577394
 20
593.887164
 30
0.0
 10
299.385010
 20
593.814639
 30
0.0
 10
299.190813
 20
593.747387
 30
0.0
  0
SPLINE
  5
12d
100
AcDbEntity
  8
0
 62
1
100
AcDbSpline
 70
8
 71
3
 72
8
 73
4
 74
0
 40
0
 40
0
 40
0
 40
0
 40
1
 40
1
 40
1
 40
1
 10
299.190813
 20
593.747387
 30
0.0
 10
298.995167
 20
593.679632
 30
0.0
 10
298.797681
 20
593.617229
 30
0.0
 10
298.598558
 20
593.560568
 30
0.0
  0
SPLINE
  5
12e
100
AcDbEntity
  8
0
 62
1
100
AcDbSpline
 70
8
 71
3
 72
8
 73
4
 74
0
 40
0
 40
0
 40
0
 40
0
 40
1
 40
1
 40
1
 40
1
 10
298.598558
 20
593.560568
 30
0.0
 10
298.396090
 20
593.502954
 30
0.0
 10
298.191930
 20
593.451276
 30
0.0
 10
297.986429
 20
593.405548
 30
0.0
  0
SPLINE
  5
12f
100
AcDbEntity
  8
0
 62
1
100
AcDbSpline
 70
8
 71
3
 72
8
 73
4
 74
0
 40
0
 40
0
 40
0
 40
0
 40
1
 40
1
 40
1
 40
1
 10
297.986429
 20
593.405548
 30
0.0
 10
297.779661
 20
593.359538
 30
0.0
 10
297.571535
 20
593.319553
 30
0.0
 10
297.362375
 20
593.286302
 30
0.0
  0
SPLINE
  5
130
100
AcDbEntity
  8
0
 62
1
100
AcDbSpline
 70
8
 71
3
 72
8
 73
4
 74
0
 40
0
 40
0
 40
0
 40
0
 40
1
 40
1
 40
1
 40
1
 10
297.362375
 20
593.286302
 30
0.0
 10
297.148616
 20
593.252321
 30
0.0
 10
296.933777
 20
593.225374
 30
0.0
 10
296.718448
 20
593.202830
 30
0.0
  0
SPLINE
  5
131
100
AcDbEntity
  8
0
 62
1
100
AcDbSpline
 70
8
 71
3
 72
8
 73
4
 74
0
 40
0
 40
0
 40
0
 40
0
 40
1
 40
1
 40
1
 40
1
 10
296.718448
 20
593.202830
 30
0.0
 10
296.500277
 20
593.179988
 30
0.0
 10
296.281602
 20
593.161667
 30
0.0
 10
296.062595
 20
593.151157
 30
0.0
  0
SPLINE
  5
132
100
AcDbEntity
  8
0
 62
1
100
AcDbSpline
 70
8
 71
3
 72
8
 73
4
 74
0
 40
0
 40
0
 40
0
 40
0
 40
1
 40
1
 40
1
 40
1
 10
296.062595
 20
593.151157
 30
0.0
 10
295.837586
 20
593.140359
 30
0.0
 10
295.612227
 20
593.137808
 30
0.0
 10
295.386868
 20
593.135258
 30
0.0
  0
LWPOLYLINE
  5
133
100
AcDbEntity
  8
0
 62
1
100
AcDbPolyline
 90
2
 70
0
 10
282.142622
 20
593.644040
 30
0.0
 10
270.949406
 20
593.644040
 30
0.0
  0
SPLINE
  5
134
100
AcDbEntity
  8
0
 62
1
100
AcDbSpline
 70
8
 71
3
 72
8
 73
4
 74
0
 40
0
 40
0
 40
0
 40
0
 40
1
 40
1
 40
1
 40
1
 10
295.374943
 20
595.170388
 30
0.0
 10
295.721353
 20
595.179962
 30
0.0
 10
296.067761
 20
595.189536
 30
0.0
 10
296.412383
 20
595.222061
 30
0.0
  0
SPLINE
  5
135
100
AcDbEntity
  8
0
 62
1
100
AcDbSpline
 70
8
 71
3
 72
8
 73
4
 74
0
 40
0
 40
0
 40
0
 40
0
 40
1
 40
1
 40
1
 40
1
 10
296.412383
 20
595.222061
 30
0.0
 10
296.746059
 20
595.253552
 30
0.0
 10
297.078059
 20
595.306560
 30
0.0
 10
297.406099
 20
595.377080
 30
0.0
  0
SPLINE
  5
136
100
AcDbEntity
  8
0
 62
1
100
AcDbSpline
 70
8
 71
3
 72
8
 73
4
 74
0
 40
0
 40
0
 40
0
 40
0
 40
1
 40
1
 40
1
 40
1
 10
297.406099
 20
595.377080
 30
0.0
 10
297.727212
 20
595.446112
 30
0.0
 10
298.044529
 20
595.531923
 30
0.0
 10
298.356092
 20
595.635446
 30
0.0
  0
SPLINE
  5
137
100
AcDbEntity
  8
0
 62
1
100
AcDbSpline
 70
8
 71
3
 72
8
 73
4
 74
0
 40
0
 40
0
 40
0
 40
0
 40
1
 40
1
 40
1
 40
1
 10
298.356092
 20
595.635446
 30
0.0
 10
298.666064
 20
595.738442
 30
0.0
 10
298.970341
 20
595.858970
 30
0.0
 10
299.266335
 20
595.997159
 30
0.0
  0
SPLINE
  5
138
100
AcDbEntity
  8
0
 62
1
100
AcDbSpline
 70
8
 71
3
 72
8
 73
4
 74
0
 40
0
 40
0
 40
0
 40
0
 40
1
 40
1
 40
1
 40
1
 10
299.266335
 20
595.997159
 30
0.0
 10
299.562466
 20
596.135412
 30
0.0
 10
299.850307
 20
596.291343
 30
0.0
 10
300.128881
 20
596.462219
 30
0.0
  0
SPLINE
  5
139
100
AcDbEntity
  8
0
 62
1
100
AcDbSpline
 70
8
 71
3
 72
8
 73
4
 74
0
 40
0
 40
0
 40
0
 40
0
 40
1
 40
1
 40
1
 40
1
 10
300.128881
 20
596.462219
 30
0.0
 10
300.413170
 20
596.636600
 30
0.0
 10
300.687806
 20
596.826545
 30
0.0
 10
300.951677
 20
597.030624
 30
0.0
  0
SPLINE
  5
13a
100
AcDbEntity
  8
0
 62
1
100
AcDbSpline
 70
8
 71
3
 72
8
 73
4
 74
0
 40
0
 40
0
 40
0
 40
0
 40
1
 40
1
 40
1
 40
1
 10
300.951677
 20
597.030624
 30
0.0
 10
301.222315
 20
597.239936
 30
0.0
 10
301.481627
 20
597.464118
 30
0.0
 10
301.726776
 20
597.702376
 30
0.0
  0
SPLINE
  5
13b
100
AcDbEntity
  8
0
 62
1
100
AcDbSpline
 70
8
 71
3
 72
8
 73
4
 74
0
 40
0
 40
0
 40
0
 40
0
 40
1
 40
1
 40
1
 40
1
 10
301.726776
 20
597.702376
 30
0.0
 10
301.982138
 20
597.950560
 30
0.0
 10
302.222132
 20
598.214017
 30
0.0
 10
302.462125
 20
598.477474
 30
0.0
  0
SPLINE
  5
13c
100
AcDbEntity
  8
0
 62
1
100
AcDbSpline
 70
8
 71
3
 72
8
 73
4
 74
0
 40
0
 40
0
 40
0
 40
0
 40
1
 40
1
 40
1
 40
1
 10
286.467274
 20
603.545426
 30
0.0
 10
286.474427
 20
603.252146
 30
0.0
 10
286.481582
 20
602.958866
 30
0.0
 10
286.507022
 20
602.666981
 30
0.0
  0
SPLINE
  5
13d
100
AcDbEntity
  8
0
 62
1
100
AcDbSpline
 70
8
 71
3
 72
8
 73
4
 74
0
 40
0
 40
0
 40
0
 40
0
 40
1
 40
1
 40
1
 40
1
 10
286.507022
 20
602.666981
 30
0.0
 10
286.531532
 20
602.385788
 30
0.0
 10
286.573014
 20
602.105890
 30
0.0
 10
286.626269
 20
601.828284
 30
0.0
  0
SPLINE
  5
13e
100
AcDbEntity
  8
0
 62
1
100
AcDbSpline
 70
8
 71
3
 72
8
 73
4
 74
0
 40
0
 40
0
 40
0
 40
0
 40
1
 40
1
 40
1
 40
1
 10
286.626269
 20
601.828284
 30
0.0
 10
286.678207
 20
601.557535
 30
0.0
 10
286.741346
 20
601.288967
 30
0.0
 10
286.821037
 20
601.025362
 30
0.0
  0
SPLINE
  5
13f
100
AcDbEntity
  8
0
 62
1
100
AcDbSpline
 70
8
 71
3
 72
8
 73
4
 74
0
 40
0
 40
0
 40
0
 40
0
 40
1
 40
1
 40
1
 40
1
 10
286.821037
 20
601.025362
 30
0.0
 10
286.899388
 20
600.766190
 30
0.0
 10
286.993741
 20
600.511818
 30
0.0
 10
287.099277
 20
600.262188
 30
0.0
  0
SPLINE
  5
140
100
AcDbEntity
  8
0
 62
1
100
AcDbSpline
 70
8
 71
3
 72
8
 73
4
 74
0
 40
0
 40
0
 40
0
 40
0
 40
1
 40
1
 40
1
 40
1
 10
287.099277
 20
600.262188
 30
0.0
 10
287.204831
 20
600.012519
 30
0.0
 10
287.321571
 20
599.767593
 30
0.0
 10
287.453040
 20
599.530813
 30
0.0
  0
SPLINE
  5
141
100
AcDbEntity
  8
0
 62
1
100
AcDbSpline
 70
8
 71
3
 72
8
 73
4
 74
0
 40
0
 40
0
 40
0
 40
0
 40
1
 40
1
 40
1
 40
1
 10
287.453040
 20
599.530813
 30
0.0
 10
287.585449
 20
599.292341
 30
0.0
 10
287.732798
 20
599.062132
 30
0.0
 10
287.890275
 20
598.839187
 30
0.0
  0
SPLINE
  5
142
100
AcDbEntity
  8
0
 62
1
100
AcDbSpline
 70
8
 71
3
 72
8
 73
4
 74
0
 40
0
 40
0
 40
0
 40
0
 40
1
 40
1
 40
1
 40
1
 10
287.890275
 20
598.839187
 30
0.0
 10
288.050498
 20
598.612356
 30
0.0
 10
288.221206
 20
598.393045
 30
0.0
 10
288.403033
 20
598.183334
 30
0.0
  0
SPLINE
  5
143
100
AcDbEntity
  8
0
 62
1
100
AcDbSpline
 70
8
 71
3
 72
8
 73
4
 74
0
 40
0
 40
0
 40
0
 40
0
 40
1
 40
1
 40
1
 40
1
 10
288.403033
 20
598.183334
 30
0.0
 10
288.589687
 20
597.968057
 30
0.0
 10
288.788058
 20
597.762897
 30
0.0
 10
288.995288
 20
597.567230
 30
0.0
  0
SPLINE
  5
144
100
AcDbEntity
  8
0
 62
1
100
AcDbSpline
 70
8
 71
3
 72
8
 73
4
 74
0
 40
0
 40
0
 40
0
 40
0
 40
1
 40
1
 40
1
 40
1
 10
288.995288
 20
597.567230
 30
0.0
 10
289.203749
 20
597.370401
 30
0.0
 10
289.421174
 20
597.183179
 30
0.0
 10
289.647165
 20
597.006775
 30
0.0
  0
SPLINE
  5
145
100
AcDbEntity
  8
0
 62
1
100
AcDbSpline
 70
8
 71
3
 72
8
 73
4
 74
0
 40
0
 40
0
 40
0
 40
0
 40
1
 40
1
 40
1
 40
1
 10
289.647165
 20
597.006775
 30
0.0
 10
289.870672
 20
596.832310
 30
0.0
 10
290.102558
 20
596.668427
 30
0.0
 10
290.342766
 20
596.517866
 30
0.0
  0
SPLINE
  5
146
100
AcDbEntity
  8
0
 62
1
100
AcDbSpline
 70
8
 71
3
 72
8
 73
4
 74
0
 40
0
 40
0
 40
0
 40
0
 40
1
 40
1
 40
1
 40
1
 10
290.342766
 20
596.517866
 30
0.0
 10
290.580547
 20
596.368827
 30
0.0
 10
290.826482
 20
596.232842
 30
0.0
 10
291.078115
 20
596.108456
 30
0.0
  0
SPLINE
  5
147
100
AcDbEntity
  8
0
 62
1
100
AcDbSpline
 70
8
 71
3
 72
8
 73
4
 74
0
 40
0
 40
0
 40
0
 40
0
 40
1
 40
1
 40
1
 40
1
 10
291.078115
 20
596.108456
 30
0.0
 10
291.330914
 20
595.983494
 30
0.0
 10
291.589465
 20
595.870239
 30
0.0
 10
291.853214
 20
595.770592
 30
0.0
  0
SPLINE
  5
148
100
AcDbEntity
  8
0
 62
1
100
AcDbSpline
 70
8
 71
3
 72
8
 73
4
 74
0
 40
0
 40
0
 40
0
 40
0
 40
1
 40
1
 40
1
 40
1
 10
291.853214
 20
595.770592
 30
0.0
 10
292.121420
 20
595.669261
 30
0.0
 10
292.395002
 20
595.582001
 30
0.0
 10
292.672036
 20
595.508251
 30
0.0
  0
SPLINE
  5
149
100
AcDbEntity
  8
0
 62
1
100
AcDbSpline
 70
8
 71
3
 72
8
 73
4
 74
0
 40
0
 40
0
 40
0
 40
0
 40
1
 40
1
 40
1
 40
1
 10
292.672036
 20
595.508251
 30
0.0
 10
292.955140
 20
595.432886
 30
0.0
 10
293.241849
 20
595.371629
 30
0.0
 10
293.530606
 20
595.321433
 30
0.0
  0
SPLINE
  5
14a
100
AcDbEntity
  8
0
 62
1
100
AcDbSpline
 70
8
 71
3
 72
8
 73
4
 74
0
 40
0
 40
0
 40
0
 40
0
 40
1
 40
1
 40
1
 40
1
 10
293.530606
 20
595.321433
 30
0.0
 10
293.829541
 20
595.269467
 30
0.0
 10
294.130670
 20
595.229356
 30
0.0
 10
294.432901
 20
595.206161
 30
0.0
  0
SPLINE
  5
14b
100
AcDbEntity
  8
0
 62
1
100
AcDbSpline
 70
8
 71
3
 72
8
 73
4
 74
0
 40
0
 40
0
 40
0
 40
0
 40
1
 40
1
 40
1
 40
1
 10
294.432901
 20
595.206161
 30
0.0
 10
294.746127
 20
595.182123
 30
0.0
 10
295.060535
 20
595.176255
 30
0.0
 10
295.374943
 20
595.170388
 30
0.0
  0
SPLINE
  5
14c
100
AcDbEntity
  8
0
 62
1
100
AcDbSpline
 70
8
 71
3
 72
8
 73
4
 74
0
 40
0
 40
0
 40
0
 40
0
 40
1
 40
1
 40
1
 40
1
 10
295.251723
 20
611.960212
 30
0.0
 10
295.052825
 20
611.957922
 30
0.0
 10
294.853927
 20
611.955632
 30
0.0
 10
294.655493
 20
611.944313
 30
0.0
  0
SPLINE
  5
14d
100
AcDbEntity
  8
0
 62
1
100
AcDbSpline
 70
8
 71
3
 72
8
 73
4
 74
0
 40
0
 40
0
 40
0
 40
0
 40
1
 40
1
 40
1
 40
1
 10
294.655493
 20
611.944313
 30
0.0
 10
294.458900
 20
611.933099
 30
0.0
 10
294.262761
 20
611.913023
 30
0.0
 10
294.067213
 20
611.888664
 30
0.0
  0
SPLINE
  5
14e
100
AcDbEntity
  8
0
 62
1
100
AcDbSpline
 70
8
 71
3
 72
8
 73
4
 74
0
 40
0
 40
0
 40
0
 40
0
 40
1
 40
1
 40
1
 40
1
 10
294.067213
 20
611.888664
 30
0.0
 10
293.874298
 20
611.864634
 30
0.0
 10
293.681957
 20
611.836437
 30
0.0
 10
293.490858
 20
611.801217
 30
0.0
  0
SPLINE
  5
14f
100
AcDbEntity
  8
0
 62
1
100
AcDbSpline
 70
8
 71
3
 72
8
 73
4
 74
0
 40
0
 40
0
 40
0
 40
0
 40
1
 40
1
 40
1
 40
1
 10
293.490858
 20
611.801217
 30
0.0
 10
293.302745
 20
611.766548
 30
0.0
 10
293.115836
 20
611.725074
 30
0.0
 10
292.930403
 20
611.677997
 30
0.0
  0
SPLINE
  5
150
100
AcDbEntity
  8
0
 62
1
100
AcDbSpline
 70
8
 71
3
 72
8
 73
4
 74
0
 40
0
 40
0
 40
0
 40
0
 40
1
 40
1
 40
1
 40
1
 10
292.930403
 20
611.677997
 30
0.0
 10
292.743382
 20
611.630516
 30
0.0
 10
292.557863
 20
611.577336
 30
0.0
 10
292.373921
 20
611.519002
 30
0.0
  0
SPLINE
  5
151
100
AcDbEntity
  8
0
 62
1
100
AcDbSpline
 70
8
 71
3
 72
8
 73
4
 74
0
 40
0
 40
0
 40
0
 40
0
 40
1
 40
1
 40
1
 40
1
 10
292.373921
 20
611.519002
 30
0.0
 10
292.191723
 20
611.461220
 30
0.0
 10
292.011073
 20
611.398382
 30
0.0
 10
291.833340
 20
611.328209
 30
0.0
  0
SPLINE
  5
152
100
AcDbEntity
  8
0
 62
1
100
AcDbSpline
 70
8
 71
3
 72
8
 73
4
 74
0
 40
0
 40
0
 40
0
 40
0
 40
1
 40
1
 40
1
 40
1
 10
291.833340
 20
611.328209
 30
0.0
 10
291.654529
 20
611.257610
 30
0.0
 10
291.478673
 20
611.179587
 30
0.0
 10
291.304683
 20
611.097667
 30
0.0
  0
SPLINE
  5
153
100
AcDbEntity
  8
0
 62
1
100
AcDbSpline
 70
8
 71
3
 72
8
 73
4
 74
0
 40
0
 40
0
 40
0
 40
0
 40
1
 40
1
 40
1
 40
1
 10
291.304683
 20
611.097667
 30
0.0
 10
291.128786
 20
611.014848
 30
0.0
 10
290.954798
 20
610.928045
 30
0.0
 10
290.783976
 20
610.835326
 30
0.0
  0
SPLINE
  5
154
100
AcDbEntity
  8
0
 62
1
100
AcDbSpline
 70
8
 71
3
 72
8
 73
4
 74
0
 40
0
 40
0
 40
0
 40
0
 40
1
 40
1
 40
1
 40
1
 10
290.783976
 20
610.835326
 30
0.0
 10
290.613810
 20
610.742962
 30
0.0
 10
290.446786
 20
610.644727
 30
0.0
 10
290.283143
 20
610.541186
 30
0.0
  0
SPLINE
  5
155
100
AcDbEntity
  8
0
 62
1
100
AcDbSpline
 70
8
 71
3
 72
8
 73
4
 74
0
 40
0
 40
0
 40
0
 40
0
 40
1
 40
1
 40
1
 40
1
 10
290.283143
 20
610.541186
 30
0.0
 10
290.123489
 20
610.440168
 30
0.0
 10
289.967052
 20
610.334100
 30
0.0
 10
289.814109
 20
610.223196
 30
0.0
  0
SPLINE
  5
156
100
AcDbEntity
  8
0
 62
1
100
AcDbSpline
 70
8
 71
3
 72
8
 73
4
 74
0
 40
0
 40
0
 40
0
 40
0
 40
1
 40
1
 40
1
 40
1
 10
289.814109
 20
610.223196
 30
0.0
 10
289.663468
 20
610.113962
 30
0.0
 10
289.516216
 20
610.000035
 30
0.0
 10
289.372899
 20
609.881358
 30
0.0
  0
SPLINE
  5
157
100
AcDbEntity
  8
0
 62
1
100
AcDbSpline
 70
8
 71
3
 72
8
 73
4
 74
0
 40
0
 40
0
 40
0
 40
0
 40
1
 40
1
 40
1
 40
1
 10
289.372899
 20
609.881358
 30
0.0
 10
289.231180
 20
609.764004
 30
0.0
 10
289.093307
 20
609.642004
 30
0.0
 10
288.959513
 20
609.515671
 30
0.0
  0
SPLINE
  5
158
100
AcDbEntity
  8
0
 62
1
100
AcDbSpline
 70
8
 71
3
 72
8
 73
4
 74
0
 40
0
 40
0
 40
0
 40
0
 40
1
 40
1
 40
1
 40
1
 10
288.959513
 20
609.515671
 30
0.0
 10
288.826650
 20
609.390215
 30
0.0
 10
288.697808
 20
609.260486
 30
0.0
 10
288.573952
 20
609.126134
 30
0.0
  0
SPLINE
  5
159
100
AcDbEntity
  8
0
 62
1
100
AcDbSpline
 70
8
 71
3
 72
8
 73
4
 74
0
 40
0
 40
0
 40
0
 40
0
 40
1
 40
1
 40
1
 40
1
 10
288.573952
 20
609.126134
 30
0.0
 10
288.450998
 20
608.992761
 30
0.0
 10
288.332955
 20
608.854834
 30
0.0
 10
288.220189
 20
608.712749
 30
0.0
  0
SPLINE
  5
15a
100
AcDbEntity
  8
0
 62
1
100
AcDbSpline
 70
8
 71
3
 72
8
 73
4
 74
0
 40
0
 40
0
 40
0
 40
0
 40
1
 40
1
 40
1
 40
1
 10
288.220189
 20
608.712749
 30
0.0
 10
288.106500
 20
608.569499
 30
0.0
 10
287.998174
 20
608.422025
 30
0.0
 10
287.894250
 20
608.271539
 30
0.0
  0
SPLINE
  5
15b
100
AcDbEntity
  8
0
 62
1
100
AcDbSpline
 70
8
 71
3
 72
8
 73
4
 74
0
 40
0
 40
0
 40
0
 40
0
 40
1
 40
1
 40
1
 40
1
 10
287.894250
 20
608.271539
 30
0.0
 10
287.790228
 20
608.120910
 30
0.0
 10
287.690617
 20
607.967264
 30
0.0
 10
287.596136
 20
607.810454
 30
0.0
  0
SPLINE
  5
15c
100
AcDbEntity
  8
0
 62
1
100
AcDbSpline
 70
8
 71
3
 72
8
 73
4
 74
0
 40
0
 40
0
 40
0
 40
0
 40
1
 40
1
 40
1
 40
1
 10
287.596136
 20
607.810454
 30
0.0
 10
287.501533
 20
607.653443
 30
0.0
 10
287.412074
 20
607.493260
 30
0.0
 10
287.329819
 20
607.329496
 30
0.0
  0
SPLINE
  5
15d
100
AcDbEntity
  8
0
 62
1
100
AcDbSpline
 70
8
 71
3
 72
8
 73
4
 74
0
 40
0
 40
0
 40
0
 40
0
 40
1
 40
1
 40
1
 40
1
 10
287.329819
 20
607.329496
 30
0.0
 10
287.248118
 20
607.166831
 30
0.0
 10
287.173525
 20
607.000634
 30
0.0
 10
287.103252
 20
606.832637
 30
0.0
  0
SPLINE
  5
15e
100
AcDbEntity
  8
0
 62
1
100
AcDbSpline
 70
8
 71
3
 72
8
 73
4
 74
0
 40
0
 40
0
 40
0
 40
0
 40
1
 40
1
 40
1
 40
1
 10
287.103252
 20
606.832637
 30
0.0
 10
287.033145
 20
606.665039
 30
0.0
 10
286.967338
 20
606.495649
 30
0.0
 10
286.908484
 20
606.323855
 30
0.0
  0
SPLINE
  5
15f
100
AcDbEntity
  8
0
 62
1
100
AcDbSpline
 70
8
 71
3
 72
8
 73
4
 74
0
 40
0
 40
0
 40
0
 40
0
 40
1
 40
1
 40
1
 40
1
 10
286.908484
 20
606.323855
 30
0.0
 10
286.848845
 20
606.149772
 30
0.0
 10
286.796346
 20
605.973220
 30
0.0
 10
286.749489
 20
605.795198
 30
0.0
  0
SPLINE
  5
160
100
AcDbEntity
  8
0
 62
1
100
AcDbSpline
 70
8
 71
3
 72
8
 73
4
 74
0
 40
0
 40
0
 40
0
 40
0
 40
1
 40
1
 40
1
 40
1
 10
286.749489
 20
605.795198
 30
0.0
 10
286.702429
 20
605.616403
 30
0.0
 10
286.661059
 20
605.436125
 30
0.0
 10
286.626269
 20
605.254617
 30
0.0
  0
SPLINE
  5
161
100
AcDbEntity
  8
0
 62
1
100
AcDbSpline
 70
8
 71
3
 72
8
 73
4
 74
0
 40
0
 40
0
 40
0
 40
0
 40
1
 40
1
 40
1
 40
1
 10
286.626269
 20
605.254617
 30
0.0
 10
286.591168
 20
605.071493
 30
0.0
 10
286.562762
 20
604.887118
 30
0.0
 10
286.538821
 20
604.702111
 30
0.0
  0
SPLINE
  5
162
100
AcDbEntity
  8
0
 62
1
100
AcDbSpline
 70
8
 71
3
 72
8
 73
4
 74
0
 40
0
 40
0
 40
0
 40
0
 40
1
 40
1
 40
1
 40
1
 10
286.538821
 20
604.702111
 30
0.0
 10
286.514209
 20
604.511912
 30
0.0
 10
286.494316
 20
604.321047
 30
0.0
 10
286.483173
 20
604.129730
 30
0.0
  0
SPLINE
  5
163
100
AcDbEntity
  8
0
 62
1
100
AcDbSpline
 70
8
 71
3
 72
8
 73
4
 74
0
 40
0
 40
0
 40
0
 40
0
 40
1
 40
1
 40
1
 40
1
 10
286.483173
 20
604.129730
 30
0.0
 10
286.471847
 20
603.935273
 30
0.0
 10
286.469561
 20
603.740349
 30
0.0
 10
286.467274
 20
603.545426
 30
0.0
  0
SPLINE
  5
164
100
AcDbEntity
  8
0
 62
1
100
AcDbSpline
 70
8
 71
3
 72
8
 73
4
 74
0
 40
0
 40
0
 40
0
 40
0
 40
1
 40
1
 40
1
 40
1
 10
302.462125
 20
608.653125
 30
0.0
 10
302.350974
 20
608.785594
 30
0.0
 10
302.239823
 20
608.918063
 30
0.0
 10
302.124262
 20
609.046637
 30
0.0
  0
SPLINE
  5
165
100
AcDbEntity
  8
0
 62
1
100
AcDbSpline
 70
8
 71
3
 72
8
 73
4
 74
0
 40
0
 40
0
 40
0
 40
0
 40
1
 40
1
 40
1
 40
1
 10
302.124262
 20
609.046637
 30
0.0
 10
302.010259
 20
609.173478
 30
0.0
 10
301.891967
 20
609.296529
 30
0.0
 10
301.770499
 20
609.416299
 30
0.0
  0
SPLINE
  5
166
100
AcDbEntity
  8
0
 62
1
100
AcDbSpline
 70
8
 71
3
 72
8
 73
4
 74
0
 40
0
 40
0
 40
0
 40
0
 40
1
 40
1
 40
1
 40
1
 10
301.770499
 20
609.416299
 30
0.0
 10
301.650329
 20
609.534790
 30
0.0
 10
301.527052
 20
609.650069
 30
0.0
 10
301.400837
 20
609.762113
 30
0.0
  0
SPLINE
  5
167
100
AcDbEntity
  8
0
 62
1
100
AcDbSpline
 70
8
 71
3
 72
8
 73
4
 74
0
 40
0
 40
0
 40
0
 40
0
 40
1
 40
1
 40
1
 40
1
 10
301.400837
 20
609.762113
 30
0.0
 10
301.275590
 20
609.873296
 30
0.0
 10
301.147449
 20
609.981293
 30
0.0
 10
301.015275
 20
610.084076
 30
0.0
  0
SPLINE
  5
168
100
AcDbEntity
  8
0
 62
1
100
AcDbSpline
 70
8
 71
3
 72
8
 73
4
 74
0
 40
0
 40
0
 40
0
 40
0
 40
1
 40
1
 40
1
 40
1
 10
301.015275
 20
610.084076
 30
0.0
 10
300.883475
 20
610.186570
 30
0.0
 10
300.747665
 20
610.283881
 30
0.0
 10
300.609839
 20
610.378216
 30
0.0
  0
SPLINE
  5
169
100
AcDbEntity
  8
0
 62
1
100
AcDbSpline
 70
8
 71
3
 72
8
 73
4
 74
0
 40
0
 40
0
 40
0
 40
0
 40
1
 40
1
 40
1
 40
1
 10
300.609839
 20
610.378216
 30
0.0
 10
300.473020
 20
610.471863
 30
0.0
 10
300.334214
 20
610.562578
 30
0.0
 10
300.192478
 20
610.648507
 30
0.0
  0
SPLINE
  5
16a
100
AcDbEntity
  8
0
 62
1
100
AcDbSpline
 70
8
 71
3
 72
8
 73
4
 74
0
 40
0
 40
0
 40
0
 40
0
 40
1
 40
1
 40
1
 40
1
 10
300.192478
 20
610.648507
 30
0.0
 10
300.049412
 20
610.735242
 30
0.0
 10
299.903360
 20
610.817101
 30
0.0
 10
299.755244
 20
610.894949
 30
0.0
  0
SPLINE
  5
16b
100
AcDbEntity
  8
0
 62
1
100
AcDbSpline
 70
8
 71
3
 72
8
 73
4
 74
0
 40
0
 40
0
 40
0
 40
0
 40
1
 40
1
 40
1
 40
1
 10
299.755244
 20
610.894949
 30
0.0
 10
299.606256
 20
610.973253
 30
0.0
 10
299.455180
 20
611.047499
 30
0.0
 10
299.302109
 20
611.117541
 30
0.0
  0
SPLINE
  5
16c
100
AcDbEntity
  8
0
 62
1
100
AcDbSpline
 70
8
 71
3
 72
8
 73
4
 74
0
 40
0
 40
0
 40
0
 40
0
 40
1
 40
1
 40
1
 40
1
 10
299.302109
 20
611.117541
 30
0.0
 10
298.994157
 20
611.258451
 30
0.0
 10
298.678130
 20
611.382344
 30
0.0
 10
298.356092
 20
611.487203
 30
0.0
  0
SPLINE
  5
16d
100
AcDbEntity
  8
0
 62
1
100
AcDbSpline
 70
8
 71
3
 72
8
 73
4
 74
0
 40
0
 40
0
 40
0
 40
0
 40
1
 40
1
 40
1
 40
1
 10
298.356092
 20
611.487203
 30
0.0
 10
298.031440
 20
611.592914
 30
0.0
 10
297.700678
 20
611.679281
 30
0.0
 10
297.366350
 20
611.749544
 30
0.0
  0
SPLINE
  5
16e
100
AcDbEntity
  8
0
 62
1
100
AcDbSpline
 70
8
 71
3
 72
8
 73
4
 74
0
 40
0
 40
0
 40
0
 40
0
 40
1
 40
1
 40
1
 40
1
 10
297.366350
 20
611.749544
 30
0.0
 10
297.024935
 20
611.821296
 30
0.0
 10
296.679801
 20
611.876253
 30
0.0
 10
296.332886
 20
611.908538
 30
0.0
  0
SPLINE
  5
16f
100
AcDbEntity
  8
0
 62
1
100
AcDbSpline
 70
8
 71
3
 72
8
 73
4
 74
0
 40
0
 40
0
 40
0
 40
0
 40
1
 40
1
 40
1
 40
1
 10
296.332886
 20
611.908538
 30
0.0
 10
295.973770
 20
611.941959
 30
0.0
 10
295.612746
 20
611.951086
 30
0.0
 10
295.251723
 20
611.960212
 30
0.0
  0
LWPOLYLINE
  5
170
100
AcDbEntity
  8
0
 62
1
100
AcDbPolyline
 90
2
 70
0
 10
302.462125
 20
598.477474
 30
0.0
 10
304.020272
 20
597.296939
 30
0.0
  0
SPLINE
  5
171
100
AcDbEntity
  8
0
 62
1
100
AcDbSpline
 70
8
 71
3
 72
8
 73
4
 74
0
 40
0
 40
0
 40
0
 40
0
 40
1
 40
1
 40
1
 40
1
 10
295.363019
 20
613.995342
 30
0.0
 10
295.591007
 20
613.992609
 30
0.0
 10
295.818994
 20
613.989875
 30
0.0
 10
296.046695
 20
613.979443
 30
0.0
  0
SPLINE
  5
172
100
AcDbEntity
  8
0
 62
1
100
AcDbSpline
 70
8
 71
3
 72
8
 73
4
 74
0
 40
0
 40
0
 40
0
 40
0
 40
1
 40
1
 40
1
 40
1
 10
296.046695
 20
613.979443
 30
0.0
 10
296.269706
 20
613.969225
 30
0.0
 10
296.492442
 20
613.951622
 30
0.0
 10
296.714473
 20
613.927769
 30
0.0
  0
SPLINE
  5
173
100
AcDbEntity
  8
0
 62
1
100
AcDbSpline
 70
8
 71
3
 72
8
 73
4
 74
0
 40
0
 40
0
 40
0
 40
0
 40
1
 40
1
 40
1
 40
1
 10
296.714473
 20
613.927769
 30
0.0
 10
296.931200
 20
613.904487
 30
0.0
 10
297.147255
 20
613.875250
 30
0.0
 10
297.362375
 20
613.840322
 30
0.0
  0
SPLINE
  5
174
100
AcDbEntity
  8
0
 62
1
100
AcDbSpline
 70
8
 71
3
 72
8
 73
4
 74
0
 40
0
 40
0
 40
0
 40
0
 40
1
 40
1
 40
1
 40
1
 10
297.362375
 20
613.840322
 30
0.0
 10
297.574000
 20
613.805963
 30
0.0
 10
297.784720
 20
613.766096
 30
0.0
 10
297.994378
 20
613.721077
 30
0.0
  0
SPLINE
  5
175
100
AcDbEntity
  8
0
 62
1
100
AcDbSpline
 70
8
 71
3
 72
8
 73
4
 74
0
 40
0
 40
0
 40
0
 40
0
 40
1
 40
1
 40
1
 40
1
 10
297.994378
 20
613.721077
 30
0.0
 10
298.201167
 20
613.676674
 30
0.0
 10
298.406923
 20
613.627259
 30
0.0
 10
298.610482
 20
613.570031
 30
0.0
  0
SPLINE
  5
176
100
AcDbEntity
  8
0
 62
1
100
AcDbSpline
 70
8
 71
3
 72
8
 73
4
 74
0
 40
0
 40
0
 40
0
 40
0
 40
1
 40
1
 40
1
 40
1
 10
298.610482
 20
613.570031
 30
0.0
 10
298.812583
 20
613.513215
 30
0.0
 10
299.012518
 20
613.448699
 30
0.0
 10
299.210687
 20
613.379238
 30
0.0
  0
SPLINE
  5
177
100
AcDbEntity
  8
0
 62
1
100
AcDbSpline
 70
8
 71
3
 72
8
 73
4
 74
0
 40
0
 40
0
 40
0
 40
0
 40
1
 40
1
 40
1
 40
1
 10
299.210687
 20
613.379238
 30
0.0
 10
299.407429
 20
613.310278
 30
0.0
 10
299.602431
 20
613.236444
 30
0.0
 10
299.794992
 20
613.156646
 30
0.0
  0
SPLINE
  5
178
100
AcDbEntity
  8
0
 62
1
100
AcDbSpline
 70
8
 71
3
 72
8
 73
4
 74
0
 40
0
 40
0
 40
0
 40
0
 40
1
 40
1
 40
1
 40
1
 10
299.794992
 20
613.156646
 30
0.0
 10
299.985656
 20
613.077634
 30
0.0
 10
300.173929
 20
612.992775
 30
0.0
 10
300.359422
 20
612.902255
 30
0.0
  0
SPLINE
  5
179
100
AcDbEntity
  8
0
 62
1
100
AcDbSpline
 70
8
 71
3
 72
8
 73
4
 74
0
 40
0
 40
0
 40
0
 40
0
 40
1
 40
1
 40
1
 40
1
 10
300.359422
 20
612.902255
 30
0.0
 10
300.543739
 20
612.812309
 30
0.0
 10
300.725312
 20
612.716774
 30
0.0
 10
300.903979
 20
612.616064
 30
0.0
  0
SPLINE
  5
17a
100
AcDbEntity
  8
0
 62
1
100
AcDbSpline
 70
8
 71
3
 72
8
 73
4
 74
0
 40
0
 40
0
 40
0
 40
0
 40
1
 40
1
 40
1
 40
1
 10
300.903979
 20
612.616064
 30
0.0
 10
301.080579
 20
612.516520
 30
0.0
 10
301.254339
 20
612.411921
 30
0.0
 10
301.424686
 20
612.302050
 30
0.0
  0
SPLINE
  5
17b
100
AcDbEntity
  8
0
 62
1
100
AcDbSpline
 70
8
 71
3
 72
8
 73
4
 74
0
 40
0
 40
0
 40
0
 40
0
 40
1
 40
1
 40
1
 40
1
 10
301.424686
 20
612.302050
 30
0.0
 10
301.593640
 20
612.193078
 30
0.0
 10
301.759238
 20
612.078920
 30
0.0
 10
301.921544
 20
611.960212
 30
0.0
  0
SPLINE
  5
17c
100
AcDbEntity
  8
0
 62
1
100
AcDbSpline
 70
8
 71
3
 72
8
 73
4
 74
0
 40
0
 40
0
 40
0
 40
0
 40
1
 40
1
 40
1
 40
1
 10
301.921544
 20
611.960212
 30
0.0
 10
302.081603
 20
611.843147
 30
0.0
 10
302.238461
 20
611.721659
 30
0.0
 10
302.390578
 20
611.594525
 30
0.0
  0
SPLINE
  5
17d
100
AcDbEntity
  8
0
 62
1
100
AcDbSpline
 70
8
 71
3
 72
8
 73
4
 74
0
 40
0
 40
0
 40
0
 40
0
 40
1
 40
1
 40
1
 40
1
 10
302.390578
 20
611.594525
 30
0.0
 10
302.543224
 20
611.466948
 30
0.0
 10
302.691094
 20
611.333687
 30
0.0
 10
302.835763
 20
611.197038
 30
0.0
  0
SPLINE
  5
17e
100
AcDbEntity
  8
0
 62
1
100
AcDbSpline
 70
8
 71
3
 72
8
 73
4
 74
0
 40
0
 40
0
 40
0
 40
0
 40
1
 40
1
 40
1
 40
1
 10
302.835763
 20
611.197038
 30
0.0
 10
302.980200
 20
611.060609
 30
0.0
 10
303.121444
 20
610.920803
 30
0.0
 10
303.257098
 20
610.775702
 30
0.0
  0
SPLINE
  5
17f
100
AcDbEntity
  8
0
 62
1
100
AcDbSpline
 70
8
 71
3
 72
8
 73
4
 74
0
 40
0
 40
0
 40
0
 40
0
 40
1
 40
1
 40
1
 40
1
 10
303.257098
 20
610.775702
 30
0.0
 10
303.393729
 20
610.629557
 30
0.0
 10
303.524688
 20
610.478040
 30
0.0
 10
303.650610
 20
610.322568
 30
0.0
  0
SPLINE
  5
180
100
AcDbEntity
  8
0
 62
1
100
AcDbSpline
 70
8
 71
3
 72
8
 73
4
 74
0
 40
0
 40
0
 40
0
 40
0
 40
1
 40
1
 40
1
 40
1
 10
303.650610
 20
610.322568
 30
0.0
 10
303.777226
 20
610.166240
 30
0.0
 10
303.898749
 20
610.005912
 30
0.0
 10
304.020272
 20
609.845585
 30
0.0
  0
SPLINE
  5
181
100
AcDbEntity
  8
0
 62
1
100
AcDbSpline
 70
8
 71
3
 72
8
 73
4
 74
0
 40
0
 40
0
 40
0
 40
0
 40
1
 40
1
 40
1
 40
1
 10
284.686535
 20
603.680571
 30
0.0
 10
284.695352
 20
604.037483
 30
0.0
 10
284.704168
 20
604.394396
 30
0.0
 10
284.734233
 20
604.749809
 30
0.0
  0
SPLINE
  5
182
100
AcDbEntity
  8
0
 62
1
100
AcDbSpline
 70
8
 71
3
 72
8
 73
4
 74
0
 40
0
 40
0
 40
0
 40
0
 40
1
 40
1
 40
1
 40
1
 10
284.734233
 20
604.749809
 30
0.0
 10
284.763319
 20
605.093649
 30
0.0
 10
284.812292
 20
605.436084
 30
0.0
 10
284.877328
 20
605.775324
 30
0.0
  0
SPLINE
  5
183
100
AcDbEntity
  8
0
 62
1
100
AcDbSpline
 70
8
 71
3
 72
8
 73
4
 74
0
 40
0
 40
0
 40
0
 40
0
 40
1
 40
1
 40
1
 40
1
 10
284.877328
 20
605.775324
 30
0.0
 10
284.940788
 20
606.106338
 30
0.0
 10
285.019543
 20
606.434309
 30
0.0
 10
285.115820
 20
606.757115
 30
0.0
  0
SPLINE
  5
184
100
AcDbEntity
  8
0
 62
1
100
AcDbSpline
 70
8
 71
3
 72
8
 73
4
 74
0
 40
0
 40
0
 40
0
 40
0
 40
1
 40
1
 40
1
 40
1
 10
285.115820
 20
606.757115
 30
0.0
 10
285.210703
 20
607.075249
 30
0.0
 10
285.322604
 20
607.388367
 30
0.0
 10
285.449709
 20
607.695183
 30
0.0
  0
SPLINE
  5
185
100
AcDbEntity
  8
0
 62
1
100
AcDbSpline
 70
8
 71
3
 72
8
 73
4
 74
0
 40
0
 40
0
 40
0
 40
0
 40
1
 40
1
 40
1
 40
1
 10
285.449709
 20
607.695183
 30
0.0
 10
285.576126
 20
608.000337
 30
0.0
 10
285.717584
 20
608.299257
 30
0.0
 10
285.875019
 20
608.589527
 30
0.0
  0
SPLINE
  5
186
100
AcDbEntity
  8
0
 62
1
100
AcDbSpline
 70
8
 71
3
 72
8
 73
4
 74
0
 40
0
 40
0
 40
0
 40
0
 40
1
 40
1
 40
1
 40
1
 10
285.875019
 20
608.589527
 30
0.0
 10
286.034439
 20
608.883458
 30
0.0
 10
286.210242
 20
609.168519
 30
0.0
 10
286.399701
 20
609.444123
 30
0.0
  0
SPLINE
  5
187
100
AcDbEntity
  8
0
 62
1
100
AcDbSpline
 70
8
 71
3
 72
8
 73
4
 74
0
 40
0
 40
0
 40
0
 40
0
 40
1
 40
1
 40
1
 40
1
 10
286.399701
 20
609.444123
 30
0.0
 10
286.591504
 20
609.723138
 30
0.0
 10
286.797305
 20
609.992460
 30
0.0
 10
287.015805
 20
610.251020
 30
0.0
  0
SPLINE
  5
188
100
AcDbEntity
  8
0
 62
1
100
AcDbSpline
 70
8
 71
3
 72
8
 73
4
 74
0
 40
0
 40
0
 40
0
 40
0
 40
1
 40
1
 40
1
 40
1
 10
287.015805
 20
610.251020
 30
0.0
 10
287.241578
 20
610.518188
 30
0.0
 10
287.480911
 20
610.773865
 30
0.0
 10
287.731280
 20
611.018169
 30
0.0
  0
SPLINE
  5
189
100
AcDbEntity
  8
0
 62
1
100
AcDbSpline
 70
8
 71
3
 72
8
 73
4
 74
0
 40
0
 40
0
 40
0
 40
0
 40
1
 40
1
 40
1
 40
1
 10
287.731280
 20
611.018169
 30
0.0
 10
287.982603
 20
611.263403
 30
0.0
 10
288.245047
 20
611.497177
 30
0.0
 10
288.518303
 20
611.717745
 30
0.0
  0
SPLINE
  5
18a
100
AcDbEntity
  8
0
 62
1
100
AcDbSpline
 70
8
 71
3
 72
8
 73
4
 74
0
 40
0
 40
0
 40
0
 40
0
 40
1
 40
1
 40
1
 40
1
 10
288.518303
 20
611.717745
 30
0.0
 10
288.784869
 20
611.932913
 30
0.0
 10
289.061726
 20
612.135512
 30
0.0
 10
289.349050
 20
612.321925
 30
0.0
  0
SPLINE
  5
18b
100
AcDbEntity
  8
0
 62
1
100
AcDbSpline
 70
8
 71
3
 72
8
 73
4
 74
0
 40
0
 40
0
 40
0
 40
0
 40
1
 40
1
 40
1
 40
1
 10
289.349050
 20
612.321925
 30
0.0
 10
289.633962
 20
612.506771
 30
0.0
 10
289.929167
 20
612.675701
 30
0.0
 10
290.231470
 20
612.830707
 30
0.0
  0
SPLINE
  5
18c
100
AcDbEntity
  8
0
 62
1
100
AcDbSpline
 70
8
 71
3
 72
8
 73
4
 74
0
 40
0
 40
0
 40
0
 40
0
 40
1
 40
1
 40
1
 40
1
 10
290.231470
 20
612.830707
 30
0.0
 10
290.534518
 20
612.986096
 30
0.0
 10
290.844699
 20
613.127493
 30
0.0
 10
291.161588
 20
613.252043
 30
0.0
  0
SPLINE
  5
18d
100
AcDbEntity
  8
0
 62
1
100
AcDbSpline
 70
8
 71
3
 72
8
 73
4
 74
0
 40
0
 40
0
 40
0
 40
0
 40
1
 40
1
 40
1
 40
1
 10
291.161588
 20
613.252043
 30
0.0
 10
291.481460
 20
613.377764
 30
0.0
 10
291.808166
 20
613.486320
 30
0.0
 10
292.139405
 20
613.577981
 30
0.0
  0
SPLINE
  5
18e
100
AcDbEntity
  8
0
 62
1
100
AcDbSpline
 70
8
 71
3
 72
8
 73
4
 74
0
 40
0
 40
0
 40
0
 40
0
 40
1
 40
1
 40
1
 40
1
 10
292.139405
 20
613.577981
 30
0.0
 10
292.477198
 20
613.671457
 30
0.0
 10
292.819704
 20
613.747363
 30
0.0
 10
293.164919
 20
613.808524
 30
0.0
  0
SPLINE
  5
18f
100
AcDbEntity
  8
0
 62
1
100
AcDbSpline
 70
8
 71
3
 72
8
 73
4
 74
0
 40
0
 40
0
 40
0
 40
0
 40
1
 40
1
 40
1
 40
1
 10
293.164919
 20
613.808524
 30
0.0
 10
293.521638
 20
613.871722
 30
0.0
 10
293.881249
 20
613.919177
 30
0.0
 10
294.242107
 20
613.947644
 30
0.0
  0
SPLINE
  5
190
100
AcDbEntity
  8
0
 62
1
100
AcDbSpline
 70
8
 71
3
 72
8
 73
4
 74
0
 40
0
 40
0
 40
0
 40
0
 40
1
 40
1
 40
1
 40
1
 10
294.242107
 20
613.947644
 30
0.0
 10
294.614858
 20
613.977049
 30
0.0
 10
294.988938
 20
613.986196
 30
0.0
 10
295.363019
 20
613.995342
 30
0.0
  0
LWPOLYLINE
  5
191
100
AcDbEntity
  8
0
 62
1
100
AcDbPolyline
 90
2
 70
0
 10
304.020272
 20
609.845585
 30
0.0
 10
302.462125
 20
608.653125
 30
0.0
  0
LWPOLYLINE
  5
192
100
AcDbEntity
  8
0
 62
1
100
AcDbPolyline
 90
2
 70
0
 10
319.283749
 20
595.679170
 30
0.0
 10
319.283749
 20
593.644040
 30
0.0
  0
LWPOLYLINE
  5
193
100
AcDbEntity
  8
0
 62
1
100
AcDbPolyline
 90
2
 70
0
 10
309.871271
 20
595.679170
 30
0.0
 10
319.283749
 20
595.679170
 30
0.0
  0
LWPOLYLINE
  5
194
100
AcDbEntity
  8
0
 62
1
100
AcDbPolyline
 90
2
 70
0
 10
309.871271
 20
603.310908
 30
0.0
 10
309.871271
 20
595.679170
 30
0.0
  0
LWPOLYLINE
  5
195
100
AcDbEntity
  8
0
 62
1
100
AcDbPolyline
 90
2
 70
0
 10
319.283749
 20
603.310908
 30
0.0
 10
309.871271
 20
603.310908
 30
0.0
  0
LWPOLYLINE
  5
196
100
AcDbEntity
  8
0
 62
1
100
AcDbPolyline
 90
2
 70
0
 10
319.283749
 20
605.346038
 30
0.0
 10
319.283749
 20
603.310908
 30
0.0
  0
LWPOLYLINE
  5
197
100
AcDbEntity
  8
0
 62
1
100
AcDbPolyline
 90
2
 70
0
 10
309.871271
 20
605.346038
 30
0.0
 10
319.283749
 20
605.346038
 30
0.0
  0
LWPOLYLINE
  5
198
100
AcDbEntity
  8
0
 62
1
100
AcDbPolyline
 90
2
 70
0
 10
309.871271
 20
611.451429
 30
0.0
 10
309.871271
 20
605.346038
 30
0.0
  0
LWPOLYLINE
  5
199
100
AcDbEntity
  8
0
 62
1
100
AcDbPolyline
 90
2
 70
0
 10
319.283749
 20
611.451429
 30
0.0
 10
309.871271
 20
611.451429
 30
0.0
  0
LWPOLYLINE
  5
19a
100
AcDbEntity
  8
0
 62
1
100
AcDbPolyline
 90
2
 70
0
 10
319.283749
 20
613.486559
 30
0.0
 10
319.283749
 20
611.451429
 30
0.0
  0
LWPOLYLINE
  5
19b
100
AcDbEntity
  8
0
 62
1
100
AcDbPolyline
 90
2
 70
0
 10
308.090533
 20
613.486559
 30
0.0
 10
319.283749
 20
613.486559
 30
0.0
  0
LWPOLYLINE
  5
19c
100
AcDbEntity
  8
0
 62
1
100
AcDbPolyline
 90
2
 70
0
 10
308.090533
 20
593.644040
 30
0.0
 10
308.090533
 20
613.486559
 30
0.0
  0
LWPOLYLINE
  5
19d
100
AcDbEntity
  8
0
 62
1
100
AcDbPolyline
 90
2
 70
0
 10
319.283749
 20
593.644040
 30
0.0
 10
308.090533
 20
593.644040
 30
0.0
  0
LWPOLYLINE
  5
19e
100
AcDbEntity
  8
0
 62
1
100
AcDbPolyline
 90
2
 70
0
 10
334.801617
 20
593.644040
 30
0.0
 10
334.801617
 20
611.451429
 30
0.0
  0
LWPOLYLINE
  5
19f
100
AcDbEntity
  8
0
 62
1
100
AcDbPolyline
 90
2
 70
0
 10
336.582356
 20
593.644040
 30
0.0
 10
334.801617
 20
593.644040
 30
0.0
  0
LWPOLYLINE
  5
1a0
100
AcDbEntity
  8
0
 62
1
100
AcDbPolyline
 90
2
 70
0
 10
336.582356
 20
613.486559
 30
0.0
 10
336.582356
 20
593.644040
 30
0.0
  0
LWPOLYLINE
  5
1a1
100
AcDbEntity
  8
0
 62
1
100
AcDbPolyline
 90
2
 70
0
 10
332.913557
 20
613.486559
 30
0.0
 10
336.582356
 20
613.486559
 30
0.0
  0
LWPOLYLINE
  5
1a2
100
AcDbEntity
  8
0
 62
1
100
AcDbPolyline
 90
2
 70
0
 10
331.748921
 20
611.451429
 30
0.0
 10
332.913557
 20
613.486559
 30
0.0
  0
LWPOLYLINE
  5
1a3
100
AcDbEntity
  8
0
 62
1
100
AcDbPolyline
 90
2
 70
0
 10
334.801617
 20
611.451429
 30
0.0
 10
331.748921
 20
611.451429
 30
0.0
  0
LWPOLYLINE
  5
1a4
100
AcDbEntity
  8
0
 62
1
100
AcDbPolyline
 90
2
 70
0
 10
350.065093
 20
593.644040
 30
0.0
 10
350.065093
 20
611.451429
 30
0.0
  0
LWPOLYLINE
  5
1a5
100
AcDbEntity
  8
0
 62
1
100
AcDbPolyline
 90
2
 70
0
 10
351.845832
 20
593.644040
 30
0.0
 10
350.065093
 20
593.644040
 30
0.0
  0
LWPOLYLINE
  5
1a6
100
AcDbEntity
  8
0
 62
1
100
AcDbPolyline
 90
2
 70
0
 10
351.845832
 20
613.486559
 30
0.0
 10
351.845832
 20
593.644040
 30
0.0
  0
LWPOLYLINE
  5
1a7
100
AcDbEntity
  8
0
 62
1
100
AcDbPolyline
 90
2
 70
0
 10
348.177033
 20
613.486559
 30
0.0
 10
351.845832
 20
613.486559
 30
0.0
  0
LWPOLYLINE
  5
1a8
100
AcDbEntity
  8
0
 62
1
100
AcDbPolyline
 90
2
 70
0
 10
347.012398
 20
611.451429
 30
0.0
 10
348.177033
 20
613.486559
 30
0.0
  0
SPLINE
  5
1a9
100
AcDbEntity
  8
0
 62
1
100
AcDbSpline
 70
8
 71
3
 72
8
 73
4
 74
0
 40
0
 40
0
 40
0
 40
0
 40
1
 40
1
 40
1
 40
1
 10
365.885051
 20
604.582865
 30
0.0
 10
365.731249
 20
604.579574
 30
0.0
 10
365.577448
 20
604.576282
 30
0.0
 10
365.423967
 20
604.566965
 30
0.0
  0
SPLINE
  5
1aa
100
AcDbEntity
  8
0
 62
1
100
AcDbSpline
 70
8
 71
3
 72
8
 73
4
 74
0
 40
0
 40
0
 40
0
 40
0
 40
1
 40
1
 40
1
 40
1
 10
365.423967
 20
604.566965
 30
0.0
 10
365.260549
 20
604.557046
 30
0.0
 10
365.097495
 20
604.540296
 30
0.0
 10
364.935059
 20
604.519267
 30
0.0
  0
SPLINE
  5
1ab
100
AcDbEntity
  8
0
 62
1
100
AcDbSpline
 70
8
 71
3
 72
8
 73
4
 74
0
 40
0
 40
0
 40
0
 40
0
 40
1
 40
1
 40
1
 40
1
 10
364.935059
 20
604.519267
 30
0.0
 10
364.764776
 20
604.497222
 30
0.0
 10
364.595172
 20
604.470476
 30
0.0
 10
364.426276
 20
604.439770
 30
0.0
  0
SPLINE
  5
1ac
100
AcDbEntity
  8
0
 62
1
100
AcDbSpline
 70
8
 71
3
 72
8
 73
4
 74
0
 40
0
 40
0
 40
0
 40
0
 40
1
 40
1
 40
1
 40
1
 10
364.426276
 20
604.439770
 30
0.0
 10
364.246533
 20
604.407092
 30
0.0
 10
364.067592
 20
604.369931
 30
0.0
 10
363.889669
 20
604.328474
 30
0.0
  0
SPLINE
  5
1ad
100
AcDbEntity
  8
0
 62
1
100
AcDbSpline
 70
8
 71
3
 72
8
 73
4
 74
0
 40
0
 40
0
 40
0
 40
0
 40
1
 40
1
 40
1
 40
1
 10
363.889669
 20
604.328474
 30
0.0
 10
363.703124
 20
604.285007
 30
0.0
 10
363.517699
 20
604.236815
 30
0.0
 10
363.333188
 20
604.185379
 30
0.0
  0
SPLINE
  5
1ae
100
AcDbEntity
  8
0
 62
1
100
AcDbSpline
 70
8
 71
3
 72
8
 73
4
 74
0
 40
0
 40
0
 40
0
 40
0
 40
1
 40
1
 40
1
 40
1
 10
363.333188
 20
604.185379
 30
0.0
 10
363.137332
 20
604.130779
 30
0.0
 10
362.942505
 20
604.072523
 30
0.0
 10
362.748884
 20
604.010485
 30
0.0
  0
SPLINE
  5
1af
100
AcDbEntity
  8
0
 62
1
100
AcDbSpline
 70
8
 71
3
 72
8
 73
4
 74
0
 40
0
 40
0
 40
0
 40
0
 40
1
 40
1
 40
1
 40
1
 10
362.748884
 20
604.010485
 30
0.0
 10
362.546171
 20
603.945533
 30
0.0
 10
362.344778
 20
603.876437
 30
0.0
 10
362.144704
 20
603.803792
 30
0.0
  0
SPLINE
  5
1b0
100
AcDbEntity
  8
0
 62
1
100
AcDbSpline
 70
8
 71
3
 72
8
 73
4
 74
0
 40
0
 40
0
 40
0
 40
0
 40
1
 40
1
 40
1
 40
1
 10
362.144704
 20
603.803792
 30
0.0
 10
361.933053
 20
603.726942
 30
0.0
 10
361.722877
 20
603.646121
 30
0.0
 10
361.512701
 20
603.565300
 30
0.0
  0
SPLINE
  5
1b1
100
AcDbEntity
  8
0
 62
1
100
AcDbSpline
 70
8
 71
3
 72
8
 73
4
 74
0
 40
0
 40
0
 40
0
 40
0
 40
1
 40
1
 40
1
 40
1
 10
370.670787
 20
600.202565
 30
0.0
 10
370.667054
 20
600.361735
 30
0.0
 10
370.663321
 20
600.520904
 30
0.0
 10
370.650913
 20
600.679549
 30
0.0
  0
SPLINE
  5
1b2
100
AcDbEntity
  8
0
 62
1
100
AcDbSpline
 70
8
 71
3
 72
8
 73
4
 74
0
 40
0
 40
0
 40
0
 40
0
 40
1
 40
1
 40
1
 40
1
 10
370.650913
 20
600.679549
 30
0.0
 10
370.639033
 20
600.831428
 30
0.0
 10
370.619203
 20
600.982826
 30
0.0
 10
370.591290
 20
601.132683
 30
0.0
  0
SPLINE
  5
1b3
100
AcDbEntity
  8
0
 62
1
100
AcDbSpline
 70
8
 71
3
 72
8
 73
4
 74
0
 40
0
 40
0
 40
0
 40
0
 40
1
 40
1
 40
1
 40
1
 10
370.591290
 20
601.132683
 30
0.0
 10
370.564322
 20
601.277461
 30
0.0
 10
370.529808
 20
601.420800
 30
0.0
 10
370.487943
 20
601.561968
 30
0.0
  0
SPLINE
  5
1b4
100
AcDbEntity
  8
0
 62
1
100
AcDbSpline
 70
8
 71
3
 72
8
 73
4
 74
0
 40
0
 40
0
 40
0
 40
0
 40
1
 40
1
 40
1
 40
1
 10
370.487943
 20
601.561968
 30
0.0
 10
370.447178
 20
601.699427
 30
0.0
 10
370.399443
 20
601.834826
 30
0.0
 10
370.344848
 20
601.967405
 30
0.0
  0
SPLINE
  5
1b5
100
AcDbEntity
  8
0
 62
1
100
AcDbSpline
 70
8
 71
3
 72
8
 73
4
 74
0
 40
0
 40
0
 40
0
 40
0
 40
1
 40
1
 40
1
 40
1
 10
370.344848
 20
601.967405
 30
0.0
 10
370.290663
 20
602.098987
 30
0.0
 10
370.229720
 20
602.227790
 30
0.0
 10
370.162004
 20
602.352966
 30
0.0
  0
SPLINE
  5
1b6
100
AcDbEntity
  8
0
 62
1
100
AcDbSpline
 70
8
 71
3
 72
8
 73
4
 74
0
 40
0
 40
0
 40
0
 40
0
 40
1
 40
1
 40
1
 40
1
 10
370.162004
 20
602.352966
 30
0.0
 10
370.094606
 20
602.477555
 30
0.0
 10
370.020498
 20
602.598549
 30
0.0
 10
369.939412
 20
602.714679
 30
0.0
  0
SPLINE
  5
1b7
100
AcDbEntity
  8
0
 62
1
100
AcDbSpline
 70
8
 71
3
 72
8
 73
4
 74
0
 40
0
 40
0
 40
0
 40
0
 40
1
 40
1
 40
1
 40
1
 10
369.939412
 20
602.714679
 30
0.0
 10
369.857279
 20
602.832309
 30
0.0
 10
369.767986
 20
602.944947
 30
0.0
 10
369.673096
 20
603.052542
 30
0.0
  0
SPLINE
  5
1b8
100
AcDbEntity
  8
0
 62
1
100
AcDbSpline
 70
8
 71
3
 72
8
 73
4
 74
0
 40
0
 40
0
 40
0
 40
0
 40
1
 40
1
 40
1
 40
1
 10
369.673096
 20
603.052542
 30
0.0
 10
369.576377
 20
603.162212
 30
0.0
 10
369.473844
 20
603.266642
 30
0.0
 10
369.367031
 20
603.366557
 30
0.0
  0
SPLINE
  5
1b9
100
AcDbEntity
  8
0
 62
1
100
AcDbSpline
 70
8
 71
3
 72
8
 73
4
 74
0
 40
0
 40
0
 40
0
 40
0
 40
1
 40
1
 40
1
 40
1
 10
369.367031
 20
603.366557
 30
0.0
 10
369.259175
 20
603.467447
 30
0.0
 10
369.146956
 20
603.563735
 30
0.0
 10
369.029168
 20
603.652747
 30
0.0
  0
SPLINE
  5
1ba
100
AcDbEntity
  8
0
 62
1
100
AcDbSpline
 70
8
 71
3
 72
8
 73
4
 74
0
 40
0
 40
0
 40
0
 40
0
 40
1
 40
1
 40
1
 40
1
 10
369.029168
 20
603.652747
 30
0.0
 10
368.910982
 20
603.742060
 30
0.0
 10
368.787190
 20
603.824048
 30
0.0
 10
368.659506
 20
603.899189
 30
0.0
  0
SPLINE
  5
1bb
100
AcDbEntity
  8
0
 62
1
100
AcDbSpline
 70
8
 71
3
 72
8
 73
4
 74
0
 40
0
 40
0
 40
0
 40
0
 40
1
 40
1
 40
1
 40
1
 10
368.659506
 20
603.899189
 30
0.0
 10
368.531761
 20
603.974364
 30
0.0
 10
368.400120
 20
604.042684
 30
0.0
 10
368.265994
 20
604.105881
 30
0.0
  0
SPLINE
  5
1bc
100
AcDbEntity
  8
0
 62
1
100
AcDbSpline
 70
8
 71
3
 72
8
 73
4
 74
0
 40
0
 40
0
 40
0
 40
0
 40
1
 40
1
 40
1
 40
1
 10
368.265994
 20
604.105881
 30
0.0
 10
368.128338
 20
604.170743
 30
0.0
 10
367.988065
 20
604.230208
 30
0.0
 10
367.844659
 20
604.280775
 30
0.0
  0
SPLINE
  5
1bd
100
AcDbEntity
  8
0
 62
1
100
AcDbSpline
 70
8
 71
3
 72
8
 73
4
 74
0
 40
0
 40
0
 40
0
 40
0
 40
1
 40
1
 40
1
 40
1
 10
367.844659
 20
604.280775
 30
0.0
 10
367.697566
 20
604.332642
 30
0.0
 10
367.547177
 20
604.375147
 30
0.0
 10
367.395499
 20
604.411946
 30
0.0
  0
SPLINE
  5
1be
100
AcDbEntity
  8
0
 62
1
100
AcDbSpline
 70
8
 71
3
 72
8
 73
4
 74
0
 40
0
 40
0
 40
0
 40
0
 40
1
 40
1
 40
1
 40
1
 10
367.395499
 20
604.411946
 30
0.0
 10
367.237821
 20
604.450200
 30
0.0
 10
367.078749
 20
604.482288
 30
0.0
 10
366.918515
 20
604.507343
 30
0.0
  0
SPLINE
  5
1bf
100
AcDbEntity
  8
0
 62
1
100
AcDbSpline
 70
8
 71
3
 72
8
 73
4
 74
0
 40
0
 40
0
 40
0
 40
0
 40
1
 40
1
 40
1
 40
1
 10
366.918515
 20
604.507343
 30
0.0
 10
366.752522
 20
604.533298
 30
0.0
 10
366.585283
 20
604.551705
 30
0.0
 10
366.417683
 20
604.562990
 30
0.0
  0
SPLINE
  5
1c0
100
AcDbEntity
  8
0
 62
1
100
AcDbSpline
 70
8
 71
3
 72
8
 73
4
 74
0
 40
0
 40
0
 40
0
 40
0
 40
1
 40
1
 40
1
 40
1
 10
366.417683
 20
604.562990
 30
0.0
 10
366.240408
 20
604.574927
 30
0.0
 10
366.062729
 20
604.578896
 30
0.0
 10
365.885051
 20
604.582865
 30
0.0
  0
SPLINE
  5
1c1
100
AcDbEntity
  8
0
 62
1
100
AcDbSpline
 70
8
 71
3
 72
8
 73
4
 74
0
 40
0
 40
0
 40
0
 40
0
 40
1
 40
1
 40
1
 40
1
 10
365.634635
 20
595.170388
 30
0.0
 10
365.804478
 20
595.175041
 30
0.0
 10
365.974321
 20
595.179694
 30
0.0
 10
366.143417
 20
595.194237
 30
0.0
  0
SPLINE
  5
1c2
100
AcDbEntity
  8
0
 62
1
100
AcDbSpline
 70
8
 71
3
 72
8
 73
4
 74
0
 40
0
 40
0
 40
0
 40
0
 40
1
 40
1
 40
1
 40
1
 10
366.143417
 20
595.194237
 30
0.0
 10
366.307273
 20
595.208329
 30
0.0
 10
366.470427
 20
595.231707
 30
0.0
 10
366.632325
 20
595.261809
 30
0.0
  0
SPLINE
  5
1c3
100
AcDbEntity
  8
0
 62
1
100
AcDbSpline
 70
8
 71
3
 72
8
 73
4
 74
0
 40
0
 40
0
 40
0
 40
0
 40
1
 40
1
 40
1
 40
1
 10
366.632325
 20
595.261809
 30
0.0
 10
366.791721
 20
595.291447
 30
0.0
 10
366.949899
 20
595.327602
 30
0.0
 10
367.105334
 20
595.373105
 30
0.0
  0
SPLINE
  5
1c4
100
AcDbEntity
  8
0
 62
1
100
AcDbSpline
 70
8
 71
3
 72
8
 73
4
 74
0
 40
0
 40
0
 40
0
 40
0
 40
1
 40
1
 40
1
 40
1
 10
367.105334
 20
595.373105
 30
0.0
 10
367.258944
 20
595.418075
 30
0.0
 10
367.409875
 20
595.472173
 30
0.0
 10
367.558469
 20
595.532100
 30
0.0
  0
SPLINE
  5
1c5
100
AcDbEntity
  8
0
 62
1
100
AcDbSpline
 70
8
 71
3
 72
8
 73
4
 74
0
 40
0
 40
0
 40
0
 40
0
 40
1
 40
1
 40
1
 40
1
 10
367.558469
 20
595.532100
 30
0.0
 10
367.705963
 20
595.591585
 30
0.0
 10
367.851155
 20
595.656812
 30
0.0
 10
367.991729
 20
595.730843
 30
0.0
  0
SPLINE
  5
1c6
100
AcDbEntity
  8
0
 62
1
100
AcDbSpline
 70
8
 71
3
 72
8
 73
4
 74
0
 40
0
 40
0
 40
0
 40
0
 40
1
 40
1
 40
1
 40
1
 10
367.991729
 20
595.730843
 30
0.0
 10
368.135267
 20
595.806436
 30
0.0
 10
368.273990
 20
595.891206
 30
0.0
 10
368.409089
 20
595.981260
 30
0.0
  0
SPLINE
  5
1c7
100
AcDbEntity
  8
0
 62
1
100
AcDbSpline
 70
8
 71
3
 72
8
 73
4
 74
0
 40
0
 40
0
 40
0
 40
0
 40
1
 40
1
 40
1
 40
1
 10
368.409089
 20
595.981260
 30
0.0
 10
368.545690
 20
596.072314
 30
0.0
 10
368.678588
 20
596.168768
 30
0.0
 10
368.806576
 20
596.271425
 30
0.0
  0
SPLINE
  5
1c8
100
AcDbEntity
  8
0
 62
1
100
AcDbSpline
 70
8
 71
3
 72
8
 73
4
 74
0
 40
0
 40
0
 40
0
 40
0
 40
1
 40
1
 40
1
 40
1
 10
368.806576
 20
596.271425
 30
0.0
 10
368.939124
 20
596.377739
 30
0.0
 10
369.066407
 20
596.490706
 30
0.0
 10
369.188163
 20
596.609288
 30
0.0
  0
SPLINE
  5
1c9
100
AcDbEntity
  8
0
 62
1
100
AcDbSpline
 70
8
 71
3
 72
8
 73
4
 74
0
 40
0
 40
0
 40
0
 40
0
 40
1
 40
1
 40
1
 40
1
 10
369.188163
 20
596.609288
 30
0.0
 10
369.309091
 20
596.727064
 30
0.0
 10
369.424567
 20
596.850380
 30
0.0
 10
369.533976
 20
596.978951
 30
0.0
  0
SPLINE
  5
1ca
100
AcDbEntity
  8
0
 62
1
100
AcDbSpline
 70
8
 71
3
 72
8
 73
4
 74
0
 40
0
 40
0
 40
0
 40
0
 40
1
 40
1
 40
1
 40
1
 10
369.533976
 20
596.978951
 30
0.0
 10
369.641201
 20
597.104954
 30
0.0
 10
369.742597
 20
597.236005
 30
0.0
 10
369.836066
 20
597.372462
 30
0.0
  0
SPLINE
  5
1cb
100
AcDbEntity
  8
0
 62
1
100
AcDbSpline
 70
8
 71
3
 72
8
 73
4
 74
0
 40
0
 40
0
 40
0
 40
0
 40
1
 40
1
 40
1
 40
1
 10
369.836066
 20
597.372462
 30
0.0
 10
369.928156
 20
597.506907
 30
0.0
 10
370.012550
 20
597.646601
 30
0.0
 10
370.090456
 20
597.789823
 30
0.0
  0
SPLINE
  5
1cc
100
AcDbEntity
  8
0
 62
1
100
AcDbSpline
 70
8
 71
3
 72
8
 73
4
 74
0
 40
0
 40
0
 40
0
 40
0
 40
1
 40
1
 40
1
 40
1
 10
370.090456
 20
597.789823
 30
0.0
 10
370.167815
 20
597.932036
 30
0.0
 10
370.238776
 20
598.077728
 30
0.0
 10
370.301125
 20
598.227058
 30
0.0
  0
SPLINE
  5
1cd
100
AcDbEntity
  8
0
 62
1
100
AcDbSpline
 70
8
 71
3
 72
8
 73
4
 74
0
 40
0
 40
0
 40
0
 40
0
 40
1
 40
1
 40
1
 40
1
 10
370.301125
 20
598.227058
 30
0.0
 10
370.363948
 20
598.377524
 30
0.0
 10
370.418028
 20
598.531684
 30
0.0
 10
370.464094
 20
598.688142
 30
0.0
  0
SPLINE
  5
1ce
100
AcDbEntity
  8
0
 62
1
100
AcDbSpline
 70
8
 71
3
 72
8
 73
4
 74
0
 40
0
 40
0
 40
0
 40
0
 40
1
 40
1
 40
1
 40
1
 10
370.464094
 20
598.688142
 30
0.0
 10
370.510682
 20
598.846373
 30
0.0
 10
370.549072
 20
599.006956
 30
0.0
 10
370.579365
 20
599.169101
 30
0.0
  0
SPLINE
  5
1cf
100
AcDbEntity
  8
0
 62
1
100
AcDbSpline
 70
8
 71
3
 72
8
 73
4
 74
0
 40
0
 40
0
 40
0
 40
0
 40
1
 40
1
 40
1
 40
1
 10
370.579365
 20
599.169101
 30
0.0
 10
370.610560
 20
599.336075
 30
0.0
 10
370.633166
 20
599.504706
 30
0.0
 10
370.646938
 20
599.673908
 30
0.0
  0
SPLINE
  5
1d0
100
AcDbEntity
  8
0
 62
1
100
AcDbSpline
 70
8
 71
3
 72
8
 73
4
 74
0
 40
0
 40
0
 40
0
 40
0
 40
1
 40
1
 40
1
 40
1
 10
370.646938
 20
599.673908
 30
0.0
 10
370.661247
 20
599.849716
 30
0.0
 10
370.666017
 20
600.026141
 30
0.0
 10
370.670787
 20
600.202565
 30
0.0
  0
SPLINE
  5
1d1
100
AcDbEntity
  8
0
 62
1
100
AcDbSpline
 70
8
 71
3
 72
8
 73
4
 74
0
 40
0
 40
0
 40
0
 40
0
 40
1
 40
1
 40
1
 40
1
 10
361.258309
 20
598.731866
 30
0.0
 10
361.302125
 20
598.542644
 30
0.0
 10
361.345940
 20
598.353424
 30
0.0
 10
361.401405
 20
598.167435
 30
0.0
  0
SPLINE
  5
1d2
100
AcDbEntity
  8
0
 62
1
100
AcDbSpline
 70
8
 71
3
 72
8
 73
4
 74
0
 40
0
 40
0
 40
0
 40
0
 40
1
 40
1
 40
1
 40
1
 10
361.401405
 20
598.167435
 30
0.0
 10
361.452546
 20
597.995942
 30
0.0
 10
361.513591
 20
597.827198
 30
0.0
 10
361.584248
 20
597.662627
 30
0.0
  0
SPLINE
  5
1d3
100
AcDbEntity
  8
0
 62
1
100
AcDbSpline
 70
8
 71
3
 72
8
 73
4
 74
0
 40
0
 40
0
 40
0
 40
0
 40
1
 40
1
 40
1
 40
1
 10
361.584248
 20
597.662627
 30
0.0
 10
361.650921
 20
597.507338
 30
0.0
 10
361.726154
 20
597.355765
 30
0.0
 10
361.810816
 20
597.209492
 30
0.0
  0
SPLINE
  5
1d4
100
AcDbEntity
  8
0
 62
1
100
AcDbSpline
 70
8
 71
3
 72
8
 73
4
 74
0
 40
0
 40
0
 40
0
 40
0
 40
1
 40
1
 40
1
 40
1
 10
361.810816
 20
597.209492
 30
0.0
 10
361.890771
 20
597.071352
 30
0.0
 10
361.979137
 20
596.937940
 30
0.0
 10
362.077132
 20
596.812007
 30
0.0
  0
SPLINE
  5
1d5
100
AcDbEntity
  8
0
 62
1
100
AcDbSpline
 70
8
 71
3
 72
8
 73
4
 74
0
 40
0
 40
0
 40
0
 40
0
 40
1
 40
1
 40
1
 40
1
 10
362.077132
 20
596.812007
 30
0.0
 10
362.173406
 20
596.688282
 30
0.0
 10
362.278975
 20
596.571776
 30
0.0
 10
362.391145
 20
596.462219
 30
0.0
  0
SPLINE
  5
1d6
100
AcDbEntity
  8
0
 62
1
100
AcDbSpline
 70
8
 71
3
 72
8
 73
4
 74
0
 40
0
 40
0
 40
0
 40
0
 40
1
 40
1
 40
1
 40
1
 10
362.391145
 20
596.462219
 30
0.0
 10
362.505450
 20
596.350577
 30
0.0
 10
362.626609
 20
596.246151
 30
0.0
 10
362.752859
 20
596.148204
 30
0.0
  0
SPLINE
  5
1d7
100
AcDbEntity
  8
0
 62
1
100
AcDbSpline
 70
8
 71
3
 72
8
 73
4
 74
0
 40
0
 40
0
 40
0
 40
0
 40
1
 40
1
 40
1
 40
1
 10
362.752859
 20
596.148204
 30
0.0
 10
362.883919
 20
596.046524
 30
0.0
 10
363.020462
 20
595.951827
 30
0.0
 10
363.162269
 20
595.865989
 30
0.0
  0
SPLINE
  5
1d8
100
AcDbEntity
  8
0
 62
1
100
AcDbSpline
 70
8
 71
3
 72
8
 73
4
 74
0
 40
0
 40
0
 40
0
 40
0
 40
1
 40
1
 40
1
 40
1
 10
363.162269
 20
595.865989
 30
0.0
 10
363.309831
 20
595.776667
 30
0.0
 10
363.463092
 20
595.696936
 30
0.0
 10
363.619378
 20
595.623522
 30
0.0
  0
SPLINE
  5
1d9
100
AcDbEntity
  8
0
 62
1
100
AcDbSpline
 70
8
 71
3
 72
8
 73
4
 74
0
 40
0
 40
0
 40
0
 40
0
 40
1
 40
1
 40
1
 40
1
 10
363.619378
 20
595.623522
 30
0.0
 10
363.777673
 20
595.549165
 30
0.0
 10
363.939071
 20
595.481288
 30
0.0
 10
364.104312
 20
595.424779
 30
0.0
  0
SPLINE
  5
1da
100
AcDbEntity
  8
0
 62
1
100
AcDbSpline
 70
8
 71
3
 72
8
 73
4
 74
0
 40
0
 40
0
 40
0
 40
0
 40
1
 40
1
 40
1
 40
1
 10
364.104312
 20
595.424779
 30
0.0
 10
364.268203
 20
595.368731
 30
0.0
 10
364.435873
 20
595.323868
 30
0.0
 10
364.605145
 20
595.285658
 30
0.0
  0
SPLINE
  5
1db
100
AcDbEntity
  8
0
 62
1
100
AcDbSpline
 70
8
 71
3
 72
8
 73
4
 74
0
 40
0
 40
0
 40
0
 40
0
 40
1
 40
1
 40
1
 40
1
 10
364.605145
 20
595.285658
 30
0.0
 10
364.773259
 20
595.247711
 30
0.0
 10
364.942954
 20
595.216328
 30
0.0
 10
365.113928
 20
595.198211
 30
0.0
  0
SPLINE
  5
1dc
100
AcDbEntity
  8
0
 62
1
100
AcDbSpline
 70
8
 71
3
 72
8
 73
4
 74
0
 40
0
 40
0
 40
0
 40
0
 40
1
 40
1
 40
1
 40
1
 10
365.113928
 20
595.198211
 30
0.0
 10
365.286626
 20
595.179913
 30
0.0
 10
365.460630
 20
595.175150
 30
0.0
 10
365.634635
 20
595.170388
 30
0.0
  0
LWPOLYLINE
  5
1dd
100
AcDbEntity
  8
0
 62
1
100
AcDbPolyline
 90
2
 70
0
 10
350.065093
 20
611.451429
 30
0.0
 10
347.012398
 20
611.451429
 30
0.0
  0
SPLINE
  5
1de
100
AcDbEntity
  8
0
 62
1
100
AcDbSpline
 70
8
 71
3
 72
8
 73
4
 74
0
 40
0
 40
0
 40
0
 40
0
 40
1
 40
1
 40
1
 40
1
 10
365.531288
 20
593.135258
 30
0.0
 10
365.333576
 20
593.139174
 30
0.0
 10
365.135864
 20
593.143091
 30
0.0
 10
364.939033
 20
593.159107
 30
0.0
  0
SPLINE
  5
1df
100
AcDbEntity
  8
0
 62
1
100
AcDbSpline
 70
8
 71
3
 72
8
 73
4
 74
0
 40
0
 40
0
 40
0
 40
0
 40
1
 40
1
 40
1
 40
1
 10
364.939033
 20
593.159107
 30
0.0
 10
364.748623
 20
593.174600
 30
0.0
 10
364.559036
 20
593.201417
 30
0.0
 10
364.370628
 20
593.234629
 30
0.0
  0
SPLINE
  5
1e0
100
AcDbEntity
  8
0
 62
1
100
AcDbSpline
 70
8
 71
3
 72
8
 73
4
 74
0
 40
0
 40
0
 40
0
 40
0
 40
1
 40
1
 40
1
 40
1
 10
364.370628
 20
593.234629
 30
0.0
 10
364.187457
 20
593.266918
 30
0.0
 10
364.005400
 20
593.305251
 30
0.0
 10
363.826072
 20
593.353875
 30
0.0
  0
SPLINE
  5
1e1
100
AcDbEntity
  8
0
 62
1
100
AcDbSpline
 70
8
 71
3
 72
8
 73
4
 74
0
 40
0
 40
0
 40
0
 40
0
 40
1
 40
1
 40
1
 40
1
 10
363.826072
 20
593.353875
 30
0.0
 10
363.649773
 20
593.401677
 30
0.0
 10
363.476113
 20
593.459425
 30
0.0
 10
363.305365
 20
593.524794
 30
0.0
  0
SPLINE
  5
1e2
100
AcDbEntity
  8
0
 62
1
100
AcDbSpline
 70
8
 71
3
 72
8
 73
4
 74
0
 40
0
 40
0
 40
0
 40
0
 40
1
 40
1
 40
1
 40
1
 10
363.305365
 20
593.524794
 30
0.0
 10
363.136240
 20
593.589542
 30
0.0
 10
362.969972
 20
593.661766
 30
0.0
 10
362.808506
 20
593.743412
 30
0.0
  0
SPLINE
  5
1e3
100
AcDbEntity
  8
0
 62
1
100
AcDbSpline
 70
8
 71
3
 72
8
 73
4
 74
0
 40
0
 40
0
 40
0
 40
0
 40
1
 40
1
 40
1
 40
1
 10
362.808506
 20
593.743412
 30
0.0
 10
362.646457
 20
593.825352
 30
0.0
 10
362.489246
 20
593.916781
 30
0.0
 10
362.335498
 20
594.013702
 30
0.0
  0
SPLINE
  5
1e4
100
AcDbEntity
  8
0
 62
1
100
AcDbSpline
 70
8
 71
3
 72
8
 73
4
 74
0
 40
0
 40
0
 40
0
 40
0
 40
1
 40
1
 40
1
 40
1
 10
362.335498
 20
594.013702
 30
0.0
 10
362.179910
 20
594.111782
 30
0.0
 10
362.027868
 20
594.215486
 30
0.0
 10
361.882363
 20
594.327716
 30
0.0
  0
SPLINE
  5
1e5
100
AcDbEntity
  8
0
 62
1
100
AcDbSpline
 70
8
 71
3
 72
8
 73
4
 74
0
 40
0
 40
0
 40
0
 40
0
 40
1
 40
1
 40
1
 40
1
 10
361.882363
 20
594.327716
 30
0.0
 10
361.734324
 20
594.441902
 30
0.0
 10
361.593052
 20
594.564913
 30
0.0
 10
361.457053
 20
594.693404
 30
0.0
  0
SPLINE
  5
1e6
100
AcDbEntity
  8
0
 62
1
100
AcDbSpline
 70
8
 71
3
 72
8
 73
4
 74
0
 40
0
 40
0
 40
0
 40
0
 40
1
 40
1
 40
1
 40
1
 10
361.457053
 20
594.693404
 30
0.0
 10
361.320061
 20
594.822834
 30
0.0
 10
361.188419
 20
594.957824
 30
0.0
 10
361.063541
 20
595.098840
 30
0.0
  0
SPLINE
  5
1e7
100
AcDbEntity
  8
0
 62
1
100
AcDbSpline
 70
8
 71
3
 72
8
 73
4
 74
0
 40
0
 40
0
 40
0
 40
0
 40
1
 40
1
 40
1
 40
1
 10
361.063541
 20
595.098840
 30
0.0
 10
360.940469
 20
595.237817
 30
0.0
 10
360.823966
 20
595.382645
 30
0.0
 10
360.713753
 20
595.532100
 30
0.0
  0
SPLINE
  5
1e8
100
AcDbEntity
  8
0
 62
1
100
AcDbSpline
 70
8
 71
3
 72
8
 73
4
 74
0
 40
0
 40
0
 40
0
 40
0
 40
1
 40
1
 40
1
 40
1
 10
360.713753
 20
595.532100
 30
0.0
 10
360.603780
 20
595.681232
 30
0.0
 10
360.500070
 20
595.834970
 30
0.0
 10
360.403714
 20
595.993184
 30
0.0
  0
SPLINE
  5
1e9
100
AcDbEntity
  8
0
 62
1
100
AcDbSpline
 70
8
 71
3
 72
8
 73
4
 74
0
 40
0
 40
0
 40
0
 40
0
 40
1
 40
1
 40
1
 40
1
 10
360.403714
 20
595.993184
 30
0.0
 10
360.306230
 20
596.153250
 30
0.0
 10
360.216273
 20
596.317898
 30
0.0
 10
360.133424
 20
596.486067
 30
0.0
  0
SPLINE
  5
1ea
100
AcDbEntity
  8
0
 62
1
100
AcDbSpline
 70
8
 71
3
 72
8
 73
4
 74
0
 40
0
 40
0
 40
0
 40
0
 40
1
 40
1
 40
1
 40
1
 10
360.133424
 20
596.486067
 30
0.0
 10
360.050265
 20
596.654862
 30
0.0
 10
359.974267
 20
596.827205
 30
0.0
 10
359.906856
 20
597.002800
 30
0.0
  0
SPLINE
  5
1eb
100
AcDbEntity
  8
0
 62
1
100
AcDbSpline
 70
8
 71
3
 72
8
 73
4
 74
0
 40
0
 40
0
 40
0
 40
0
 40
1
 40
1
 40
1
 40
1
 10
359.906856
 20
597.002800
 30
0.0
 10
359.837774
 20
597.182747
 30
0.0
 10
359.777709
 20
597.366110
 30
0.0
 10
359.724012
 20
597.551331
 30
0.0
  0
SPLINE
  5
1ec
100
AcDbEntity
  8
0
 62
1
100
AcDbSpline
 70
8
 71
3
 72
8
 73
4
 74
0
 40
0
 40
0
 40
0
 40
0
 40
1
 40
1
 40
1
 40
1
 10
359.724012
 20
597.551331
 30
0.0
 10
359.668862
 20
597.741566
 30
0.0
 10
359.620430
 20
597.933761
 30
0.0
 10
359.580917
 20
598.127686
 30
0.0
  0
SPLINE
  5
1ed
100
AcDbEntity
  8
0
 62
1
100
AcDbSpline
 70
8
 71
3
 72
8
 73
4
 74
0
 40
0
 40
0
 40
0
 40
0
 40
1
 40
1
 40
1
 40
1
 10
359.580917
 20
598.127686
 30
0.0
 10
359.540134
 20
598.327850
 30
0.0
 10
359.508852
 20
598.529858
 30
0.0
 10
359.477571
 20
598.731866
 30
0.0
  0
SPLINE
  5
1ee
100
AcDbEntity
  8
0
 62
1
100
AcDbSpline
 70
8
 71
3
 72
8
 73
4
 74
0
 40
0
 40
0
 40
0
 40
0
 40
1
 40
1
 40
1
 40
1
 10
372.451526
 20
600.127043
 30
0.0
 10
372.447755
 20
599.965342
 30
0.0
 10
372.443985
 20
599.803641
 30
0.0
 10
372.435626
 20
599.642109
 30
0.0
  0
SPLINE
  5
1ef
100
AcDbEntity
  8
0
 62
1
100
AcDbSpline
 70
8
 71
3
 72
8
 73
4
 74
0
 40
0
 40
0
 40
0
 40
0
 40
1
 40
1
 40
1
 40
1
 10
372.435626
 20
599.642109
 30
0.0
 10
372.427381
 20
599.482760
 30
0.0
 10
372.414670
 20
599.323576
 30
0.0
 10
372.395878
 20
599.165126
 30
0.0
  0
SPLINE
  5
1f0
100
AcDbEntity
  8
0
 62
1
100
AcDbSpline
 70
8
 71
3
 72
8
 73
4
 74
0
 40
0
 40
0
 40
0
 40
0
 40
1
 40
1
 40
1
 40
1
 10
372.395878
 20
599.165126
 30
0.0
 10
372.377403
 20
599.009359
 30
0.0
 10
372.353050
 20
598.854302
 30
0.0
 10
372.324330
 20
598.700066
 30
0.0
  0
SPLINE
  5
1f1
100
AcDbEntity
  8
0
 62
1
100
AcDbSpline
 70
8
 71
3
 72
8
 73
4
 74
0
 40
0
 40
0
 40
0
 40
0
 40
1
 40
1
 40
1
 40
1
 10
372.324330
 20
598.700066
 30
0.0
 10
372.295777
 20
598.546731
 30
0.0
 10
372.262909
 20
598.394209
 30
0.0
 10
372.224959
 20
598.242957
 30
0.0
  0
SPLINE
  5
1f2
100
AcDbEntity
  8
0
 62
1
100
AcDbSpline
 70
8
 71
3
 72
8
 73
4
 74
0
 40
0
 40
0
 40
0
 40
0
 40
1
 40
1
 40
1
 40
1
 10
372.224959
 20
598.242957
 30
0.0
 10
372.187396
 20
598.093253
 30
0.0
 10
372.144857
 20
597.944795
 30
0.0
 10
372.097763
 20
597.797773
 30
0.0
  0
SPLINE
  5
1f3
100
AcDbEntity
  8
0
 62
1
100
AcDbSpline
 70
8
 71
3
 72
8
 73
4
 74
0
 40
0
 40
0
 40
0
 40
0
 40
1
 40
1
 40
1
 40
1
 10
372.097763
 20
597.797773
 30
0.0
 10
372.050959
 20
597.651652
 30
0.0
 10
371.999657
 20
597.506951
 30
0.0
 10
371.942744
 20
597.364512
 30
0.0
  0
SPLINE
  5
1f4
100
AcDbEntity
  8
0
 62
1
100
AcDbSpline
 70
8
 71
3
 72
8
 73
4
 74
0
 40
0
 40
0
 40
0
 40
0
 40
1
 40
1
 40
1
 40
1
 10
371.942744
 20
597.364512
 30
0.0
 10
371.885289
 20
597.220720
 30
0.0
 10
371.822115
 20
597.079235
 30
0.0
 10
371.755924
 20
596.939202
 30
0.0
  0
SPLINE
  5
1f5
100
AcDbEntity
  8
0
 62
1
100
AcDbSpline
 70
8
 71
3
 72
8
 73
4
 74
0
 40
0
 40
0
 40
0
 40
0
 40
1
 40
1
 40
1
 40
1
 10
371.755924
 20
596.939202
 30
0.0
 10
371.689309
 20
596.798270
 30
0.0
 10
371.619638
 20
596.658809
 30
0.0
 10
371.545257
 20
596.521841
 30
0.0
  0
SPLINE
  5
1f6
100
AcDbEntity
  8
0
 62
1
100
AcDbSpline
 70
8
 71
3
 72
8
 73
4
 74
0
 40
0
 40
0
 40
0
 40
0
 40
1
 40
1
 40
1
 40
1
 10
371.545257
 20
596.521841
 30
0.0
 10
371.471831
 20
596.386633
 30
0.0
 10
371.393815
 20
596.253855
 30
0.0
 10
371.310740
 20
596.124355
 30
0.0
  0
SPLINE
  5
1f7
100
AcDbEntity
  8
0
 62
1
100
AcDbSpline
 70
8
 71
3
 72
8
 73
4
 74
0
 40
0
 40
0
 40
0
 40
0
 40
1
 40
1
 40
1
 40
1
 10
371.310740
 20
596.124355
 30
0.0
 10
371.228969
 20
595.996888
 30
0.0
 10
371.142299
 20
595.872596
 30
0.0
 10
371.052373
 20
595.750718
 30
0.0
  0
SPLINE
  5
1f8
100
AcDbEntity
  8
0
 62
1
100
AcDbSpline
 70
8
 71
3
 72
8
 73
4
 74
0
 40
0
 40
0
 40
0
 40
0
 40
1
 40
1
 40
1
 40
1
 10
371.052373
 20
595.750718
 30
0.0
 10
370.964384
 20
595.631462
 30
0.0
 10
370.873280
 20
595.514516
 30
0.0
 10
370.778108
 20
595.400930
 30
0.0
  0
SPLINE
  5
1f9
100
AcDbEntity
  8
0
 62
1
100
AcDbSpline
 70
8
 71
3
 72
8
 73
4
 74
0
 40
0
 40
0
 40
0
 40
0
 40
1
 40
1
 40
1
 40
1
 10
370.778108
 20
595.400930
 30
0.0
 10
370.684104
 20
595.288737
 30
0.0
 10
370.586132
 20
595.179823
 30
0.0
 10
370.483968
 20
595.074991
 30
0.0
  0
SPLINE
  5
1fa
100
AcDbEntity
  8
0
 62
1
100
AcDbSpline
 70
8
 71
3
 72
8
 73
4
 74
0
 40
0
 40
0
 40
0
 40
0
 40
1
 40
1
 40
1
 40
1
 10
370.483968
 20
595.074991
 30
0.0
 10
370.381905
 20
594.970262
 30
0.0
 10
370.275659
 20
594.869608
 30
0.0
 10
370.165979
 20
594.772901
 30
0.0
  0
SPLINE
  5
1fb
100
AcDbEntity
  8
0
 62
1
100
AcDbSpline
 70
8
 71
3
 72
8
 73
4
 74
0
 40
0
 40
0
 40
0
 40
0
 40
1
 40
1
 40
1
 40
1
 10
370.165979
 20
594.772901
 30
0.0
 10
370.056529
 20
594.676397
 30
0.0
 10
369.943659
 20
594.583823
 30
0.0
 10
369.828115
 20
594.494661
 30
0.0
  0
SPLINE
  5
1fc
100
AcDbEntity
  8
0
 62
1
100
AcDbSpline
 70
8
 71
3
 72
8
 73
4
 74
0
 40
0
 40
0
 40
0
 40
0
 40
1
 40
1
 40
1
 40
1
 10
369.828115
 20
594.494661
 30
0.0
 10
369.713088
 20
594.405896
 30
0.0
 10
369.595411
 20
594.320512
 30
0.0
 10
369.474353
 20
594.240269
 30
0.0
  0
SPLINE
  5
1fd
100
AcDbEntity
  8
0
 62
1
100
AcDbSpline
 70
8
 71
3
 72
8
 73
4
 74
0
 40
0
 40
0
 40
0
 40
0
 40
1
 40
1
 40
1
 40
1
 10
369.474353
 20
594.240269
 30
0.0
 10
369.351435
 20
594.158795
 30
0.0
 10
369.225032
 20
594.082621
 30
0.0
 10
369.096741
 20
594.009728
 30
0.0
  0
SPLINE
  5
1fe
100
AcDbEntity
  8
0
 62
1
100
AcDbSpline
 70
8
 71
3
 72
8
 73
4
 74
0
 40
0
 40
0
 40
0
 40
0
 40
1
 40
1
 40
1
 40
1
 10
369.096741
 20
594.009728
 30
0.0
 10
368.967850
 20
593.936494
 30
0.0
 10
368.837054
 20
593.866571
 30
0.0
 10
368.703230
 20
593.803034
 30
0.0
  0
SPLINE
  5
1ff
100
AcDbEntity
  8
0
 62
1
100
AcDbSpline
 70
8
 71
3
 72
8
 73
4
 74
0
 40
0
 40
0
 40
0
 40
0
 40
1
 40
1
 40
1
 40
1
 10
368.703230
 20
593.803034
 30
0.0
 10
368.569190
 20
593.739396
 30
0.0
 10
368.432113
 20
593.682164
 30
0.0
 10
368.293819
 20
593.628140
 30
0.0
  0
SPLINE
  5
200
100
AcDbEntity
  8
0
 62
1
100
AcDbSpline
 70
8
 71
3
 72
8
 73
4
 74
0
 40
0
 40
0
 40
0
 40
0
 40
1
 40
1
 40
1
 40
1
 10
368.293819
 20
593.628140
 30
0.0
 10
368.154782
 20
593.573828
 30
0.0
 10
368.014517
 20
593.522758
 30
0.0
 10
367.872483
 20
593.477096
 30
0.0
  0
SPLINE
  5
201
100
AcDbEntity
  8
0
 62
1
100
AcDbSpline
 70
8
 71
3
 72
8
 73
4
 74
0
 40
0
 40
0
 40
0
 40
0
 40
1
 40
1
 40
1
 40
1
 10
367.872483
 20
593.477096
 30
0.0
 10
367.728331
 20
593.430752
 30
0.0
 10
367.582358
 20
593.389979
 30
0.0
 10
367.435248
 20
593.353875
 30
0.0
  0
SPLINE
  5
202
100
AcDbEntity
  8
0
 62
1
100
AcDbSpline
 70
8
 71
3
 72
8
 73
4
 74
0
 40
0
 40
0
 40
0
 40
0
 40
1
 40
1
 40
1
 40
1
 10
367.435248
 20
593.353875
 30
0.0
 10
367.285288
 20
593.317071
 30
0.0
 10
367.134149
 20
593.285119
 30
0.0
 10
366.982114
 20
593.258478
 30
0.0
  0
SPLINE
  5
203
100
AcDbEntity
  8
0
 62
1
100
AcDbSpline
 70
8
 71
3
 72
8
 73
4
 74
0
 40
0
 40
0
 40
0
 40
0
 40
1
 40
1
 40
1
 40
1
 10
366.982114
 20
593.258478
 30
0.0
 10
366.826529
 20
593.231216
 30
0.0
 10
366.670009
 20
593.209516
 30
0.0
 10
366.513080
 20
593.190905
 30
0.0
  0
SPLINE
  5
204
100
AcDbEntity
  8
0
 62
1
100
AcDbSpline
 70
8
 71
3
 72
8
 73
4
 74
0
 40
0
 40
0
 40
0
 40
0
 40
1
 40
1
 40
1
 40
1
 10
366.513080
 20
593.190905
 30
0.0
 10
366.351837
 20
593.171783
 30
0.0
 10
366.190165
 20
593.155922
 30
0.0
 10
366.028146
 20
593.147182
 30
0.0
  0
SPLINE
  5
205
100
AcDbEntity
  8
0
 62
1
100
AcDbSpline
 70
8
 71
3
 72
8
 73
4
 74
0
 40
0
 40
0
 40
0
 40
0
 40
1
 40
1
 40
1
 40
1
 10
366.028146
 20
593.147182
 30
0.0
 10
365.862767
 20
593.138261
 30
0.0
 10
365.697028
 20
593.136759
 30
0.0
 10
365.531288
 20
593.135258
 30
0.0
  0
SPLINE
  5
206
100
AcDbEntity
  8
0
 62
1
100
AcDbSpline
 70
8
 71
3
 72
8
 73
4
 74
0
 40
0
 40
0
 40
0
 40
0
 40
1
 40
1
 40
1
 40
1
 10
366.207015
 20
606.617995
 30
0.0
 10
366.428592
 20
606.613199
 30
0.0
 10
366.650169
 20
606.608403
 30
0.0
 10
366.870817
 20
606.590171
 30
0.0
  0
SPLINE
  5
207
100
AcDbEntity
  8
0
 62
1
100
AcDbSpline
 70
8
 71
3
 72
8
 73
4
 74
0
 40
0
 40
0
 40
0
 40
0
 40
1
 40
1
 40
1
 40
1
 10
366.870817
 20
606.590171
 30
0.0
 10
367.084019
 20
606.572554
 30
0.0
 10
367.296352
 20
606.542393
 30
0.0
 10
367.506796
 20
606.502724
 30
0.0
  0
SPLINE
  5
208
100
AcDbEntity
  8
0
 62
1
100
AcDbSpline
 70
8
 71
3
 72
8
 73
4
 74
0
 40
0
 40
0
 40
0
 40
0
 40
1
 40
1
 40
1
 40
1
 10
367.506796
 20
606.502724
 30
0.0
 10
367.710332
 20
606.464357
 30
0.0
 10
367.912101
 20
606.417098
 30
0.0
 10
368.110975
 20
606.359629
 30
0.0
  0
SPLINE
  5
209
100
AcDbEntity
  8
0
 62
1
100
AcDbSpline
 70
8
 71
3
 72
8
 73
4
 74
0
 40
0
 40
0
 40
0
 40
0
 40
1
 40
1
 40
1
 40
1
 10
368.110975
 20
606.359629
 30
0.0
 10
368.306250
 20
606.303199
 30
0.0
 10
368.498734
 20
606.236924
 30
0.0
 10
368.687330
 20
606.160886
 30
0.0
  0
SPLINE
  5
20a
100
AcDbEntity
  8
0
 62
1
100
AcDbSpline
 70
8
 71
3
 72
8
 73
4
 74
0
 40
0
 40
0
 40
0
 40
0
 40
1
 40
1
 40
1
 40
1
 10
368.687330
 20
606.160886
 30
0.0
 10
368.873261
 20
606.085921
 30
0.0
 10
369.055411
 20
606.001466
 30
0.0
 10
369.231887
 20
605.906495
 30
0.0
  0
SPLINE
  5
20b
100
AcDbEntity
  8
0
 62
1
100
AcDbSpline
 70
8
 71
3
 72
8
 73
4
 74
0
 40
0
 40
0
 40
0
 40
0
 40
1
 40
1
 40
1
 40
1
 10
369.231887
 20
605.906495
 30
0.0
 10
369.408426
 20
605.811488
 30
0.0
 10
369.579286
 20
605.705956
 30
0.0
 10
369.744643
 20
605.592480
 30
0.0
  0
SPLINE
  5
20c
100
AcDbEntity
  8
0
 62
1
100
AcDbSpline
 70
8
 71
3
 72
8
 73
4
 74
0
 40
0
 40
0
 40
0
 40
0
 40
1
 40
1
 40
1
 40
1
 10
369.744643
 20
605.592480
 30
0.0
 10
369.912338
 20
605.477402
 30
0.0
 10
370.074373
 20
605.354154
 30
0.0
 10
370.229577
 20
605.222818
 30
0.0
  0
SPLINE
  5
20d
100
AcDbEntity
  8
0
 62
1
100
AcDbSpline
 70
8
 71
3
 72
8
 73
4
 74
0
 40
0
 40
0
 40
0
 40
0
 40
1
 40
1
 40
1
 40
1
 10
370.229577
 20
605.222818
 30
0.0
 10
370.389189
 20
605.087750
 30
0.0
 10
370.541576
 20
604.944128
 30
0.0
 10
370.686686
 20
604.793533
 30
0.0
  0
SPLINE
  5
20e
100
AcDbEntity
  8
0
 62
1
100
AcDbSpline
 70
8
 71
3
 72
8
 73
4
 74
0
 40
0
 40
0
 40
0
 40
0
 40
1
 40
1
 40
1
 40
1
 10
370.686686
 20
604.793533
 30
0.0
 10
370.832054
 20
604.642671
 30
0.0
 10
370.970120
 20
604.484810
 30
0.0
 10
371.100072
 20
604.320524
 30
0.0
  0
SPLINE
  5
20f
100
AcDbEntity
  8
0
 62
1
100
AcDbSpline
 70
8
 71
3
 72
8
 73
4
 74
0
 40
0
 40
0
 40
0
 40
0
 40
1
 40
1
 40
1
 40
1
 10
371.100072
 20
604.320524
 30
0.0
 10
371.227394
 20
604.159563
 30
0.0
 10
371.346925
 20
603.992433
 30
0.0
 10
371.457810
 20
603.819691
 30
0.0
  0
SPLINE
  5
210
100
AcDbEntity
  8
0
 62
1
100
AcDbSpline
 70
8
 71
3
 72
8
 73
4
 74
0
 40
0
 40
0
 40
0
 40
0
 40
1
 40
1
 40
1
 40
1
 10
371.457810
 20
603.819691
 30
0.0
 10
371.569105
 20
603.646309
 30
0.0
 10
371.671690
 20
603.467273
 30
0.0
 10
371.763874
 20
603.283085
 30
0.0
  0
SPLINE
  5
211
100
AcDbEntity
  8
0
 62
1
100
AcDbSpline
 70
8
 71
3
 72
8
 73
4
 74
0
 40
0
 40
0
 40
0
 40
0
 40
1
 40
1
 40
1
 40
1
 10
371.763874
 20
603.283085
 30
0.0
 10
371.855780
 20
603.099453
 30
0.0
 10
371.937349
 20
602.910701
 30
0.0
 10
372.010316
 20
602.718654
 30
0.0
  0
SPLINE
  5
212
100
AcDbEntity
  8
0
 62
1
100
AcDbSpline
 70
8
 71
3
 72
8
 73
4
 74
0
 40
0
 40
0
 40
0
 40
0
 40
1
 40
1
 40
1
 40
1
 10
372.010316
 20
602.718654
 30
0.0
 10
372.085076
 20
602.521889
 30
0.0
 10
372.150804
 20
602.321667
 30
0.0
 10
372.205084
 20
602.118449
 30
0.0
  0
SPLINE
  5
213
100
AcDbEntity
  8
0
 62
1
100
AcDbSpline
 70
8
 71
3
 72
8
 73
4
 74
0
 40
0
 40
0
 40
0
 40
0
 40
1
 40
1
 40
1
 40
1
 10
372.205084
 20
602.118449
 30
0.0
 10
372.260678
 20
601.910312
 30
0.0
 10
372.304262
 20
601.699032
 30
0.0
 10
372.340230
 20
601.486446
 30
0.0
  0
SPLINE
  5
214
100
AcDbEntity
  8
0
 62
1
100
AcDbSpline
 70
8
 71
3
 72
8
 73
4
 74
0
 40
0
 40
0
 40
0
 40
0
 40
1
 40
1
 40
1
 40
1
 10
372.340230
 20
601.486446
 30
0.0
 10
372.377462
 20
601.266380
 30
0.0
 10
372.406533
 20
601.044916
 30
0.0
 10
372.423702
 20
600.822644
 30
0.0
  0
SPLINE
  5
215
100
AcDbEntity
  8
0
 62
1
100
AcDbSpline
 70
8
 71
3
 72
8
 73
4
 74
0
 40
0
 40
0
 40
0
 40
0
 40
1
 40
1
 40
1
 40
1
 10
372.423702
 20
600.822644
 30
0.0
 10
372.441567
 20
600.591359
 30
0.0
 10
372.446546
 20
600.359201
 30
0.0
 10
372.451526
 20
600.127043
 30
0.0
  0
SPLINE
  5
216
100
AcDbEntity
  8
0
 62
1
100
AcDbSpline
 70
8
 71
3
 72
8
 73
4
 74
0
 40
0
 40
0
 40
0
 40
0
 40
1
 40
1
 40
1
 40
1
 10
363.869795
 20
606.232433
 30
0.0
 10
364.079876
 20
606.290432
 30
0.0
 10
364.289957
 20
606.348430
 30
0.0
 10
364.501799
 20
606.399377
 30
0.0
  0
SPLINE
  5
217
100
AcDbEntity
  8
0
 62
1
100
AcDbSpline
 70
8
 71
3
 72
8
 73
4
 74
0
 40
0
 40
0
 40
0
 40
0
 40
1
 40
1
 40
1
 40
1
 10
364.501799
 20
606.399377
 30
0.0
 10
364.700367
 20
606.447133
 30
0.0
 10
364.900484
 20
606.488693
 30
0.0
 10
365.102002
 20
606.522599
 30
0.0
  0
SPLINE
  5
218
100
AcDbEntity
  8
0
 62
1
100
AcDbSpline
 70
8
 71
3
 72
8
 73
4
 74
0
 40
0
 40
0
 40
0
 40
0
 40
1
 40
1
 40
1
 40
1
 10
365.102002
 20
606.522599
 30
0.0
 10
365.290422
 20
606.554300
 30
0.0
 10
365.480068
 20
606.579309
 30
0.0
 10
365.670408
 20
606.594146
 30
0.0
  0
SPLINE
  5
219
100
AcDbEntity
  8
0
 62
1
100
AcDbSpline
 70
8
 71
3
 72
8
 73
4
 74
0
 40
0
 40
0
 40
0
 40
0
 40
1
 40
1
 40
1
 40
1
 10
365.670408
 20
606.594146
 30
0.0
 10
365.848870
 20
606.608057
 30
0.0
 10
366.027943
 20
606.613026
 30
0.0
 10
366.207015
 20
606.617995
 30
0.0
  0
LWPOLYLINE
  5
21a
100
AcDbEntity
  8
0
 62
1
100
AcDbPolyline
 90
2
 70
0
 10
359.477571
 20
598.731866
 30
0.0
 10
361.258309
 20
598.731866
 30
0.0
  0
LWPOLYLINE
  5
21b
100
AcDbEntity
  8
0
 62
1
100
AcDbPolyline
 90
2
 70
0
 10
364.939033
 20
611.451429
 30
0.0
 10
363.869795
 20
606.232433
 30
0.0
  0
LWPOLYLINE
  5
21c
100
AcDbEntity
  8
0
 62
1
100
AcDbPolyline
 90
2
 70
0
 10
371.688352
 20
611.451429
 30
0.0
 10
364.939033
 20
611.451429
 30
0.0
  0
LWPOLYLINE
  5
21d
100
AcDbEntity
  8
0
 62
1
100
AcDbPolyline
 90
2
 70
0
 10
371.688352
 20
613.486559
 30
0.0
 10
371.688352
 20
611.451429
 30
0.0
  0
LWPOLYLINE
  5
21e
100
AcDbEntity
  8
0
 62
1
100
AcDbPolyline
 90
2
 70
0
 10
363.547831
 20
613.486559
 30
0.0
 10
371.688352
 20
613.486559
 30
0.0
  0
SPLINE
  5
21f
100
AcDbEntity
  8
0
 62
1
100
AcDbSpline
 70
8
 71
3
 72
8
 73
4
 74
0
 40
0
 40
0
 40
0
 40
0
 40
1
 40
1
 40
1
 40
1
 10
428.608487
 20
542.573529
 30
0.0
 10
428.608487
 20
583.082383
 30
0.0
 10
406.997270
 20
620.514108
 30
0.0
 10
371.915573
 20
640.768535
 30
0.0
  0
SPLINE
  5
220
100
AcDbEntity
  8
0
 62
1
100
AcDbSpline
 70
8
 71
3
 72
8
 73
4
 74
0
 40
0
 40
0
 40
0
 40
0
 40
1
 40
1
 40
1
 40
1
 10
371.915573
 20
640.768535
 30
0.0
 10
336.833876
 20
661.022962
 30
0.0
 10
293.611444
 20
661.022962
 30
0.0
 10
258.529747
 20
640.768535
 30
0.0
  0
SPLINE
  5
221
100
AcDbEntity
  8
0
 62
1
100
AcDbSpline
 70
8
 71
3
 72
8
 73
4
 74
0
 40
0
 40
0
 40
0
 40
0
 40
1
 40
1
 40
1
 40
1
 10
258.529747
 20
640.768535
 30
0.0
 10
223.448050
 20
620.514108
 30
0.0
 10
201.836834
 20
583.082383
 30
0.0
 10
201.836834
 20
542.573529
 30
0.0
  0
SPLINE
  5
222
100
AcDbEntity
  8
0
 62
1
100
AcDbSpline
 70
8
 71
3
 72
8
 73
4
 74
0
 40
0
 40
0
 40
0
 40
0
 40
1
 40
1
 40
1
 40
1
 10
201.836834
 20
542.573529
 30
0.0
 10
201.836833
 20
502.064675
 30
0.0
 10
223.448049
 20
464.632949
 30
0.0
 10
258.529746
 20
444.378522
 30
0.0
  0
SPLINE
  5
223
100
AcDbEntity
  8
0
 62
1
100
AcDbSpline
 70
8
 71
3
 72
8
 73
4
 74
0
 40
0
 40
0
 40
0
 40
0
 40
1
 40
1
 40
1
 40
1
 10
258.529746
 20
444.378522
 30
0.0
 10
293.611443
 20
424.124094
 30
0.0
 10
336.833876
 20
424.124094
 30
0.0
 10
371.915573
 20
444.378521
 30
0.0
  0
SPLINE
  5
224
100
AcDbEntity
  8
0
 62
1
100
AcDbSpline
 70
8
 71
3
 72
8
 73
4
 74
0
 40
0
 40
0
 40
0
 40
0
 40
1
 40
1
 40
1
 40
1
 10
371.915573
 20
444.378521
 30
0.0
 10
406.997270
 20
464.632948
 30
0.0
 10
428.608487
 20
502.064673
 30
0.0
 10
428.608487
 20
542.573527
 30
0.0
  0
LWPOLYLINE
  5
225
100
AcDbEntity
  8
0
 62
1
100
AcDbPolyline
 90
2
 70
0
 10
361.512701
 20
603.565300
 30
0.0
 10
363.547831
 20
613.486559
 30
0.0
  0
SPLINE
  5
226
100
AcDbEntity
  8
0
 62
1
100
AcDbSpline
 70
8
 71
3
 72
8
 73
4
 74
0
 40
0
 40
0
 40
0
 40
0
 40
1
 40
1
 40
1
 40
1
 10
320.891951
 20
542.573529
 30
0.0
 10
320.891951
 20
544.598972
 30
0.0
 10
319.811390
 20
546.470558
 30
0.0
 10
318.057306
 20
547.483279
 30
0.0
  0
SPLINE
  5
227
100
AcDbEntity
  8
0
 62
1
100
AcDbSpline
 70
8
 71
3
 72
8
 73
4
 74
0
 40
0
 40
0
 40
0
 40
0
 40
1
 40
1
 40
1
 40
1
 10
318.057306
 20
547.483279
 30
0.0
 10
316.303221
 20
548.496001
 30
0.0
 10
314.142099
 20
548.496001
 30
0.0
 10
312.388014
 20
547.483279
 30
0.0
  0
SPLINE
  5
228
100
AcDbEntity
  8
0
 62
1
100
AcDbSpline
 70
8
 71
3
 72
8
 73
4
 74
0
 40
0
 40
0
 40
0
 40
0
 40
1
 40
1
 40
1
 40
1
 10
312.388014
 20
547.483279
 30
0.0
 10
310.633930
 20
546.470558
 30
0.0
 10
309.553369
 20
544.598972
 30
0.0
 10
309.553369
 20
542.573529
 30
0.0
  0
SPLINE
  5
229
100
AcDbEntity
  8
0
 62
1
100
AcDbSpline
 70
8
 71
3
 72
8
 73
4
 74
0
 40
0
 40
0
 40
0
 40
0
 40
1
 40
1
 40
1
 40
1
 10
309.553369
 20
542.573529
 30
0.0
 10
309.553369
 20
540.548086
 30
0.0
 10
310.633930
 20
538.676500
 30
0.0
 10
312.388014
 20
537.663779
 30
0.0
  0
SPLINE
  5
22a
100
AcDbEntity
  8
0
 62
1
100
AcDbSpline
 70
8
 71
3
 72
8
 73
4
 74
0
 40
0
 40
0
 40
0
 40
0
 40
1
 40
1
 40
1
 40
1
 10
312.388014
 20
537.663779
 30
0.0
 10
314.142099
 20
536.651057
 30
0.0
 10
316.303221
 20
536.651057
 30
0.0
 10
318.057306
 20
537.663779
 30
0.0
  0
SPLINE
  5
22b
100
AcDbEntity
  8
0
 62
1
100
AcDbSpline
 70
8
 71
3
 72
8
 73
4
 74
0
 40
0
 40
0
 40
0
 40
0
 40
1
 40
1
 40
1
 40
1
 10
318.057306
 20
537.663779
 30
0.0
 10
319.811390
 20
538.676500
 30
0.0
 10
320.891951
 20
540.548086
 30
0.0
 10
320.891951
 20
542.573529
 30
0.0
  0
LWPOLYLINE
  5
22c
100
AcDbEntity
  8
0
 62
1
100
AcDbPolyline
 90
1
 70
1
 10
428.608487
 20
542.573527
 30
0.0
  0
LWPOLYLINE
  5
22d
100
AcDbEntity
  8
0
 62
1
100
AcDbPolyline
 90
1
 70
1
 10
320.891951
 20
542.573529
 30
0.0
  0
SPLINE
  5
22e
100
AcDbEntity
  8
0
 62
1
100
AcDbSpline
 70
8
 71
3
 72
8
 73
4
 74
0
 40
0
 40
0
 40
0
 40
0
 40
1
 40
1
 40
1
 40
1
 10
295.380140
 20
542.573529
 30
0.0
 10
295.381043
 20
545.612295
 30
0.0
 10
293.760399
 20
548.420616
 30
0.0
 10
291.128901
 20
549.940259
 30
0.0
  0
SPLINE
  5
22f
100
AcDbEntity
  8
0
 62
1
100
AcDbSpline
 70
8
 71
3
 72
8
 73
4
 74
0
 40
0
 40
0
 40
0
 40
0
 40
1
 40
1
 40
1
 40
1
 10
291.128901
 20
549.940259
 30
0.0
 10
288.497403
 20
551.459903
 30
0.0
 10
285.255004
 20
551.459903
 30
0.0
 10
282.623506
 20
549.940259
 30
0.0
  0
SPLINE
  5
230
100
AcDbEntity
  8
0
 62
1
100
AcDbSpline
 70
8
 71
3
 72
8
 73
4
 74
0
 40
0
 40
0
 40
0
 40
0
 40
1
 40
1
 40
1
 40
1
 10
282.623506
 20
549.940259
 30
0.0
 10
279.992008
 20
548.420616
 30
0.0
 10
278.371364
 20
545.612295
 30
0.0
 10
278.372267
 20
542.573529
 30
0.0
  0
SPLINE
  5
231
100
AcDbEntity
  8
0
 62
1
100
AcDbSpline
 70
8
 71
3
 72
8
 73
4
 74
0
 40
0
 40
0
 40
0
 40
0
 40
1
 40
1
 40
1
 40
1
 10
278.372267
 20
542.573529
 30
0.0
 10
278.371364
 20
539.534763
 30
0.0
 10
279.992008
 20
536.726442
 30
0.0
 10
282.623506
 20
535.206799
 30
0.0
  0
SPLINE
  5
232
100
AcDbEntity
  8
0
 62
1
100
AcDbSpline
 70
8
 71
3
 72
8
 73
4
 74
0
 40
0
 40
0
 40
0
 40
0
 40
1
 40
1
 40
1
 40
1
 10
282.623506
 20
535.206799
 30
0.0
 10
285.255004
 20
533.687155
 30
0.0
 10
288.497403
 20
533.687155
 30
0.0
 10
291.128901
 20
535.206799
 30
0.0
  0
SPLINE
  5
233
100
AcDbEntity
  8
0
 62
1
100
AcDbSpline
 70
8
 71
3
 72
8
 73
4
 74
0
 40
0
 40
0
 40
0
 40
0
 40
1
 40
1
 40
1
 40
1
 10
291.128901
 20
535.206799
 30
0.0
 10
293.760399
 20
536.726442
 30
0.0
 10
295.381043
 20
539.534763
 30
0.0
 10
295.380140
 20
542.573529
 30
0.0
  0
LWPOLYLINE
  5
234
100
AcDbEntity
  8
0
 62
1
100
AcDbPolyline
 90
4
 70
1
 10
343.569117
 20
529.195370
 30
0.0
 10
366.246282
 20
529.195370
 30
0.0
 10
366.246282
 20
551.872535
 30
0.0
 10
343.569117
 20
551.872535
 30
0.0
  0
LWPOLYLINE
  5
235
100
AcDbEntity
  8
0
 62
1
100
AcDbPolyline
 90
1
 70
1
 10
295.380140
 20
542.573529
 30
0.0
  0
ENDSEC
  0
SECTION
  2
OBJECTS
  0
DICTIONARY
  5
C
330
0
100
AcDbDictionary
  3
ACAD_GROUP
350
D
  3
ACAD_MLINESTYLE
350
17
  0
DICTIONARY
  5
D
330
C
100
AcDbDictionary
  0
DICTIONARY
  5
1A
330
C
100
AcDbDictionary
  0
DICTIONARY
  5
17
330
C
100
AcDbDictionary
  3
STANDARD
350
18
  0
DICTIONARY
  5
19
330
C
100
AcDbDictionary
  0
ENDSEC
  0
EOF
