<?xml version="1.0" encoding="UTF-8" standalone="no"?>
<!-- Created with Inkscape (http://www.inkscape.org/) -->

<svg
   xmlns:dc="http://purl.org/dc/elements/1.1/"
   xmlns:cc="http://creativecommons.org/ns#"
   xmlns:rdf="http://www.w3.org/1999/02/22-rdf-syntax-ns#"
   xmlns:svg="http://www.w3.org/2000/svg"
   xmlns="http://www.w3.org/2000/svg"
   xmlns:sodipodi="http://sodipodi.sourceforge.net/DTD/sodipodi-0.dtd"
   xmlns:inkscape="http://www.inkscape.org/namespaces/inkscape"
   width="210mm"
   height="297mm"
   viewBox="0 0 210 297"
   version="1.1"
   id="svg1431"
   inkscape:version="0.92.4 (5da689c313, 2019-01-14)"
   sodipodi:docname="chinese ads.svg">
  <defs
     id="defs1425" />
  <sodipodi:namedview
     id="base"
     pagecolor="#ffffff"
     bordercolor="#666666"
     borderopacity="1.0"
     inkscape:pageopacity="0.0"
     inkscape:pageshadow="2"
     inkscape:zoom="0.35"
     inkscape:cx="-64.285714"
     inkscape:cy="560"
     inkscape:document-units="mm"
     inkscape:current-layer="layer1"
     showgrid="false"
     inkscape:window-width="1920"
     inkscape:window-height="1017"
     inkscape:window-x="-8"
     inkscape:window-y="-8"
     inkscape:window-maximized="1" />
  <metadata
     id="metadata1428">
    <rdf:RDF>
      <cc:Work
         rdf:about="">
        <dc:format>image/svg+xml</dc:format>
        <dc:type
           rdf:resource="http://purl.org/dc/dcmitype/StillImage" />
        <dc:title></dc:title>
      </cc:Work>
    </rdf:RDF>
  </metadata>
  <g
     inkscape:label="Layer 1"
     inkscape:groupmode="layer"
     id="layer1">
    <rect
       style="fill:none;stroke:#ff0000;stroke-width:0.16890486;stroke-miterlimit:4;stroke-dasharray:none;stroke-opacity:1"
       id="rect1976"
       width="59.831097"
       height="49.831097"
       x="5.2761188"
       y="6.791595" />
    <rect
       style="fill:none;stroke:#ff0000;stroke-width:0.16890487;stroke-miterlimit:4;stroke-dasharray:none;stroke-opacity:1"
       id="rect1976-7"
       width="59.831097"
       height="49.8311"
       x="5.2761188"
       y="61.914364" />
    <path
       style="fill:#000000;stroke-width:0.26458332"
       d="m 10.64208,96.555614 c 0.08311,-0.26185 0.547628,-1.66083 1.032273,-3.10886 l 0.881171,-2.63278 1.040661,-0.0784 1.040662,-0.0784 0.987604,3.00071 c 0.543182,1.65038 0.987604,3.08463 0.987604,3.1872 0,0.10258 -0.307999,0.1865 -0.684441,0.1865 -0.517522,0 -0.757509,-0.19357 -0.984049,-0.79375 -0.265156,-0.70248 -0.423174,-0.79375 -1.374219,-0.79375 -0.951044,0 -1.109063,0.0913 -1.374219,0.79375 -0.22924,0.60733 -0.464545,0.79375 -1.001878,0.79375 -0.555761,0 -0.670747,-0.0993 -0.551169,-0.47607 z m 3.483612,-2.8558 c -0.08895,-0.2318 -0.240601,-0.73571 -0.337003,-1.11981 l -0.175276,-0.69835 -0.332633,0.92137 c -0.464084,1.28548 -0.456207,1.31825 0.316874,1.31825 0.522302,0 0.650501,-0.10233 0.528038,-0.42146 z m 3.280113,0.15687 v -3.175 h 0.661458 0.661458 v 3.175 3.175 h -0.661458 -0.661458 z m 2.38125,0.95689 c 0,-2.15588 0.01856,-2.22166 0.661458,-2.34456 l 0.661458,-0.12645 v 2.34456 c 0,2.32448 -0.0057,2.34456 -0.661458,2.34456 -0.652955,0 -0.661458,-0.0285 -0.661458,-2.21811 z m 2.38125,-0.95689 v -3.175 h 0.661458 c 0.579988,0 0.661458,0.11445 0.661458,0.92917 0,0.92468 0.0048,0.92843 0.992188,0.77526 1.267973,-0.19669 1.882462,0.25141 2.08885,1.52322 0.299859,1.84782 -0.403913,3.12235 -1.724103,3.12235 -0.397064,0 -0.86481,-0.14287 -1.039435,-0.3175 -0.246944,-0.24694 -0.3175,-0.24694 -0.3175,0 0,0.17463 -0.297656,0.3175 -0.661458,0.3175 h -0.661458 z m 2.859602,0.85519 c 0.06022,-0.83123 -0.02694,-1.16621 -0.334099,-1.28408 -0.954926,-0.36644 -1.66644,1.44671 -0.877364,2.23578 0.62295,0.62295 1.126013,0.22776 1.211463,-0.9517 z m 2.605363,1.83596 c -0.997159,-1.10185 -0.112231,-2.42656 1.620979,-2.42656 0.521149,0 0.815798,-0.10839 0.719264,-0.26459 -0.08994,-0.14552 -0.581494,-0.26458 -1.09235,-0.26458 -0.811892,0 -0.918185,-0.075 -0.844281,-0.59531 0.06827,-0.48074 0.279402,-0.61135 1.096961,-0.67864 0.60749,-0.05 1.268879,0.0847 1.653646,0.33683 0.583952,0.38262 0.641232,0.59687 0.641232,2.39843 0,1.78183 -0.05099,1.97827 -0.513551,1.97827 -0.282454,0 -0.593548,-0.12943 -0.691322,-0.28763 -0.128011,-0.20713 -0.258279,-0.20713 -0.465406,0 -0.448514,0.44851 -1.641371,0.33837 -2.125172,-0.19622 z m 2.05402,-0.73508 c 0.638213,-0.24491 0.498816,-0.63315 -0.227329,-0.63315 -0.663894,0 -1.057965,0.32466 -0.758074,0.62455 0.211337,0.21134 0.451607,0.21344 0.985403,0.009 z m 2.976154,1.04254 c -0.09701,-0.097 -0.176389,-1.52576 -0.176389,-3.175 v -2.99861 h 0.79375 c 0.727987,0 0.79375,0.0753 0.79375,0.90941 0,0.8858 0.02326,0.90563 0.896257,0.76397 1.324195,-0.21489 2.014159,0.57141 2.014159,2.29537 0,1.97298 -1.175832,2.90339 -2.663227,2.10736 -0.352777,-0.1888 -0.511773,-0.1888 -0.511773,0 0,0.30265 -0.867603,0.37643 -1.146527,0.0975 z m 2.681111,-1.19944 c 0.774522,-0.77452 0.06645,-2.5932 -0.869757,-2.23395 -0.407485,0.15637 -0.582774,2.01614 -0.223854,2.37506 0.270997,0.271 0.742315,0.21019 1.093611,-0.14111 z m 2.680739,0.82866 c -0.281135,-0.28114 -0.511156,-0.68975 -0.511156,-0.90804 0,-0.71574 1.008354,-1.4552 1.984375,-1.4552 0.509323,0 0.926042,-0.11907 0.926042,-0.26459 0,-0.14552 -0.416719,-0.26458 -0.926042,-0.26458 -0.823349,0 -0.926042,-0.0771 -0.926042,-0.69512 0,-0.67578 0.03724,-0.69155 1.33849,-0.56651 0.736172,0.0707 1.480312,0.27029 1.653646,0.44346 0.185494,0.18532 0.315156,1.09874 0.315156,2.22016 v 1.9053 l -1.671656,0.0481 c -1.341411,0.0386 -1.77264,-0.0529 -2.182813,-0.46302 z m 1.980745,-0.67176 c 0.644126,-0.24717 0.496025,-0.63315 -0.242943,-0.63315 -0.411575,0 -0.661458,0.14993 -0.661458,0.39687 0,0.42703 0.242329,0.49034 0.904401,0.23628 z m 3.363413,0.8636 c -0.366427,-0.44151 0.07149,-1.08506 0.600276,-0.88215 0.232966,0.0894 0.423577,0.33213 0.423577,0.53941 0,0.51159 -0.691584,0.74311 -1.023853,0.34274 z m 3.208993,0.16779 c -1.451567,-0.27719 -1.908368,-2.75912 -0.725524,-3.94196 0.487209,-0.48721 0.889937,-0.64371 1.500979,-0.58329 1.223824,0.12102 1.250629,0.69279 0.03718,0.79324 -0.821883,0.068 -1.049851,0.21494 -1.258099,0.8107 -0.163676,0.46826 -0.162152,0.98695 0.0043,1.45521 0.219239,0.61683 0.408305,0.7276 1.241875,0.7276 0.610314,0 0.983197,0.12545 0.983091,0.33073 -9.5e-5,0.1819 -0.1095,0.33073 -0.243117,0.33073 -0.13362,0 -0.401511,0.0428 -0.595313,0.0951 -0.193805,0.0523 -0.619212,0.0442 -0.945354,-0.0181 z m 3.902393,-0.0553 c -0.890162,-0.23883 -1.373709,-1.24281 -1.219774,-2.53259 0.216686,-1.81555 1.99395,-2.59648 3.371159,-1.48129 0.507291,0.41078 0.624623,0.75691 0.624623,1.84264 0,1.84217 -1.022313,2.64177 -2.776008,2.17124 z m 1.962412,-1.41081 c 0.392861,-1.1241 -0.07816,-2.16262 -1.030309,-2.27166 -1.253223,-0.14351 -1.89824,1.29548 -1.181224,2.63523 0.439602,0.82141 1.880163,0.58458 2.211533,-0.36357 z m 2.004221,-0.54322 v -2.24097 l 1.207143,-0.18102 c 0.771893,-0.11575 1.338186,-0.0723 1.570588,0.12061 0.261985,0.21743 0.51103,0.22265 0.89213,0.0187 0.779299,-0.41707 1.483117,-0.34557 1.977673,0.20091 0.554014,0.61218 0.650148,4.39266 0.107154,4.21381 -0.203854,-0.0671 -0.381479,-0.81148 -0.463021,-1.94028 -0.132125,-1.82904 -0.133289,-1.83134 -0.926042,-1.83134 -0.792752,0 -0.793916,0.002 -0.926041,1.83134 -0.186061,2.57568 -0.745488,2.64491 -0.84794,0.10495 l -0.0781,-1.93629 h -0.79375 c -0.792753,0 -0.793917,0.002 -0.926042,1.83135 -0.08154,1.1288 -0.259167,1.87314 -0.46302,1.94028 -0.247127,0.0814 -0.33073,-0.45755 -0.33073,-2.13203 z M 19.97259,91.837354 c -0.102044,-0.10205 -0.185535,-0.46335 -0.185535,-0.8029 0,-0.48639 0.144054,-0.61736 0.679032,-0.61736 0.58422,0 0.667343,0.10128 0.595313,0.72534 -0.08003,0.69337 -0.696746,1.08698 -1.08881,0.69492 z m 3.170946,-4.14044 c -2.573502,-0.8225 -3.026159,-2.80511 -1.305961,-5.72002 2.843092,-4.81767 9.850688,-8.76083 15.561176,-8.75624 2.357583,0.002 3.723163,0.3906 4.6586,1.32603 0.617101,0.6171 0.748454,0.9751 0.748454,2.03992 0,1.48611 -0.692039,2.74678 -3.162292,5.7607 -1.67318,2.04142 -2.196688,2.8872 -1.943677,3.14021 0.617633,0.61763 5.964256,-0.48984 9.984608,-2.06817 1.245811,-0.48908 2.265111,-0.83459 2.265111,-0.76779 0,0.22748 -7.004865,3.50038 -8.73125,4.07953 -2.385542,0.80027 -5.04444,0.98502 -5.637729,0.39174 -0.957135,-0.95714 -0.429241,-2.18403 2.339375,-5.43698 3.336456,-3.92013 3.842485,-4.9818 2.816886,-5.90996 -0.633772,-0.57355 -3.436056,-1.53073 -3.618275,-1.23589 -0.07822,0.12657 -0.02122,0.3049 0.126677,0.39631 0.58337,0.36054 0.194162,0.59306 -1.517039,0.9063 -0.982265,0.1798 -3.036093,0.70885 -4.564062,1.17565 -2.575582,0.78686 -2.772931,0.89487 -2.706886,1.4816 0.0441,0.39173 -0.189604,0.90512 -0.613359,1.34743 l -0.684599,0.71456 0.940169,0.17638 c 1.680536,0.31527 4.941634,-0.89834 4.345166,-1.61704 -0.447756,-0.53952 0.165216,-0.41181 0.662876,0.1381 0.488873,0.5402 0.577348,1.10364 0.1733,1.10364 -0.145521,0 -0.264584,-0.11504 -0.264584,-0.25566 0,-0.14061 -0.386953,-0.0293 -0.859895,0.24746 -1.402645,0.82068 -3.163786,1.15411 -4.542598,0.86003 l -1.21209,-0.25851 v 0.86883 c 0,0.75152 -0.162726,0.96418 -1.205297,1.57517 -0.662913,0.3885 -1.343241,1.00911 -1.511839,1.37914 -0.266473,0.58485 -0.22848,0.736 0.290657,1.15637 1.086658,0.87992 3.446445,0.90794 7.453562,0.0885 l 0.661459,-0.13527 -0.661459,0.4074 c -1.966069,1.21095 -6.487151,1.97519 -8.285185,1.40053 z m 22.890185,0.0214 c -0.664572,-0.66457 -0.169886,-1.79917 0.784442,-1.79917 0.256818,0 0.590193,0.2303 0.740834,0.51178 0.354221,0.66187 0.350001,0.69723 -0.141883,1.18912 -0.497155,0.49715 -0.952185,0.52948 -1.383393,0.0983 z m 1.242169,-0.31042 c 0.409154,-0.49301 0.08786,-1.22416 -0.537946,-1.22416 -0.568367,0 -0.893656,0.58552 -0.661458,1.19062 0.19037,0.4961 0.801333,0.51318 1.199404,0.0335 z m -1.009613,-0.32017 c -0.01222,-0.32287 0.143523,-0.55122 0.375986,-0.55122 0.218281,0 0.396875,0.16578 0.396875,0.3684 0,0.20261 -0.108895,0.30109 -0.241985,0.21884 -0.133091,-0.0823 -0.302287,1e-5 -0.375986,0.18282 -0.0737,0.18281 -0.143402,0.0843 -0.15489,-0.21884 z"
       id="path2006"
       inkscape:connector-curvature="0" />
    <path
       style="fill:#000000;stroke-width:0.13042302"
       d="m 32.392046,42.539683 c 0,-0.728266 -0.05193,-0.75438 -1.499781,-0.75438 H 29.54909 l 0.0848,-0.362618 c 0.04666,-0.199437 0.10922,-0.407117 0.139073,-0.461509 0.02984,-0.05439 0.783075,-0.0989 1.673828,-0.0989 h 1.619547 l -0.0568,0.39558 c -0.03125,0.217572 -0.01448,0.39558 0.03725,0.39558 0.09102,0 0.377279,-0.715254 0.377279,-0.942694 0,-0.0617 -0.695171,-0.112183 -1.544828,-0.112183 h -1.544827 l 0.125811,-0.338237 c 0.17176,-0.461778 0.158084,-0.589166 -0.05431,-0.505859 -0.09907,0.03887 -0.267703,-0.05717 -0.374753,-0.213386 -0.232539,-0.339354 -0.221194,-0.366406 -0.554318,1.321199 -0.121682,0.616447 -0.313739,1.220484 -0.426791,1.342305 -0.290516,0.313055 -1.173058,0.46747 -1.173058,0.205243 0,-0.107792 -0.03301,-0.366575 -0.07336,-0.575077 -0.05932,-0.306521 -0.01745,-0.404346 0.218595,-0.510957 0.282807,-0.127732 0.365777,-0.315178 0.539857,-1.219707 0.06905,-0.35883 0.04383,-0.428547 -0.155022,-0.428547 -0.174421,0 -0.314426,0.218859 -0.527185,0.824127 -0.314875,0.895767 -0.900943,2.081191 -1.023147,2.0695 -0.04193,-0.004 -0.209278,-0.179553 -0.371866,-0.390088 l -0.295616,-0.382797 0.279273,-0.559553 c 0.456649,-0.914939 0.692558,-1.758219 1.220606,-4.36321 l 0.501169,-2.472375 h 1.31198 1.311986 l -0.368234,1.747145 c -0.53484,2.537661 -0.545415,2.604233 -0.413577,2.604233 0.06607,0 0.374845,-0.222511 0.686151,-0.494476 l 0.56602,-0.494476 -0.44605,-0.06593 c -0.408463,-0.06037 -0.442232,-0.09925 -0.400818,-0.461509 0.06552,-0.573094 0.09484,-0.593367 0.857789,-0.593367 0.381857,0 0.730159,-0.05934 0.774011,-0.131864 0.04923,-0.08142 -0.17568,-0.131858 -0.587941,-0.131858 -0.629443,0 -0.663216,-0.01699 -0.589882,-0.296684 0.04276,-0.163175 0.07858,-0.370855 0.07955,-0.461509 9.75e-4,-0.09066 0.150838,-0.164825 0.333046,-0.164825 h 0.331291 l -0.266786,-0.382971 c -0.146733,-0.210635 -0.266342,-0.433147 -0.265796,-0.494476 9.75e-4,-0.117206 1.025506,-0.757535 1.09184,-0.682436 0.02111,0.02392 0.157259,0.245392 0.302515,0.492154 l 0.264099,0.448656 0.113155,-0.448656 c 0.10881,-0.431428 0.139302,-0.450206 0.793752,-0.488904 0.658111,-0.03892 0.677565,-0.0302 0.588799,0.263716 -0.05049,0.167183 -0.171516,0.464195 -0.268956,0.660034 -0.244285,0.490978 -0.222618,0.632883 0.09664,0.632883 0.231984,0 0.248605,-0.03105 0.10882,-0.203195 -0.138781,-0.17092 -0.09519,-0.280636 0.274456,-0.690808 0.241691,-0.268192 0.450896,-0.509876 0.464903,-0.537081 0.01399,-0.02721 0.235948,0.08351 0.493207,0.246024 l 0.467737,0.295483 -0.421759,0.444788 -0.421759,0.444789 h 0.34781 c 0.357,0 0.402612,0.107194 0.266503,0.626334 -0.07327,0.279441 -0.144393,0.296684 -1.223756,0.296684 -0.677979,0 -1.145969,0.05385 -1.145969,0.131858 0,0.07912 0.516005,0.131864 1.290016,0.131864 1.388996,0 1.423067,0.02073 1.166852,0.709547 -0.106733,0.286945 -0.214329,0.336932 -0.806263,0.374563 l -0.68309,0.04341 0.674216,0.326287 c 0.370823,0.179457 0.673406,0.355955 0.672416,0.392216 -9.75e-4,0.03628 -0.195762,0.297556 -0.432826,0.580649 -0.4431,0.529142 -0.525152,0.539095 -1.075058,0.130363 -0.280872,-0.208762 -0.290258,-0.204555 -0.290258,0.129994 0,0.315453 0.0452,0.345733 0.51601,0.345733 0.283803,0 0.516006,0.0318 0.516006,0.0707 0,0.03887 -0.125017,0.580205 -0.277815,1.202931 -0.350979,1.430397 -0.602939,1.741559 -1.495959,1.847442 -0.660949,0.07836 -0.677258,0.07217 -0.677258,-0.256934 z m 0.258,-3.051145 c 0,-0.102854 0.03525,-0.280866 0.0783,-0.39558 0.06634,-0.176702 -0.03715,-0.205831 -0.677259,-0.190621 -0.415557,0.0099 -0.619837,0.04436 -0.453948,0.07662 0.246236,0.04789 0.287235,0.117226 0.223296,0.377624 -0.07173,0.292108 -0.04013,0.318955 0.375645,0.318955 0.305889,0 0.453962,-0.061 0.453962,-0.187002 z m -3.692671,-1.27994 c 0.120858,-0.617678 0.09952,-0.774674 -0.105266,-0.774674 -0.23603,0 -0.286045,0.08728 -0.397263,0.693271 -0.07993,0.435499 -0.06047,0.493469 0.165665,0.493469 0.183783,0 0.279034,-0.116518 0.336864,-0.412066 z m 4.079677,-0.379094 c 0,-0.07252 -0.112672,-0.131863 -0.25039,-0.131863 -0.137713,0 -0.286264,0.05934 -0.330116,0.131863 -0.0452,0.07479 0.06316,0.131859 0.25039,0.131859 0.181564,0 0.330116,-0.05934 0.330116,-0.131859 z m -3.667016,-1.681215 c 0.04344,-0.199437 0.106489,-0.466453 0.140151,-0.593373 0.04378,-0.165019 -0.01404,-0.230754 -0.203032,-0.230754 -0.18312,0 -0.288478,0.11132 -0.343188,0.362618 -0.04344,0.199437 -0.106489,0.466452 -0.140156,0.593367 -0.04378,0.165025 0.01404,0.230754 0.203037,0.230754 0.18312,0 0.288473,-0.111315 0.343188,-0.362612 z m 3.235496,-0.895743 c 0.117498,-0.31298 0.0072,-0.330318 -0.344417,-0.05416 l -0.320574,0.25177 0.294299,0.003 c 0.161867,0.0015 0.328678,-0.08863 0.370692,-0.200544 z m 6.365604,7.08017 c 0,-0.198859 0.409048,-2.241208 0.710456,-3.547227 0.06256,-0.271087 0.02248,-0.296688 -0.464352,-0.296688 h -0.532822 l 0.09057,-0.49347 c 0.124349,-0.677531 0.162165,-0.716464 0.653763,-0.673176 0.237356,0.02088 0.462261,0.0066 0.499784,-0.03175 0.03754,-0.03837 0.149653,-0.466791 0.24917,-0.952073 l 0.180946,-0.882326 H 39.9142 c -0.382841,0 -0.434299,-0.03653 -0.371252,-0.263721 0.04027,-0.145046 0.106134,-0.382393 0.146392,-0.527439 0.06913,-0.249099 0.183593,-0.263721 2.064026,-0.263721 1.613328,0 1.990836,0.03474 1.990836,0.18323 0,0.10078 -0.232204,1.286782 -0.516006,2.635566 -0.283809,1.348779 -0.513686,2.734916 -0.510844,3.0803 0.0051,0.626205 0.0057,0.626972 0.194012,0.272398 0.17312,-0.325958 0.221896,-0.343799 0.585608,-0.214198 0.218219,0.07775 0.425752,0.218604 0.461193,0.313 0.07597,0.202362 -0.390804,1.331072 -0.690388,1.669449 -0.514506,0.581117 -1.417838,0.02457 -1.710929,-1.054159 -0.176611,-0.649997 -0.166357,-1.126442 0.04388,-2.039732 l 0.174553,-0.758197 h -0.414274 -0.41428 l -0.349302,1.747145 c -0.466444,2.333081 -0.469965,2.340517 -1.10754,2.340517 -0.418599,0 -0.518769,-0.04705 -0.518769,-0.243747 z m 3.262829,-5.98664 0.19468,-0.890051 h -0.429589 c -0.418907,0 -0.433407,0.01879 -0.582895,0.754809 -0.08431,0.415146 -0.180073,0.82611 -0.212788,0.91326 -0.06025,0.160504 0.592631,0.318577 0.753108,0.182338 0.04554,-0.03867 0.170414,-0.470824 0.277484,-0.960356 z m -6.219349,5.654417 C 35.723524,41.51906 35.673402,41.25786 35.87212,41.25786 c 0.262159,0 0.562377,-0.709333 0.797038,-1.88322 0.133642,-0.668516 0.274787,-1.319325 0.313661,-1.446244 0.05959,-0.194558 -0.01414,-0.230755 -0.47015,-0.230755 -0.536922,0 -0.540243,-0.003 -0.460199,-0.412061 0.04432,-0.226633 0.08062,-0.463981 0.08062,-0.527438 0,-0.06346 0.493431,-0.115377 1.096516,-0.115377 0.850085,0 1.096516,0.04116 1.096516,0.183275 0,0.1008 -0.1161,0.760036 -0.258006,1.464973 -0.141901,0.704932 -0.258,1.31188 -0.258,1.348764 0,0.03688 0.199302,-0.08832 0.4429,-0.278234 0.243593,-0.189918 0.468751,-0.345299 0.500355,-0.345299 0.03159,0 0.133485,0.187611 0.226406,0.416915 l 0.168951,0.416915 -1.346569,1.292468 c -0.740607,0.710863 -1.385364,1.294632 -1.432795,1.297268 -0.04744,0.0025 -0.207064,-0.195056 -0.354752,-0.439317 z m 1.5547,-6.693904 c -0.08988,-0.444803 -0.116006,-0.851238 -0.05806,-0.903188 0.05795,-0.05195 0.350131,-0.191109 0.649291,-0.309242 l 0.543929,-0.214782 0.264197,0.874323 c 0.145309,0.480875 0.248844,0.884429 0.230082,0.896788 -0.120282,0.07921 -1.227715,0.464834 -1.334891,0.464834 -0.07212,0 -0.204666,-0.363929 -0.294548,-0.808733 z M 11.751763,30.095341 c 0,-0.04745 0.406355,-1.733549 0.903012,-3.746878 0.496657,-2.013323 0.903012,-3.695271 0.903012,-3.737652 0,-0.04236 -0.638558,-0.07706 -1.419019,-0.07706 -1.550424,0 -1.513574,0.02367 -1.283235,-0.824127 l 0.134347,-0.494471 h 3.863989 c 3.005574,0 3.863831,0.03663 3.863271,0.164825 -4e-4,0.09065 -0.06117,0.387337 -0.135066,0.659297 l -0.134349,0.494476 h -1.447569 -1.447572 l -0.82278,3.395393 c -0.452529,1.867466 -0.898395,3.588237 -0.990815,3.823941 -0.167324,0.426728 -0.171892,0.428542 -1.077631,0.428542 -0.500277,0 -0.909595,-0.03882 -0.909595,-0.08628 z m 6.808224,-0.06015 c -0.861636,-0.124791 -1.32122,-0.34517 -1.801199,-0.863712 -1.54826,-1.672634 -0.08452,-4.87471 2.59188,-5.669997 1.087686,-0.323206 2.564532,-0.269238 3.405832,0.124453 0.937179,0.438564 1.314194,1.053346 1.311347,2.138379 -0.0034,1.345903 0.220974,1.252669 -3.016296,1.252669 -1.789908,0 -2.864478,0.04964 -2.915897,0.134669 -0.15508,0.256485 0.37841,1.112747 0.840207,1.348555 0.505879,0.258309 1.912028,0.308634 2.773537,0.09926 0.508117,-0.123491 1.354521,-0.05203 1.354521,0.114365 0,0.16042 -1.174116,0.810203 -1.909531,1.05678 -0.954098,0.319898 -1.72079,0.396901 -2.634401,0.264579 z m 3.640917,-4.44568 c 0,-0.132406 -0.149961,-0.384586 -0.333246,-0.560405 -0.284875,-0.27327 -0.459755,-0.319619 -1.204814,-0.319305 -0.746449,2.65e-4 -0.947233,0.05397 -1.398646,0.373727 -0.969144,0.686497 -0.877638,0.746715 1.134731,0.746715 1.658626,0 1.801975,-0.01914 1.801975,-0.240732 z m 2.173777,4.528479 c -0.04961,-0.05071 1.298549,-5.768743 1.497466,-6.351281 0.03588,-0.105131 0.298702,-0.06017 0.857803,0.146765 l 0.806044,0.298328 0.718755,-0.338562 c 1.292517,-0.608831 2.967764,-0.521079 3.665387,0.192002 0.573982,0.586699 0.566508,1.031981 -0.06151,3.663939 l -0.569452,2.386511 -0.932085,0.03872 c -0.740129,0.03075 -0.932084,-1.1e-4 -0.932084,-0.149919 0,-0.103766 0.203178,-0.99897 0.451505,-1.989352 0.710359,-2.83304 0.629974,-3.179167 -0.733952,-3.160224 -1.37063,0.01904 -1.745027,0.503656 -2.383362,3.085065 -0.260039,1.051582 -0.52838,1.986137 -0.596313,2.07679 -0.118103,0.157604 -1.648299,0.244196 -1.788201,0.101194 z m 11.086391,-0.08256 c -1.363701,-0.197568 -2.410895,-1.012679 -2.692991,-2.096157 -0.5076,-1.949637 1.698172,-4.25925 4.398789,-4.60586 1.321059,-0.169555 2.965282,0.124014 2.965282,0.529436 0,0.0732 -0.0941,0.515986 -0.209102,0.983969 L 39.713947,25.697702 39.26371,25.29363 c -0.570808,-0.512278 -0.932158,-0.650849 -1.687743,-0.647231 -1.029768,0.005 -2.228936,0.723501 -2.679905,1.605842 -0.100093,0.195839 -0.181984,0.618027 -0.181984,0.938204 0,1.096724 0.792679,1.6354 2.212856,1.503771 0.703781,-0.06523 1.053971,-0.21227 1.975509,-0.829459 0.352871,-0.236336 0.359019,-0.235997 0.289214,0.0158 -0.03925,0.141492 -0.164202,0.597155 -0.277717,1.012595 -0.205592,0.752407 -0.209015,0.756075 -0.880861,0.944303 -0.939554,0.263234 -1.711507,0.322654 -2.572007,0.197992 z m 7.093243,0.0015 c -0.91303,-0.13423 -1.365545,-0.366774 -1.880643,-0.966436 -1.231747,-1.43396 -0.206636,-4.203482 1.953417,-5.277521 1.254318,-0.623683 3.23853,-0.671835 4.313871,-0.104682 0.900783,0.475084 1.329309,1.500104 1.110548,2.656383 l -0.114748,0.606509 -2.87029,0.03548 -2.870292,0.03548 v 0.373801 c 0,0.42751 0.469321,1.009864 0.970968,1.204815 0.423453,0.164562 1.897388,0.163884 2.576582,-9.96e-4 0.514026,-0.124926 1.354521,-0.05139 1.354521,0.118512 0,0.181411 -1.376856,0.924124 -2.064031,1.113399 -1.008871,0.277881 -1.634555,0.329711 -2.479903,0.205428 z m 3.640918,-4.447289 c 0,-0.406768 -0.576892,-0.838694 -1.218997,-0.912672 -0.735566,-0.08475 -1.566407,0.21996 -2.072741,0.760166 l -0.36858,0.393238 h 1.830162 c 1.68591,0 1.830156,-0.01899 1.830156,-0.240732 z m 2.037416,4.520958 c -0.06339,-0.0648 1.385652,-6.184103 1.515081,-6.398162 0.03057,-0.05057 0.415142,0.04112 0.854595,0.203773 l 0.798999,0.295721 0.712708,-0.333518 c 1.790771,-0.838006 3.845329,-0.355665 4.086693,0.959419 0.07068,0.385129 -0.317971,2.298575 -0.985009,4.849448 l -0.129303,0.494471 h -0.898042 c -0.725347,0 -0.898038,-0.03932 -0.898038,-0.204495 0,-0.112477 0.203179,-1.029181 0.451506,-2.037121 0.248327,-1.007945 0.451505,-2.04635 0.451505,-2.30757 0,-0.420289 -0.05321,-0.497675 -0.462378,-0.672423 -0.654976,-0.279729 -1.511658,-0.125494 -2.065938,0.371952 -0.466912,0.419033 -0.829212,1.39592 -1.285135,3.46513 -0.127835,0.580181 -0.28705,1.129049 -0.353812,1.219702 -0.119644,0.162463 -1.648031,0.242292 -1.793432,0.09367 z m 8.669732,-0.151494 c 0,-0.122454 0.206869,-1.027341 0.459706,-2.010861 0.252837,-0.98352 0.516303,-2.010732 0.585479,-2.282697 l 0.125777,-0.494471 h 0.949232 0.949232 l -0.630968,2.472371 c -0.34703,1.359808 -0.631296,2.487211 -0.6317,2.505342 -3.85e-4,0.01814 -0.407088,0.03294 -0.903747,0.03294 -0.76148,0 -0.903011,-0.03489 -0.903011,-0.222646 z m -0.257283,-5.216576 c 3.85e-4,-0.09065 0.06117,-0.387337 0.135065,-0.659301 l 0.134344,-0.494471 h 0.762977 0.762972 l 0.138673,-0.560408 c 0.281053,-1.135827 0.187655,-1.145017 1.742204,0.171398 2.270043,1.922312 2.380033,1.707605 -0.874751,1.707605 -2.156147,0 -2.80204,-0.03803 -2.801484,-0.164826 z"
       id="path2032"
       inkscape:connector-curvature="0" />
  </g>
</svg>
